<svg xmlns="http://www.w3.org/2000/svg" viewBox="0 0 104.67 54.22"><defs><style>.cls-1{fill:#ecebd5;}</style></defs><title>amenity-bridge</title><g id="Layer_2" data-name="Layer 2"><g id="Layer_1-2" data-name="Layer 1"><path class="cls-1" d="M97.8,23.74V6.48a26.71,26.71,0,0,1,5,1.46c1.2-.53,1.86-1.09,1.86-1.66C104.67,2.81,81.24,0,52.33,0S0,2.81,0,6.28c0,.57.65,1.13,1.85,1.66A27.43,27.43,0,0,1,7.12,6.43V23.68C2.6,24.61,0,25.69,0,26.84V54.22H13.47A45.39,45.39,0,0,1,53.13,31.49,45.39,45.39,0,0,1,92.79,54.22h11.88V26.84C104.67,25.71,102.16,24.65,97.8,23.74ZM39.9,3.49c3.43-.1,7-.16,10.64-.17V20.57c-3.65,0-7.21.07-10.64.17ZM36.07,20.87c-3.75.15-7.32.35-10.64.59V4.2c3.32-.24,6.89-.43,10.64-.58ZM54.38,3.32c3.65,0,7.21.08,10.64.18V20.75c-3.43-.1-7-.16-10.64-.18Zm14.47.31c3.76.15,7.32.35,10.64.59V21.47c-3.32-.24-6.89-.44-10.64-.59ZM11,23V5.75c3-.47,6.62-.89,10.64-1.24V21.76C17.58,22.11,14,22.53,11,23Zm72.37-1.22V4.53c4,.36,7.61.78,10.64,1.26V23C90.94,22.56,87.35,22.14,83.33,21.78Z"/></g></g></svg>