<svg xmlns="http://www.w3.org/2000/svg" viewBox="0 0 224.28 224.28"><defs><style>.cls-1{fill:#534d41;}.cls-2{fill:#edebd4;}</style></defs><title>amenity-airport</title><g id="Layer_2" data-name="Layer 2"><g id="Layer_1-2" data-name="Layer 1"><circle class="cls-1" cx="112.14" cy="112.14" r="112.14"/><g id="_9VChQJ" data-name="9VChQJ"><path class="cls-2" d="M78.73,190.54c.71-.61,13.74-9.48,19.72-13.06,3.87-2.31,4-5.44,4.08-10,.16-8.35-.63-16.57-1-24.85-.33-8.45-2.81-10.85-11.34-9.69-12.62,1.7-40,10.13-41.58,10.5-4,1-8.65,2.45-11.17-2.17-2.83-5.2,1.18-8.7,4.92-11,14.1-8.68,28.45-17,42.87-25.08,8.44-4.74,13-9.66,11-20.36-1.6-8.63-3.36-17.58-2.29-26.6,1.26-10.5,3.53-20.7,10.22-29.25,5.69-7.28,10.6-7.39,16.08.15,9.27,12.75,11.34,27.39,9.65,42.68-.45,4.1-.9,8.33-1.7,12.25-2.44,12,.46,16.08,9.08,21,13,7.39,44.22,24.6,45.71,25.84,3.06,2.54,6,5.32,4.25,9.72-1.85,4.72-6.25,4.36-9.83,3.27-11-3.33-36.15-10-37.7-10.41-12.09-3-15.53-.17-16.72,10.49-1.27,11.27-1.14,13.26-1.27,22.9-.12,9.13,3.65,11.75,14.76,17.89,3.87,2.13,14.38,7.63,11.51,12.7-2.69,4.77-9.16,3-14.25,1.4-14.57-4.54-29.16-5-43.7.2-2.1.75-11,4.08-13.88-1.11C74.33,194.65,76.58,192.55,78.73,190.54Z"/></g></g></g></svg>