<svg xmlns="http://www.w3.org/2000/svg" viewBox="0 0 89.14 89.49"><defs><style>.cls-1{fill:#fff;}</style></defs><title>button</title><g id="Layer_2" data-name="Layer 2"><g id="Layer_1-2" data-name="Layer 1"><path class="cls-1" d="M89.1,49.11c0,3.88.12,10,0,16.21a98.68,98.68,0,0,1-1,11.89c-.78,5.14-7.49,10.67-12.94,11.28-10.11,1.13-20.26,1-30.4,1-5.75,0-11.5.11-17.24-.07-4.73-.15-9.47-.44-14.15-1.06C6.92,87.48,1.8,81.8,1.12,75.24-.48,59.8,0,44.31.3,28.85c.1-5.67-.19-11.46,1.25-17.1C2.72,7.15,9.2,1.09,15,.81q21.67-1,43.35-.75c6.2.08,12.45.09,18.6,1.33,5.43,1.1,10.67,6.82,11.21,12.29C89.23,24.71,89.17,35.77,89.1,49.11Z"/></g></g></svg>