<svg xmlns="http://www.w3.org/2000/svg" viewBox="0 0 47.08 49.43"><defs><style>.cls-1{fill:#504b4a;}.cls-2{fill:#6b3923;}.cls-3{fill:#626168;}.cls-4{fill:#85838c;}.cls-5{fill:#c24331;}</style></defs><title>shovel</title><g id="Layer_2" data-name="Layer 2"><g id="Layer_1-2" data-name="Layer 1"><g id="bCWZNr.tif"><path class="cls-1" d="M28.48,23.16a3.2,3.2,0,0,0,.81,4.21A31,31,0,0,1,33,31.73a4.17,4.17,0,0,1,.22,5.33C29,42.78,24,47.6,16.63,49c-3.88.74-7.79.69-11.38-1.4C2.26,45.86,1,43,.41,39.8A18,18,0,0,1,2.28,27,84.77,84.77,0,0,1,9,17.77a4.07,4.07,0,0,1,5.2-1.1,24.78,24.78,0,0,1,5.1,2.54,3.09,3.09,0,0,0,3.95.35l1.62.67c-1,2.33-2.74,3.09-5.06,2.19-2.2-1.26-4.34-2.66-6.64-3.7a2.91,2.91,0,0,0-2.57.86,66.85,66.85,0,0,0-5.33,7.08A19.6,19.6,0,0,0,3.73,31c-.9,1.65-2.12,3.22-1.06,5.28a1.64,1.64,0,0,1-.06,1,8,8,0,0,0,4.13,8.68,13.47,13.47,0,0,0,12,.12,27.91,27.91,0,0,0,6.92-4.31c2.28-2,4-4.67,6-7.05l-1.89-3.06L25.26,27l-.5-.43,1.53-3.51Z"/><path class="cls-2" d="M24.87,20.23l-1.62-.67a55.34,55.34,0,0,0,4.19-5.77c.5-.9.18-2.33,0-3.51-.15-1.45-1.15-3.22-.62-4.25A20.23,20.23,0,0,1,31.56.33c.66-.58,2.68-.34,3.61.26,3.55,2.31,7,4.84,10.31,7.43,2.06,1.6,2.08,3.39.36,5.36-.44.5-1,.91-1.37,1.45a7.75,7.75,0,0,1-8.19,3.4c-1-.17-2.28.58-3.22,1.23-1.62,1.1-3.06,2.46-4.58,3.7l-2.19-.1,3.4-4.33c.44-.22,1-.34,1.29-.7,1.63-2.39,4-2.84,6.57-2.41,3.5.57,5-2.15,6.82-4.12.26-.27,0-1.56-.4-1.87-3.23-2.44-6.53-4.8-9.86-7.09a2.15,2.15,0,0,0-1.82-.11c-2.05,1-3.73,4.54-3,6.67,1,2.75,1.42,5.24-1.22,7.34-.29.24-.36.74-.54,1.11Z"/><path class="cls-3" d="M3.73,31a19.6,19.6,0,0,1,1.54-4.3,66.85,66.85,0,0,1,5.33-7.08,2.91,2.91,0,0,1,2.57-.86c2.3,1,4.44,2.44,6.64,3.7l-.65.7c-1.57-.89-3.11-1.81-4.7-2.64a3.53,3.53,0,0,0-1.36-.13,4,4,0,0,0,.15,1.12c1,2,1.93,4,3,5.91.22.38.94.47,1.43.69,1.29,2.61,1.31,2.58,3.78.62,1-.8,2.19-1.42,3.29-2.12l.5.43a5.49,5.49,0,0,0,4.52,4.59l1.89,3.06c-4-1.22-7.12-.1-9.65,3.31A13.68,13.68,0,0,1,18,41.17,25.18,25.18,0,0,1,13,43.38c-1.76.58-4.81-1.27-5.92-3.72C5.82,36.83,4.84,33.87,3.73,31Z"/><path class="cls-4" d="M3.73,31c1.11,2.91,2.09,5.87,3.37,8.7C8.21,42.11,11.26,44,13,43.38A25.18,25.18,0,0,0,18,41.17,13.68,13.68,0,0,0,22,38c2.53-3.41,5.64-4.53,9.65-3.31-2,2.38-3.73,5-6,7.05A27.91,27.91,0,0,1,18.74,46a13.47,13.47,0,0,1-12-.12,8,8,0,0,1-4.13-8.68,1.64,1.64,0,0,0,.06-1C1.61,34.18,2.83,32.61,3.73,31Z"/><path class="cls-4" d="M24.76,26.57c-1.1.7-2.27,1.32-3.29,2.12-2.47,2-2.49,2-3.78-.62l1-2c1.75-1.07,1.84-1.59.47-2.87l-.05,0,.65-.7c2.32.9,4.07.14,5.06-2.19l2.69-2.68,2.13,1.18-3.4,4.33Z"/><path class="cls-4" d="M29.78,31.59A5.49,5.49,0,0,1,25.26,27Z"/><path class="cls-5" d="M29.69,18.73l-2.13-1.18c.18-.37.25-.87.54-1.11,2.64-2.1,2.21-4.59,1.22-7.34-.76-2.13.92-5.68,3-6.67a2.15,2.15,0,0,1,1.82.11C37.44,4.83,40.74,7.19,44,9.63c.4.31.66,1.6.4,1.87-1.87,2-3.32,4.69-6.82,4.12C35,15.19,32.61,15.64,31,18,30.73,18.39,30.13,18.51,29.69,18.73Zm6.47-5.21a9.47,9.47,0,0,0,2.72-.06,3.25,3.25,0,0,0,1.71-1.54,1.9,1.9,0,0,0-.66-1.65A58.71,58.71,0,0,0,34.4,6.55c-1.65-1-2.91-.19-3.13,1.7C30.86,11.73,32.55,13.56,36.16,13.52Z"/><path class="cls-1" d="M18.74,26l-1,2c-.49-.22-1.21-.31-1.43-.69-1.08-1.93-2-3.92-3-5.91a4,4,0,0,1-.15-1.12,3.53,3.53,0,0,1,1.36.13c1.59.83,3.13,1.75,4.7,2.64l.05,0Z"/><path class="cls-3" d="M18.74,26l.47-2.87C20.58,24.44,20.49,25,18.74,26Z"/><path class="cls-2" d="M36.16,13.52c-3.61,0-5.3-1.79-4.89-5.27.22-1.89,1.48-2.65,3.13-1.7a58.71,58.71,0,0,1,5.53,3.72,1.9,1.9,0,0,1,.66,1.65,3.25,3.25,0,0,1-1.71,1.54A9.47,9.47,0,0,1,36.16,13.52ZM34.09,8.74c-.38.52-.72.78-.76,1.08-.14,1,1.29,2.18,2.56,2,.38-.05.72-.44,1.08-.68Z"/></g></g></g></svg>