<svg xmlns="http://www.w3.org/2000/svg" viewBox="0 0 86.86 74.78"><defs><style>.cls-1{fill:#fff;}</style></defs><title>structure-base</title><g id="Layer_2" data-name="Layer 2"><g id="Layer_1-2" data-name="Layer 1"><path class="cls-1" d="M86.51,74.78H56.15V40.45h-25V74.66H0C.34,70,.56,65.42,1,60.89c.92-9.23,1.89-18.46,3-27.66A6.33,6.33,0,0,1,6.12,29.5C17.67,19.76,29.26,10.06,41,.58c1-.82,3.85-.75,4.89.09,11.74,9.5,23.32,19.22,34.87,29a5.57,5.57,0,0,1,2,3.23C84.25,46,85.55,59.22,86.85,72.41A10.87,10.87,0,0,1,86.51,74.78Z"/></g></g></svg>