<svg xmlns="http://www.w3.org/2000/svg" viewBox="0 0 47.61 45.63"><defs><style>.cls-1{fill:#fff;}</style></defs><title>tree-bush</title><g id="Layer_2" data-name="Layer 2"><g id="Layer_1-2" data-name="Layer 1"><path class="cls-1" d="M29.24,40.77c-.72,1.43-1.44,2.88-2.42,4.86l-7.71-4.52c-7,3.11-7,3.11-9.16-3.57L2.46,38.62C3.38,34.16,4.16,30.34,5,26.1l-5-2L8,13.48,5,9.63C8.68,8.05,11.93,6.8,15,5.26A64.75,64.75,0,0,0,21,1.52c-.23-.48-.46-1-.68-1.44.46,0,1.08-.2,1.37,0C26.77,4,33.13,4.57,38.84,6.82c4.22,1.66,4.49,3.82,1.56,7.21,8.56,7.29,9.29,9.74,3.3,12.44A34.68,34.68,0,0,1,45.56,32a39.29,39.29,0,0,1,.07,6.29l-5.94-.65C36.39,44,36.39,44,29.24,40.77Z"/></g></g></svg>