<?xml version="1.0" encoding="UTF-8"?>
<svg xmlns="http://www.w3.org/2000/svg" viewBox="0 0 16 16" width="160" height="160">
  <path d="M 16 0 L 16 16 L 3 16 L 3 14 L 5 12 L 5 9 L 4 8 L 4 3 L 3 2 L 3 0 Z" fill="#83e1c3" />
  <path d="M 11 2 L 9 4 L 10 5 L 10 6 L 9 7 L 9 8 L 11 8 L 13 10 L 13 11 L 12 12 L 12 13 L 11 14 L 11 16 L 3 16 L 3 14 L 5 12 L 5 9 L 4 8 L 4 3 L 3 2 L 3 0 L 11 0 Z" fill="#eee9a9" />
  <path d="M 8 7 L 9 7 L 10 6 L 10 5 L 8 3 L 7 3 L 6 4 L 6 5 Z M 10 8 L 9 9 L 8 9 L 7 10 L 7 12 L 9 14 L 11 14 L 12 13 L 12 12 L 13 11 L 13 10 L 11 8 Z" fill="#737a89" />
</svg>