<?xml version="1.0" encoding="UTF-8"?>
<svg xmlns="http://www.w3.org/2000/svg" viewBox="0 0 16 16" width="160" height="160">
  <path d="M 16 0 L 16 16 L 3 16 L 3 14 L 5 12 L 5 10 L 3 8 L 3 6 L 4 5 L 4 2 L 3 1 L 3 0 Z" fill="#83e1c3" />
  <path d="M 11 2 L 10 3 L 10 4 L 11 5 L 12 5 L 14 7 L 14 8 L 13 9 L 13 11 L 12 12 L 11 12 L 10 13 L 10 14 L 11 15 L 11 16 L 3 16 L 3 14 L 5 12 L 5 10 L 3 8 L 3 6 L 4 5 L 4 2 L 3 1 L 3 0 L 11 0 Z" fill="#eee9a9" />
  <path d="M 9 10 L 9 11 L 10 12 L 12 12 L 13 11 L 13 9 L 14 8 L 14 7 L 12 5 L 10 5 L 9 4 L 6 4 L 5 5 L 5 7 L 7 9 L 8 9 Z" fill="#737a89" />
</svg>