<?xml version="1.0" encoding="UTF-8"?>
<svg xmlns="http://www.w3.org/2000/svg" viewBox="0 0 16 16" width="160" height="160">
  <path d="M 0 0 L 16 0 L 16 16 L 3 16 L 3 15 L 2 14 L 2 13 L 0 13 Z" fill="#83e1c3" />
  <path d="M 3 8 L 6 8 L 7 9 L 8 9 L 7 8 L 8 7 L 10 7 L 11 8 L 11 10 L 10 11 L 11 11 L 12 12 L 12 13 L 11 14 L 11 16 L 3 16 L 3 15 L 2 14 L 2 13 L 0 13 L 0 11 Z" fill="#eee9a9" />
  <path d="M 6 14 L 5 15 L 3 15 L 2 14 L 2 13 L 0 13 L 0 11 L 3 8 L 6 8 L 7 9 L 8 9 L 7 8 L 8 7 L 10 7 L 11 8 L 11 10 L 10 11 L 11 11 L 12 12 L 12 13 L 11 14 Z" fill="#737a89" />
</svg>