<?xml version="1.0" encoding="UTF-8"?>
<svg xmlns="http://www.w3.org/2000/svg" viewBox="0 0 16 16" width="160" height="160">
  <path d="M 0 0 L 16 0 L 16 13 L 0 13 Z" fill="#83e1c3" />
  <path d="M 1 9 L 2 8 L 3 8 L 4 9 L 4 11 L 5 12 L 6 11 L 7 11 L 8 12 L 9 12 L 10 11 L 11 11 L 12 10 L 15 10 L 16 11 L 16 13 L 0 13 L 0 9 Z" fill="#eee9a9" />
  <path d="M 1 9 L 2 8 L 3 8 L 4 9 L 4 11 L 5 12 L 6 11 L 7 11 L 8 12 L 9 12 L 10 11 L 11 11 L 12 10 L 15 10 L 16 11 L 16 13 L 0 13 L 0 9 Z" fill="#737a89" />
</svg>