<?xml version="1.0" encoding="UTF-8"?>
<svg xmlns="http://www.w3.org/2000/svg" viewBox="0 0 16 16" width="160" height="160">
  <path d="M 0 0 L 16 0 L 16 13 L 0 13 Z" fill="#83e1c3" />
  <path d="M 2 12 L 3 11 L 3.5 11.5 L 4 11 L 5 11 L 6 12 L 7 12 L 8 13 L 10 11 L 12 11 L 13 10 L 14 10 L 15 11 L 15 12 L 16 12 L 16 13 L 0 13 L 0 12 Z" fill="#eee9a9" />
  <path d="M 2 12 L 3 11 L 5 11 L 6 12 L 7 12 L 8 13 L 10 11 L 12 11 L 13 10 L 14 10 L 15 11 L 15 12 L 16 12 L 16 13 L 0 13 L 0 12 Z" fill="#737a89" />
</svg>