<?xml version="1.0" encoding="UTF-8"?>
<svg xmlns="http://www.w3.org/2000/svg" viewBox="0 0 16 16" width="160" height="160">
  <path d="M 0 16 L 0 0 L 16 0 L 16 13 L 14 13 L 13 14 L 13 16 Z" fill="#83e1c3" />
  <path d="M 5 9 L 6 8 L 8 8 L 9 9 L 9 11 L 10 11 L 11 10 L 15 10 L 16 11 L 16 13 L 14 13 L 13 14 L 13 16 L 5 16 Z" fill="#eee9a9" />
  <path d="M 8 14 L 7 13 L 6 13 L 5 12 L 5 9 L 6 8 L 8 8 L 9 9 L 9 11 L 10 11 L 11 10 L 15 10 L 16 11 L 16 13 L 14 13 L 13 14 L 13 15 L 11 15 L 10 14 Z" fill="#737a89" />
</svg>