<?xml version="1.0" encoding="UTF-8"?>
<svg xmlns="http://www.w3.org/2000/svg" viewBox="0 0 16 16" width="160" height="160">
  <path d="M 0 16 L 0 0 L 16 0 L 16 13 L 13 16 Z" fill="#83e1c3" />
  <path d="M 5 14 L 4 14 L 4 11 L 2 9 L 2 7 L 3 6 L 5 6 L 6 7 L 6 8 L 7 9 L 8 9 L 10 11 L 12 11 L 12 10 L 13 9 L 14 10 L 15 10 L 16 11 L 16 13 L 13 16 L 5 16 Z" fill="#eee9a9" />
  <path d="M 9 15 L 6 15 L 5 14 L 4 14 L 4 11 L 2 9 L 2 7 L 3 6 L 5 6 L 6 7 L 6 8 L 7 9 L 8 9 L 10 11 L 12 11 L 12 10 L 13 9 L 14 10 L 15 10 L 16 11 L 16 13 L 13 16 L 10 16 Z" fill="#737a89" />
</svg>