<?xml version="1.0" encoding="UTF-8"?>
<svg xmlns="http://www.w3.org/2000/svg" viewBox="0 0 16 16" width="160" height="160">
  <path d="M 0 16 L 0 8 L 2 10 L 5 10 L 7 8 L 9 8 L 11 10 L 11 11 L 12 12 L 12 13 L 13 14 L 13 16 Z M 0 0 L 13 0 L 13 1 L 12 2 L 12 4 L 9 4 L 7 2 L 3 2 L 2 3 L 1 3 L 0 4 Z" fill="#83e1c3" />
  <path d="M 5 15 L 6 14 L 6 11 L 5 10 L 7 8 L 9 8 L 11 10 L 11 11 L 12 12 L 12 13 L 13 14 L 13 16 L 5 16 Z M 5 0 L 13 0 L 13 1 L 12 2 L 12 4 L 9 4 L 7 2 L 5 2 Z" fill="#eee9a9" />
</svg>