<?xml version="1.0" encoding="UTF-8"?>
<svg xmlns="http://www.w3.org/2000/svg" viewBox="0 0 16 16" width="160" height="160">
  <path d="M 0 16 L 0 0 L 13 0 L 13 2 L 12 3 L 12 6 L 10 8 L 10 11 L 11 12 L 11 13 L 13 15 L 13 16 Z" fill="#83e1c3" />
  <path d="M 5 14 L 3 12 L 3 11 L 2 11 L 1 10 L 1 8 L 2 7 L 4 7 L 4 5 L 3 4 L 3 3 L 4 2 L 5 2 L 5 0 L 13 0 L 13 2 L 12 3 L 12 6 L 10 8 L 10 11 L 11 12 L 11 13 L 13 15 L 13 16 L 5 16 Z" fill="#eee9a9" />
  <path d="M 7 2 L 4 2 L 3 3 L 3 4 L 4 5 L 4 7 L 2 7 L 1 8 L 1 10 L 2 11 L 3 11 L 3 12 L 4 13 L 6 13 L 8 11 L 8 7 L 9 6 L 9 4 Z" fill="#737a89" />
</svg>