<?xml version="1.0" encoding="UTF-8"?>
<svg xmlns="http://www.w3.org/2000/svg" viewBox="0 0 16 16" width="160" height="160">
  <path d="M 0 16 L 0 0 L 13 0 L 13 1 L 12 2 L 12 7 L 13 8 L 13 10 L 12 11 L 12 14 L 13 15 L 13 16 Z" fill="#83e1c3" />
  <path d="M 5 14 L 6 13 L 6 10 L 7 10 L 6 9 L 6 8 L 5 7 L 5 5 L 4 4 L 5 3 L 6 3 L 6 1 L 5 0 L 13 0 L 13 1 L 12 2 L 12 7 L 13 8 L 13 10 L 12 11 L 12 14 L 13 15 L 13 16 L 5 16 Z" fill="#eee9a9" />
  <path d="M 10 8 L 10 6 L 8 4 L 7 4 L 6 3 L 5 3 L 4 4 L 5 5 L 5 7 L 6 8 L 6 9 L 7 10 L 8 10 Z" fill="#737a89" />
</svg>