<?xml version="1.0" encoding="UTF-8"?>
<svg xmlns="http://www.w3.org/2000/svg" viewBox="0 0 16 16" width="160" height="160">
  <path d="M 0 16 L 0 0 L 13 0 L 13 1 L 12 2 L 12 3 L 11 4 L 11 9 L 12 10 L 12 13 L 13 14 L 13 16 Z" fill="#83e1c3" />
  <path d="M 5 14 L 6 13 L 6 10 L 7 9 L 5 9 L 5 6 L 6 5 L 7 5 L 8 6 L 8 5 L 5 2 L 5 0 L 13 0 L 13 1 L 12 2 L 12 3 L 11 4 L 11 9 L 12 10 L 12 13 L 13 14 L 13 16 L 5 16 Z" fill="#eee9a9" />
  <path d="M 5 6 L 5 9 L 7 9 L 8 8 L 8 6 L 7 5 L 6 5 Z" fill="#737a89" />
</svg>