<?xml version="1.0" encoding="UTF-8"?>
<svg xmlns="http://www.w3.org/2000/svg" viewBox="0 0 16 16" width="160" height="160">
  <path d="M 16 0 L 16 16 L 4 16 L 4 10 L 3 10 L 3 6 L 4 6 L 4 0 Z" fill="#83e1c3" />
  <path d="M 11 2 L 9 4 L 8 4 L 7 5 L 6 5 L 5 6 L 4 6 L 4 4 L 3 3 L 3 0 L 11 0 Z M 5 10 L 7 12 L 8 12 L 9 13 L 10 13 L 11 14 L 11 16 L 3 16 L 3 12 L 4 11 L 4 10 Z" fill="#eee9a9" />
  <path d="M 10 14 L 8 12 L 7 12 L 7 13 L 9 15 L 10 15 Z M 6 4 L 7 5 L 8 4 L 8 3 L 7 3 Z" fill="#737a89" />
</svg>