<?xml version="1.0" encoding="UTF-8"?>
<svg xmlns="http://www.w3.org/2000/svg" viewBox="0 0 16 16" width="160" height="160">
  <path d="M 16 0 L 16 16 L 3 16 L 3 15 L 4 14 L 4 12 L 3 11 L 3 6 L 4 5 L 4 2 L 3 1 L 3 0 Z" fill="#83e1c3" />
  <path d="M 11 1 L 12 1 L 13 2 L 13 5 L 11 7 L 11 8 L 12 9 L 12 11 L 11 12 L 10 12 L 11 13 L 11 16 L 3 16 L 3 15 L 4 14 L 4 12 L 3 11 L 3 6 L 4 5 L 4 2 L 3 1 L 3 0 L 11 0 Z" fill="#eee9a9" />
  <path d="M 12 1 L 13 2 L 13 5 L 11 7 L 11 8 L 12 9 L 12 11 L 11 12 L 10 12 L 10 13 L 9 14 L 7 14 L 6 13 L 6 9 L 7 8 L 7 4 L 8 3 L 8 2 L 9 1 Z" fill="#737a89" />
</svg>