<?xml version="1.0" encoding="UTF-8"?>
<svg xmlns="http://www.w3.org/2000/svg" viewBox="0 0 16 16" width="160" height="160">
  <path d="M 0 0 L 16 0 L 16 16 L 0 16 Z M 16 16 L 13 16 L 16 13 Z" fill="#83e1c3" fill-rule="evenodd" />
  <path d="M 5 9 L 6 8 L 8 8 L 9 9 L 14 9 L 16 11 L 16 16 L 7 16 L 5 14 Z M 16 16 L 13 16 L 16 13 Z" fill="#eee9a9" fill-rule="evenodd" />
  <path d="M 5 9 L 6 8 L 8 8 L 9 9 L 14 9 L 16 11 L 16 13 L 13 16 L 7 16 L 5 14 Z M 16 16 L 13 16 L 16 13 Z" fill="#737a89" fill-rule="evenodd" />
</svg>