<?xml version="1.0" encoding="UTF-8"?>
<svg xmlns="http://www.w3.org/2000/svg" viewBox="0 0 16 16" width="160" height="160">
  <path d="M 0 0 L 16 0 L 16 16 L 0 16 Z M 0 16 L 0 13 L 16 13 L 16 16 Z" fill="#83e1c3" fill-rule="evenodd" />
  <path d="M 6 12 L 7 13 L 9 13 L 10 12 L 16 12 L 16 16 L 0 16 L 0 12 Z M 0 16 L 0 13 L 16 13 L 16 16 Z" fill="#eee9a9" fill-rule="evenodd" />
  <path d="M 6 12 L 7 13 L 0 13 L 0 12 Z M 9 13 L 10 12 L 16 12 L 16 13 Z M 0 16 L 0 13 L 16 13 L 16 16 Z" fill="#737a89" fill-rule="evenodd" />
</svg>