<?xml version="1.0" encoding="UTF-8"?>
<svg xmlns="http://www.w3.org/2000/svg" viewBox="0 0 16 16" width="160" height="160">
  <path d="M 0 0 L 16 0 L 16 16 L 0 16 Z M 0 16 L 0 13 L 16 13 L 16 16 Z M 0 16 L 0 13 L 16 13 L 16 16 Z M 0 16 L 0 14 L 16 14 L 16 16 Z" fill="#83e1c3" fill-rule="evenodd" />
  <path d="M 1 13 L 4 10 L 4 9 L 5 8 L 11 8 L 12 9 L 12 10 L 15 13 L 16 13 L 16 16 L 0 16 L 0 13 Z M 8 13 L 9 13 L 8.5 12.5 Z M 0 16 L 0 13 L 16 13 L 16 16 Z M 0 16 L 0 13 L 16 13 L 16 16 Z M 0 16 L 0 14 L 16 14 L 16 16 Z" fill="#eee9a9" fill-rule="evenodd" />
  <path d="M 15 13 L 1 13 L 4 10 L 4 11 L 5 12 L 11 12 L 12 11 L 12 10 Z M 0 16 L 0 13 L 16 13 L 16 16 Z M 0 16 L 0 13 L 16 13 L 16 16 Z M 0 16 L 0 14 L 16 14 L 16 16 Z" fill="#737a89" fill-rule="evenodd" />
</svg>