<svg xmlns="http://www.w3.org/2000/svg" viewBox="0 0 63.14 122.96"><defs><style>.cls-1{fill:#fff;}</style></defs><title>structure-lighthouse</title><g id="Layer_2" data-name="Layer 2"><g id="Layer_1-2" data-name="Layer 1"><path class="cls-1" d="M63.14,123H0c.59-1.73.65-3.52,1.56-4.27C8.14,113.23,6,105.4,7.09,98.55c1.59-10.31,2.3-20.75,3.66-31.1.38-2.89.48-4.58-3-5.48S4.22,59,6.63,56.1c1-1.21.67-3.9.34-5.82-.31-1.76-1.44-3.37-2.43-5.55l8.92-.87c-1.55-6.74,2.57-14-2.8-20.08l18-14.6A60.91,60.91,0,0,1,28.86.41c.05-.31,4.33-.67,4.55-.13.93,2.23,1.05,4.79,1.48,7.23l-1.67.77L52.78,24.49c-3.58,1.15-3.59,1.15-3.6,5.92,0,4.31,0,8.62,0,13a9.23,9.23,0,0,0,2,.75c7.14.59,7,.5,4.29,6.92-.58,1.39.12,4,1.15,5.25,2.21,2.79,1.88,4.68-1.38,5.54-3.07.81-3.43,2.73-3.16,5.25q1.75,16.07,3.52,32.13c.3,2.8,1.05,5.67.73,8.4C55.64,113.93,61.37,117.09,63.14,123ZM24.34,44.28c3.46,0,6.42-.17,9.35,0,3.38.26,5-.83,4.57-4.42-.2-1.64.21-3.37-.13-4.95-.23-1-1.25-2.63-2-2.68-3.87-.27-7.77-.13-11.79-.13Zm2.4,61.53h9.78c-.54-3.73-.56-7.18-1.77-10.14-.34-.8-5.95-.79-6.28,0C27.27,98.65,27.26,102.1,26.74,105.81Zm10-49V49.65H26.55v7.19Zm4.76.26,6.36-.31V49.73H41.46ZM34.69,84.47V77.54h-6C27.49,85.23,27.91,85.72,34.69,84.47ZM20.89,50.52c-6.22-.43-6.8.44-4.74,6.66l4.74-.31Z"/></g></g></svg>