<svg xmlns="http://www.w3.org/2000/svg" viewBox="0 0 62.36 45.26"><defs><style>.cls-1{fill:#f8b8c7;}.cls-2{fill:#6b3923;}.cls-3{fill:#edd9c2;}.cls-4{fill:#c24331;}.cls-5{fill:#c4aca1;}</style></defs><title>brush</title><g id="Layer_2" data-name="Layer 2"><g id="Layer_1-2" data-name="Layer 1"><path class="cls-1" d="M17.56,24.32S14.4,11.89,4,13.72c-17.24,3,26.26,28.25,33.91,29.8s7.29,1.59,7.32,0-5.15-6.82-5.15-6.82Z"/><path class="cls-2" d="M36.49,5.57A10.85,10.85,0,0,1,42.3,7.08c1.92,1,2.82.59,3.59-1.5a14.86,14.86,0,0,1,1.59-3.16C49,.26,51.2-.17,53.62.05S57.93,1,59,3.27c1.37,3,.54,5.62-1.2,8.13a8.73,8.73,0,0,1-.9,1.11c-1.35,1.42-.79,3,1.07,3.78,2.17.89,4,2.25,4.31,4.86A11.68,11.68,0,0,1,60.6,29c-1.91,3-3.54,6.12-5.44,9.09a40.68,40.68,0,0,1-4.26,5.66c-1.38,1.49-3.4,1.68-5.34,1.44-3.12-.39-5.63-2.24-8.29-3.69-3.33-1.83-6.62-3.72-9.92-5.6-.82-.47-1.58-1.05-2.39-1.54s-1.65-.94-2.46-1.44c-2-1.2-4-2.33-5.86-3.65a3,3,0,0,1-1.27-3.5,2.71,2.71,0,0,1,3.06-2c2.82.16,4-1.78,5.25-3.68,1-1.56,2.06-3.12,3-4.74s1.78-3.44,2.7-5.14a29.15,29.15,0,0,1,1.76-2.88C32,6,33.52,5.85,34.92,5.58A9.94,9.94,0,0,1,36.49,5.57Zm9.76,37.18c2.44.35,4.17-.83,5.38-3.09.94-1.73,2-3.37,3.08-5,.89-1.45.85-2.22-.61-3.07-2.68-1.57-5.46-3-8.21-4.42-2.52-1.33-5.08-2.59-7.56-4-2.85-1.63-5.61-3.4-8.43-5.08-1.26-.74-2.07-.47-2.82.77s-1.39,2.44-2.21,3.56c-1.38,1.87-2.72,3.84-5.48,3.76a4.58,4.58,0,0,0-1.44.5c.28.45.46,1,.85,1.31,2.24,1.58,4.52,3.2,7.48,2.71a29.65,29.65,0,0,0,3.37-1,4.82,4.82,0,0,1,.86-.08c0,.32,0,.74-.13.93a16.69,16.69,0,0,1-1.9,1.86c-.84.7-.85,1.12.1,1.67l5,2.86a59.46,59.46,0,0,1,6.84,4A8.43,8.43,0,0,0,46.25,42.75ZM37.51,7.3c-2.47.22-4.1.68-5.14,2.34-.68,1.1-1.43,2.16-2.1,3.27a1.71,1.71,0,0,0,.95,2.57q2.12,1,4.14,2.15c2.63,1.5,5.2,3.1,7.85,4.57s5.27,2.75,7.87,4.19c1.6.88,3.14,1.86,4.66,2.87a1.27,1.27,0,0,0,2-.44c.67-1,1.39-2,2.05-3.05.88-1.36.51-5.21-.76-6.21-1.79-1.39-3.72-2.63-5.62-3.88-1.52-1-1.7-2.5-.18-3.2a8.5,8.5,0,0,0,3.81-3.71A4.31,4.31,0,0,0,54.3,2.16c-3-.59-4.94.49-6,3.38A17.54,17.54,0,0,0,47.52,9c-.21,1.42-1.22,2.26-2.58,1.83A20.12,20.12,0,0,1,42.36,9.6Z"/><path class="cls-3" d="M46.25,42.75a8.43,8.43,0,0,1-5.81-1.88,59.46,59.46,0,0,0-6.84-4l-5-2.86c-.95-.55-.94-1-.1-1.67a16.69,16.69,0,0,0,1.9-1.86c.17-.19.09-.61.13-.93a4.82,4.82,0,0,0-.86.08,29.65,29.65,0,0,1-3.37,1c-3,.49-5.24-1.13-7.48-2.71-.39-.27-.57-.86-.85-1.31a4.58,4.58,0,0,1,1.44-.5c2.76.08,4.1-1.89,5.48-3.76.82-1.12,1.49-2.36,2.21-3.56S28.64,17.3,29.9,18c2.82,1.68,5.58,3.45,8.43,5.08,2.48,1.41,5,2.67,7.56,4,2.75,1.46,5.53,2.85,8.21,4.42,1.46.85,1.5,1.62.61,3.07-1,1.68-2.14,3.32-3.08,5C50.42,41.92,48.69,43.1,46.25,42.75Z"/><path class="cls-4" d="M37.51,7.3l4.85,2.3a20.12,20.12,0,0,0,2.58,1.21c1.36.43,2.37-.41,2.58-1.83a17.54,17.54,0,0,1,.8-3.44c1-2.89,3-4,6-3.38a4.31,4.31,0,0,1,2.79,6.61,8.5,8.5,0,0,1-3.81,3.71c-1.52.7-1.34,2.21.18,3.2,1.9,1.25,3.83,2.49,5.62,3.88,1.27,1,1.64,4.85.76,6.21-.66,1-1.38,2-2.05,3.05a1.27,1.27,0,0,1-2,.44c-1.52-1-3.06-2-4.66-2.87-2.6-1.44-5.28-2.74-7.87-4.19S38,19.13,35.36,17.63q-2-1.15-4.14-2.15a1.71,1.71,0,0,1-.95-2.57c.67-1.11,1.42-2.17,2.1-3.27C33.41,8,35,7.52,37.51,7.3Z"/><path class="cls-5" d="M54.71,34.64c.89-1.45.85-2.21-.61-3.07-1.11-.64-2.23-1.25-3.36-1.86l-7.2,9.83,7.36-7,1.51,1.72-6.16,8.54,1.38,0a4.47,4.47,0,0,0,2.46-1.1l3-4.46Z"/></g></g></svg>