<svg width="40" height="40" viewBox="0 0 40 40" fill="none" xmlns="http://www.w3.org/2000/svg">
<g clip-path="url(#clip0_36_27)">
<path d="M20 40C31.0457 40 40 31.0457 40 20C40 8.9543 31.0457 0 20 0C8.9543 0 0 8.9543 0 20C0 31.0457 8.9543 40 20 40Z" fill="#534D41"/>
<path d="M14.0415 33.9825C14.1681 33.8737 16.492 32.2918 17.5586 31.6533C18.2488 31.2413 18.2719 30.6831 18.2862 29.8698C18.3147 28.3806 18.1739 26.9146 18.1079 25.4378C18.049 23.9308 17.6067 23.5028 16.0854 23.7097C13.8346 24.0128 8.95145 25.5163 8.66966 25.5823C7.95627 25.7607 7.12695 26.0193 6.67751 25.1953C6.17278 24.2679 6.88796 23.6437 7.55498 23.2335C10.0697 21.6854 12.629 20.2015 15.2008 18.7605C16.706 17.9151 17.5193 17.0376 17.1626 15.1293C16.8773 13.5902 16.5634 11.9939 16.7542 10.3852C16.9789 8.51257 17.3838 6.69342 18.5769 5.16854C19.5917 3.87016 20.4674 3.85054 21.4448 5.19529C23.0981 7.46924 23.4672 10.0803 23.1658 12.8072C23.0856 13.5384 23.0053 14.2928 22.8626 14.992C22.4275 17.1322 22.9447 17.8598 24.482 18.7373C26.8006 20.0553 32.3686 23.1247 32.6344 23.3458C33.1801 23.7988 33.7044 24.2946 33.3923 25.0794C33.0624 25.9212 32.2777 25.857 31.6392 25.6626C29.6773 25.0687 25.1919 23.8791 24.9154 23.806C22.7592 23.2709 22.1457 23.7756 21.9334 25.6768C21.7069 27.6868 21.7301 28.0417 21.7069 29.761C21.6855 31.3893 22.3579 31.8566 24.3394 32.9517C25.0296 33.3316 26.904 34.3125 26.3922 35.2167C25.9124 36.0674 24.7585 35.7517 23.8507 35.4664C21.2521 34.6567 18.65 34.5746 16.0569 35.5021C15.6823 35.6358 14.095 36.2297 13.5814 35.3041C13.2568 34.7155 13.6581 34.341 14.0415 33.9825Z" fill="#EDEBD4"/>
</g>
<defs>
<clipPath id="clip0_36_27">
<rect width="40" height="40" fill="white"/>
</clipPath>
</defs>
</svg>
