<svg width="40" height="40" viewBox="0 0 40 40" fill="none" xmlns="http://www.w3.org/2000/svg">
<circle cx="20" cy="20" r="20" fill="#534D41"/>
<path d="M28.577 5.32649L32.6366 7.4871L27.3332 13.0523C28.9482 13.3578 32.3485 14.7808 33.0294 18.0283C33.8806 22.0876 33.2915 26.0814 29.625 28.3075C29.9742 26.3652 29.7298 22.5066 25.9585 22.6114C21.2445 22.7423 21.0481 27.8492 22.4885 29.0932C23.6409 30.0884 24.6273 30.8173 24.9764 31.0574C23.0777 31.3193 18.3113 31.6859 14.4353 31.0574C10.5592 30.4289 7.71335 29.2242 6.7749 28.7004C7.2987 27.8274 8.42487 25.3874 8.73914 22.6114L8.74315 22.5759C9.13557 19.1092 9.6669 14.4154 12.9294 10.9572C16.2031 7.4871 23.4046 7.09426 27.3332 13.0523L28.577 5.32649Z" fill="#EDEBD4"/>
</svg>
