<svg width="40" height="40" viewBox="0 0 40 40" fill="none" xmlns="http://www.w3.org/2000/svg">
<circle cx="20" cy="20" r="20" fill="#534D41"/>
<path d="M26.7786 10.9169C26.6264 11.3735 24.8764 13.3267 24.0204 14.2463C22.9739 14.6902 20.0819 15.578 16.8857 15.578C13.6895 15.578 9.59287 13.295 7.94406 12.1535C7.65871 13.295 7.06899 16.3961 6.99289 19.6683C6.91679 22.9406 8.86377 26.4221 9.84677 27.7538L17.8372 23.3781L12.1298 29.8466C12.542 30.8295 14.717 32.8905 20.1201 33.271C25.5231 33.6515 29.03 31.971 30.1081 31.0832C29.1568 30.3222 26.7786 26.6124 25.8275 24.5196C25.0666 22.8454 25.5104 17.861 25.8275 15.578C27.0641 14.0243 29.6515 10.9169 30.1081 10.9169C30.6788 10.9169 30.2983 9.29982 29.5373 8.34858C28.9285 7.58759 27.4445 7.39734 26.7786 7.39734C26.8421 8.38028 26.9309 10.4603 26.7786 10.9169Z" fill="#EDEBD4"/>
</svg>
