<svg width="40" height="40" viewBox="0 0 40 40" fill="none" xmlns="http://www.w3.org/2000/svg">
<circle cx="20" cy="20" r="20" fill="#534D41"/>
<path fill-rule="evenodd" clip-rule="evenodd" d="M23.6198 5.4388C22.2909 5.08273 20.3439 4.98948 20.3439 4.98948C18.9503 4.98948 18.3804 5.08447 17.8926 5.16578C17.5275 5.22662 17.2084 5.27981 16.6244 5.27981C15.8672 5.27981 14.6349 4.89024 13.5381 4.54349C12.6586 4.26544 11.8662 4.01494 11.4758 4.01494C10.6685 4.01494 10.687 8.63559 10.6951 10.6642C10.6958 10.8403 10.6964 10.9968 10.6964 11.1291C10.6964 11.8407 10.3009 13.1993 9.84963 14.7496C9.25016 16.809 8.55225 19.2066 8.55225 20.8746C8.55225 23.7983 9.81906 27.6965 11.4758 29.0608C12.6697 30.0441 14.5868 30.6485 17.5708 30.9094V32.6594L15.3141 32.9563V33.7878L17.5708 33.5106V35.9455H18.6199V33.5106L19.491 33.5919V33.8273L20.5802 33.6936L21.5893 33.7878L21.534 33.5764L21.7477 33.5502V35.9851H22.7968V33.5502L25.7662 33.8273L25.5484 32.9959L22.7968 32.699V30.9934C27.4149 30.4957 30.25 27.3288 30.9668 25.3576C31.7464 23.2135 31.454 20.095 30.9668 17.3663C30.7396 16.0943 30.0404 13.9244 29.4754 12.171C29.0707 10.9153 28.7349 9.8731 28.6906 9.52741C28.6021 8.83555 28.8852 7.88349 29.0679 7.26913C29.104 7.14792 29.1361 7.03986 29.1607 6.94953C29.31 6.40137 29.4033 4.2655 29.1607 4.14419C28.9181 4.02287 27.144 4.59087 27.144 4.59087C26.9613 4.65817 26.7532 4.75378 26.5258 4.85831C25.715 5.23089 24.6575 5.71686 23.6198 5.4388ZM21.5416 31.0601C21.6106 31.0601 21.6793 31.0595 21.7477 31.0584V32.699L20.5036 32.8627L18.6199 32.6594V30.9846C19.5078 31.0352 20.4793 31.0601 21.5416 31.0601Z" fill="#EDEBD4"/>
<circle cx="25.3503" cy="11.4904" r="1.54175" fill="#534D41"/>
<circle cx="14.4646" cy="11.4904" r="1.54175" fill="#534D41"/>
<path d="M21.5977 13.0929C21.419 12.46 20.4143 10.8277 19.9343 10.0907C19.4881 10.8345 18.5349 12.4762 18.2915 13.0929C17.9872 13.8638 19.184 14.8983 19.9343 14.8983C20.6846 14.8983 21.8211 13.884 21.5977 13.0929Z" fill="#534D41"/>
<path d="M24.3716 24.7601H20.9591C21.3445 25.5122 22.2056 27.0163 22.5666 27.0163C22.9276 27.0163 23.9203 25.5122 24.3716 24.7601Z" fill="#534D41"/>
<path d="M27.3328 21.2066H23.9203C24.3058 21.9586 25.1669 23.4628 25.5279 23.4628C25.8889 23.4628 26.8816 21.9586 27.3328 21.2066Z" fill="#534D41"/>
<path d="M21.6928 21.2066H18.2803C18.6658 21.9586 19.5269 23.4628 19.8879 23.4628C20.2489 23.4628 21.2416 21.9586 21.6928 21.2066Z" fill="#534D41"/>
<path d="M16.08 21.2066H12.6675C13.0529 21.9586 13.914 23.4628 14.275 23.4628C14.636 23.4628 15.6287 21.9586 16.08 21.2066Z" fill="#534D41"/>
<path d="M18.9002 24.7601H15.4877C15.8732 25.5122 16.7343 27.0163 17.0953 27.0163C17.4563 27.0163 18.449 25.5122 18.9002 24.7601Z" fill="#534D41"/>
</svg>
