<svg width="40" height="40" viewBox="0 0 40 40" fill="none" xmlns="http://www.w3.org/2000/svg">
<circle cx="20" cy="20" r="20" fill="#534D41"/>
<path d="M25.8601 8.89665C25.6478 10.2768 24.1785 13.0624 20 13.1643V32.2098C22.6116 32.2098 26.7519 32.4646 28.6628 30.9996C30.5737 29.5345 30.3189 28.3243 30.0004 26.5408C29.7456 25.1139 29.0025 21.9121 28.6628 20.4895C29.0025 20.8717 29.8093 21.7125 30.3189 22.0183C30.9559 22.4004 31.7203 22.1456 32.1661 21.6361C32.612 21.1265 36.3064 16.6677 36.4338 15.7759C36.5612 14.8842 35.2873 13.6102 32.1661 11.6356C29.6692 10.0559 26.9217 9.15144 25.8601 8.89665Z" fill="#EDEBD4"/>
<path d="M14.1399 8.89665C14.3522 10.2768 15.8215 13.0624 20 13.1643V32.2098C17.3884 32.2098 13.2481 32.4646 11.3372 30.9996C9.4263 29.5345 9.68108 28.3243 9.99957 26.5408C10.2544 25.1139 10.9975 21.9121 11.3372 20.4895C10.9975 20.8717 10.1907 21.7125 9.68108 22.0183C9.04411 22.4004 8.27975 22.1456 7.83387 21.6361C7.38799 21.1265 3.69355 16.6677 3.56616 15.7759C3.43876 14.8842 4.71271 13.6102 7.83387 11.6356C10.3308 10.0559 13.0783 9.15144 14.1399 8.89665Z" fill="#EDEBD4"/>
<circle cx="20.0002" cy="17.2171" r="1.97236" fill="#534D41"/>
<circle cx="20.0002" cy="22.5341" r="1.97236" fill="#534D41"/>
</svg>
