<svg width="40" height="40" viewBox="0 0 40 40" fill="none" xmlns="http://www.w3.org/2000/svg">
<circle cx="20" cy="20" r="20" fill="#534D41"/>
<path d="M27.6714 16.9719L22.2714 14.1129V13.5834H26.295V12.1009H32.2248L36.3544 16.9719H27.6714Z" fill="#EDEBD4"/>
<path d="M24.2831 12.1009V9.87726L20.0003 7.847V12.0825L24.2831 12.1009Z" fill="#EDEBD4"/>
<path d="M24.6414 7.05762L24.2831 8.39488L20.0003 6.25874V3.82328L24.6414 7.05762Z" fill="#EDEBD4"/>
<path d="M25.7654 17.819L20.0003 15.0475V17.8007L25.7654 17.819Z" fill="#EDEBD4"/>
<path d="M35.8249 18.3485H28.7303V19.8309L20.0003 19.8126V30.5074L36.3544 30.5258V28.0903H34.9778V22.0546H35.8249V18.3485Z" fill="#EDEBD4"/>
<path d="M12.3296 16.9719L17.7296 14.1129V13.5834H13.706V12.1009H7.77622L3.64654 16.9719H12.3296Z" fill="#EDEBD4"/>
<path d="M15.7179 12.1009V9.87726L20.0007 7.847V12.0825L15.7179 12.1009Z" fill="#EDEBD4"/>
<path d="M15.3596 7.05762L15.7179 8.39488L20.0007 6.25874V3.82328L15.3596 7.05762Z" fill="#EDEBD4"/>
<path d="M14.2356 17.819L20.0007 15.0475V17.8007L14.2356 17.819Z" fill="#EDEBD4"/>
<path d="M4.1761 18.3485H11.2707V19.8309L20.0007 19.8126V30.5074L3.64654 30.5258V28.0903H5.02321V22.0546H4.1761V18.3485Z" fill="#EDEBD4"/>
<rect x="20.6826" y="21.3134" width="3.60013" height="6.67104" fill="#534D41"/>
<rect width="3.60013" height="6.67104" transform="matrix(-1 0 0 1 19.3184 21.3134)" fill="#534D41"/>
<path d="M29.4725 21.2286C28.0324 21.2286 27.3703 22.0202 27.2476 22.4782V27.0314H31.8009V22.4782C31.7303 22.0899 30.9126 21.2286 29.4725 21.2286Z" fill="#534D41"/>
<path d="M10.5285 21.2286C11.9686 21.2286 12.6307 22.0202 12.7534 22.4782V27.0314H8.20009V22.4782C8.27068 22.0899 9.08835 21.2286 10.5285 21.2286Z" fill="#534D41"/>
</svg>
