<svg width="40" height="40" viewBox="0 0 40 40" fill="none" xmlns="http://www.w3.org/2000/svg">
<path d="M20 40C31.0457 40 40 31.0457 40 20C40 8.9543 31.0457 0 20 0C8.9543 0 0 8.9543 0 20C0 31.0457 8.9543 40 20 40Z" fill="#534D41"/>
<path d="M32.4988 30.8543C32.0028 30.7378 31.494 30.6845 30.9846 30.6955C27.4533 30.6848 23.9202 30.6955 20.3889 30.6955C16.7043 30.6955 13.0196 30.667 9.33133 30.7259H9.09591C8.16671 30.7651 7.44262 31.0665 7.41943 31.4393C7.41943 31.4393 7.41943 31.4482 7.41943 31.4535C7.41943 31.837 8.17206 32.1509 9.13336 32.1848C9.18955 32.1929 9.24661 32.1929 9.30279 32.1848C9.39018 32.1848 9.48114 32.1848 9.56318 32.1848C16.6971 32.1848 23.8311 32.1812 30.965 32.1741C31.4749 32.1856 31.9844 32.1365 32.4827 32.0278C32.6986 31.9743 32.9946 31.6586 32.991 31.4642C32.967 31.3293 32.9093 31.2027 32.8232 31.096C32.7372 30.9894 32.6256 30.9062 32.4988 30.8543Z" fill="#EDEBD4"/>
<path d="M9.6775 28.7462C11.156 28.7462 12.6363 28.7355 14.1148 28.7462C15.1011 28.7462 15.5897 28.3057 15.5737 27.3016C15.5559 26.1066 15.5737 24.9117 15.5737 23.7168H15.5559C15.5559 22.5771 15.5826 21.4393 15.5559 20.3014C15.5291 19.1635 15.9857 18.55 17.1253 18.5358C19.0604 18.5108 21.0044 18.4163 22.9234 18.5875C23.4585 18.6338 24.2289 19.4525 24.3395 20.025C24.5625 21.1771 24.3877 22.4023 24.4091 23.5919C24.5179 29.7432 23.182 28.6338 30.1929 28.7409C30.2523 28.7447 30.3119 28.7447 30.3713 28.7409C31.263 28.6677 31.691 28.2415 31.5894 27.2891C31.2077 23.6722 30.9366 20.0392 30.4373 16.4402C30.3106 15.5359 29.6632 14.5229 28.9516 13.9183C26.5296 11.8584 23.9579 9.97681 21.4699 7.98822C20.4729 7.19101 19.5883 7.14107 18.5682 7.95969C16.0588 9.97324 13.471 11.8834 11.0008 13.9486C10.3534 14.4837 9.71317 15.3754 9.60794 16.1744C9.11927 19.8912 8.83034 23.633 8.44868 27.364C8.33275 28.3217 8.7483 28.7462 9.6775 28.7462ZM20.0003 11.6408C20.5126 11.6404 21.0136 11.7921 21.4397 12.0765C21.8658 12.3609 22.198 12.7653 22.3942 13.2386C22.5905 13.7119 22.6419 14.2327 22.542 14.7352C22.4422 15.2377 22.1955 15.6993 21.8332 16.0616C21.471 16.4238 21.0094 16.6705 20.5069 16.7704C20.0044 16.8702 19.4835 16.8188 19.0103 16.6226C18.537 16.4264 18.1326 16.0942 17.8482 15.668C17.5637 15.2419 17.4121 14.741 17.4125 14.2286C17.4125 13.8888 17.4794 13.5523 17.6095 13.2383C17.7395 12.9243 17.9301 12.6391 18.1704 12.3988C18.4107 12.1585 18.696 11.9678 19.01 11.8378C19.324 11.7077 19.6605 11.6408 20.0003 11.6408Z" fill="#EDEBD4"/>
</svg>
