<svg xmlns="http://www.w3.org/2000/svg" viewBox="0 0 95.95 91.95"><defs><style>.cls-1{fill:#443f34;}.cls-2{fill:#fef8e5;}.cls-3{fill:#fefefe;}</style></defs><title>pointer</title><g id="Layer_2" data-name="Layer 2"><g id="Layer_1-2" data-name="Layer 1"><path class="cls-1" d="M89.16,47.66c-.08,1.91.17,3.82-.34,5.72a3.15,3.15,0,0,0,1.42,3.44c7.26,5.8,7.67,10.07.78,16.24A86.12,86.12,0,0,1,58.7,91.42C52.49,93.33,47.82,90,47,83.51c-.46-3.63-.54-4-4.15-3.53-10.48,1.39-17.51-3.19-22.64-12-2.88-4.91-6-9.53-5.47-15.69a14.36,14.36,0,0,1,3.32-8.67c1.18-1.32,1-2.27-.14-3.42-4.47-4.6-8.51-9.57-12.55-14.55a25.49,25.49,0,0,1-5-9.94C-1.42,8.7,3.85,1.15,11.09.17c6.55-.88,11.37,1.64,14.78,7.11,1.94,3.1,3.85,6.24,5.63,9.44.94,1.7,1.9,2.4,3.73,1.19,3.34-2.2,7.14-2,10.89-1.84a7.24,7.24,0,0,0,4.65-1.3c4.13-2.72,8.73-3,13.43-1.8a6,6,0,0,0,3.65.15c7.07-2.4,13.58.4,16.9,7.07,1.78,3.59,2.23,7.5,2.85,11.34A83.9,83.9,0,0,1,89.16,47.66Zm-5-1.11a90.34,90.34,0,0,0-3.34-22.64c-1.36-4.48-5-7.08-9-7C69.34,17,68.54,18,69.12,20.4c.2.81.47,1.61.59,2.43A2.13,2.13,0,0,1,68,25.28c-1.2.35-1.82-.49-2.19-1.53-.28-.78-.54-1.57-.84-2.35-1.93-4.92-4.14-5.92-9.16-4.18-2.56.89-3.39,2.47-2.61,5.05.34,1.11.84,2.18,1.17,3.29s.34,2.42-1,3a2.28,2.28,0,0,1-3.1-1.31c-.7-1.42-1.32-2.88-2-4.28-1-1.93-2.59-3.14-4.86-2.76-2.61.43-5.34.81-7,3.35a2.68,2.68,0,0,0,.05,2.42C37,27.5,37.7,29,38.23,30.6s1.11,3.15-.79,3.88-2.38-1-3-2.24c-.08-.15-.13-.31-.21-.46a152.85,152.85,0,0,0-14-23c-2.73-3.58-5.79-4.29-9.41-2.57-4,1.89-5.44,4.8-4.54,9.18a15.1,15.1,0,0,0,1.82,4.37,65,65,0,0,0,7.14,9.6c5.29,6.2,11,12.11,15.11,19.19,1.27,2.16,2.61,4.29,2.54,6.93a2.08,2.08,0,0,1-1.14,2.07,2,2,0,0,1-2.44-.77,9.89,9.89,0,0,1-1.11-1.93c-1-1.93-1.86-3.89-2.89-5.79a2.63,2.63,0,0,0-2-1.68c-1.14-.06-1.43,1-1.88,1.75a9.26,9.26,0,0,0-.64,7.7c1.06,3.32,3,6.1,4.89,9,2,3.09,4.14,6.34,7.52,7.83a22.53,22.53,0,0,0,16.11.56c1.37-.43,2.7-1.22,3.92.08s.1,2.47-.4,3.66a7.75,7.75,0,0,0,.33,7.19,1.4,1.4,0,0,0,1.39.88c.82-.13.69-.84.62-1.39-.18-1.62,1-2.34,2-3.18,4.82-3.9,10.25-6.84,15.65-9.77,4.42-2.41,8.62-5.42,13.76-6.33.66-.11,1.34-.48,1.71.38a1.56,1.56,0,0,1-.38,1.81,39.19,39.19,0,0,1-8.42,6.56c-4.37,2.67-9,5-13.48,7.46-.5.28-1.62.33-1.19,1.2.31.65,1.22.25,1.82,0a77.44,77.44,0,0,0,23.1-15.4,2.87,2.87,0,0,0,0-4.43c-2.5-2.6-5.49-3.69-9.07-2.61a20.49,20.49,0,0,1-2.16.63,1.56,1.56,0,0,1-1.68-.82A1.59,1.59,0,0,1,77,58.22a3.8,3.8,0,0,1,2.33-1.34c3.71-1,4.49-1.81,4.89-5.58A47,47,0,0,0,84.21,46.55ZM63.77,83.45a.52.52,0,0,0-.76-.29c-.27.13-.66.3-.71.52-.11.46.35.39.62.37S63.7,83.94,63.77,83.45Zm-2.86,1.37a3.45,3.45,0,0,0-.9-.35c-.22,0-.55,0-.63.19s.14.35.34.35S60.3,84.92,60.91,84.82Z"/><path class="cls-2" d="M84.21,46.55a47,47,0,0,1,0,4.75c-.4,3.77-1.18,4.59-4.89,5.58A3.8,3.8,0,0,0,77,58.22a1.59,1.59,0,0,0-.23,1.86,1.56,1.56,0,0,0,1.68.82,20.49,20.49,0,0,0,2.16-.63c3.58-1.08,6.57,0,9.07,2.61a2.87,2.87,0,0,1,0,4.43,77.44,77.44,0,0,1-23.1,15.4c-.6.26-1.51.66-1.82,0-.43-.87.69-.92,1.19-1.2,4.49-2.49,9.11-4.79,13.48-7.46a39.19,39.19,0,0,0,8.42-6.56,1.56,1.56,0,0,0,.38-1.81c-.37-.86-1-.49-1.71-.38-5.14.91-9.34,3.92-13.76,6.33-5.4,2.93-10.83,5.87-15.65,9.77-1.05.84-2.19,1.56-2,3.18.07.55.2,1.26-.62,1.39a1.4,1.4,0,0,1-1.39-.88,7.75,7.75,0,0,1-.33-7.19c.5-1.19,1.59-2.37.4-3.66s-2.55-.51-3.92-.08a22.53,22.53,0,0,1-16.11-.56c-3.38-1.49-5.51-4.74-7.52-7.83-1.86-2.85-3.83-5.63-4.89-9a9.26,9.26,0,0,1,.64-7.7c.45-.78.74-1.81,1.88-1.75a2.63,2.63,0,0,1,2,1.68c1,1.9,1.93,3.86,2.89,5.79a9.89,9.89,0,0,0,1.11,1.93,2,2,0,0,0,2.44.77,2.08,2.08,0,0,0,1.14-2.07c.07-2.64-1.27-4.77-2.54-6.93-4.16-7.08-9.82-13-15.11-19.19a65,65,0,0,1-7.14-9.6,15.1,15.1,0,0,1-1.82-4.37c-.9-4.38.56-7.29,4.54-9.18,3.62-1.72,6.68-1,9.41,2.57a152.85,152.85,0,0,1,14,23c.08.15.13.31.21.46.66,1.25,1.28,2.91,3,2.24s1.27-2.46.79-3.88-1.2-3.1-1.78-4.66a2.68,2.68,0,0,1-.05-2.42c1.61-2.54,4.34-2.92,7-3.35,2.27-.38,3.84.83,4.86,2.76.73,1.4,1.35,2.86,2,4.28a2.28,2.28,0,0,0,3.1,1.31c1.39-.54,1.4-1.76,1-3s-.83-2.18-1.17-3.29c-.78-2.58,0-4.16,2.61-5.05,5-1.74,7.23-.74,9.16,4.18.3.78.56,1.57.84,2.35.37,1,1,1.88,2.19,1.53a2.13,2.13,0,0,0,1.67-2.45c-.12-.82-.39-1.62-.59-2.43-.58-2.39.22-3.41,2.73-3.47,4-.1,7.66,2.5,9,7A90.34,90.34,0,0,1,84.21,46.55Zm-1.3.73c-.19-5.3-1.63-10.46-1.8-15.78a17.56,17.56,0,0,0-2-8.14c-1.12-2-3-2.49-4.74-1.07-1.14.9-2.47,1.5-3.4,2.79-1.84,2.54-4.07,2.49-6.25.16-1.54-1.65-4.82-1.55-5.47.47-.78,2.43-2.73,3.2-4.48,4.35-2.26,1.5-3.94,1.36-5.28-.9-1.48-2.52-3-1.87-4.9-.78C42.37,29.65,42,32.16,40.51,34c-2.73,3.34-5,3.44-7-.38A130,130,0,0,0,27,21.74c-1.77-2.63-4.47-3.07-6.39-.56-2.34,3.06-1.79,6.66,1.1,10.39,3.76,4.87,8.77,8.57,11.67,14.36C36.46,52.12,39.46,58,38,65.14a3.19,3.19,0,0,0,1.37,3.48,15.38,15.38,0,0,0,12.78,2.47c4.16-.94,6.06.25,6.3,4.56,0,.56-.2,1.24.42,1.6s1.16-.31,1.71-.63c4.22-2.39,8.51-4.66,12.67-7.14,3.41-2,7.23-3.32,10.41-5.77.55-.42,1.6-.44,1-1.53-.43-.8-1.26-.77-2-.63a19.08,19.08,0,0,0-1.86.7c-2.52.82-5.08.26-5.82-1.27-1.26-2.6.17-5.27,3.22-6s4.51-2.43,4.69-5.49C82.94,48.78,82.91,48,82.91,47.28Z"/><path class="cls-2" d="M63.77,83.45c-.07.49-.46.58-.85.6s-.73.09-.62-.37c.05-.22.44-.39.71-.52A.52.52,0,0,1,63.77,83.45Z"/><path class="cls-2" d="M60.91,84.82c-.61.1-.9.18-1.19.19s-.51-.07-.34-.35.41-.2.63-.19A3.45,3.45,0,0,1,60.91,84.82Z"/><path class="cls-3" d="M82.91,47.28c0,.75,0,1.5,0,2.25-.18,3.06-1.68,4.8-4.69,5.49S73.73,58.38,75,61c.74,1.53,3.3,2.09,5.82,1.27a19.08,19.08,0,0,1,1.86-.7c.73-.14,1.56-.17,2,.63.57,1.09-.48,1.11-1,1.53-3.18,2.45-7,3.73-10.41,5.77-4.16,2.48-8.45,4.75-12.67,7.14-.55.32-.95,1.07-1.71.63s-.39-1-.42-1.6c-.24-4.31-2.14-5.5-6.3-4.56a15.38,15.38,0,0,1-12.78-2.47A3.19,3.19,0,0,1,38,65.14c1.49-7.15-1.51-13-4.61-19.21-2.9-5.79-7.91-9.49-11.67-14.36-2.89-3.73-3.44-7.33-1.1-10.39,1.92-2.51,4.62-2.07,6.39.56a130,130,0,0,1,6.53,11.84c2,3.82,4.27,3.72,7,.38,1.46-1.8,1.86-4.31,4.05-5.58,1.89-1.09,3.42-1.74,4.9.78,1.34,2.26,3,2.4,5.28.9,1.75-1.15,3.7-1.92,4.48-4.35.65-2,3.93-2.12,5.47-.47,2.18,2.33,4.41,2.38,6.25-.16.93-1.29,2.26-1.89,3.4-2.79,1.78-1.42,3.62-.93,4.74,1.07a17.56,17.56,0,0,1,2,8.14C81.28,36.82,82.72,42,82.91,47.28Z"/></g></g></svg>