<svg xmlns="http://www.w3.org/2000/svg" viewBox="0 0 60.89 47.74"><defs><style>.cls-1{fill:#dd9e82;}.cls-2{fill:#6d4732;}.cls-3{fill:#b7836e;}.cls-4{fill:#956454;}.cls-5{fill:#814223;}.cls-6{fill:#b07056;}.cls-7{fill:#d27550;}.cls-8{fill:#de885f;}</style></defs><title>road</title><g id="Layer_2" data-name="Layer 2"><g id="Layer_1-2" data-name="Layer 1"><g id="qQquR5.tif"><path class="cls-1" d="M36.06,47.35l.73-.53Z"/><path class="cls-1" d="M47.08,40.14l.45-.29Z"/><path class="cls-2" d="M13.17,42.43l-.14,0-2.15-1h0L6.73,39.09,6.47,39Q3.23,33.54,0,28.06v-.91c0-1.22.05-2.45.07-3.67,0-.35,0-.7,0-1.05a1.6,1.6,0,0,0,.27-.56,5.36,5.36,0,0,1,2.92-4.64c5.33-3,10.55-6.18,15.9-9.12C23.13,5.93,27.19,4,31.26,2A24.83,24.83,0,0,1,36.63.05c1-.22,2.16.33,3.25.54l.44,0a9.64,9.64,0,0,0,.84.58c1.51.78,3.27,1.29,4.5,2.38a17.76,17.76,0,0,1,5.51,9.1,14,14,0,0,1,.45,7A6.76,6.76,0,0,0,51.93,22l.16.16.91.61.61.47,3.69,1.62h.58c1,.89,2.91.77,3,2.85,0,1.38.28,2.5-1.22,3.42-5.08,3.12-10.06,6.38-15.06,9.6-3.5,2.25-6.92,4.63-10.5,6.72-.89.52-2.32.3-3.47.16-2-.25-4.07-.32-5.79-1.14-2.48-1.18-4.64-3-7-4.46a2.78,2.78,0,0,0-1.63-.14C15.17,42,14.17,42.22,13.17,42.43ZM56.85,26.34a9.13,9.13,0,0,0-1.15-.71,21.52,21.52,0,0,1-3.22-1.38c-1.34-.89-2.53-1.91-4.19-.75l.94-1.15c-1.24-.92-.75-2-.37-3.15a15.1,15.1,0,0,0,.34-2.72c.35-.52,1.11-1.18,1-1.55a47.15,47.15,0,0,0-2.95-7.74c-2-3.74-6-4.77-9.71-5.8a4.12,4.12,0,0,0-2.71.19c-4.49,2.2-8.91,4.54-13.36,6.84C15.21,11.64,8.76,14.53,3.3,19.09a4.38,4.38,0,0,0-1.5,2.75c-.21,3-.54,6,1.18,9,1.91,3.3,3.35,6.5,7.24,8.36,3.08,1.48,5.38,2.1,8-.31a3.77,3.77,0,0,1,.89-.47c.12.36.24.72.35,1.09.23.79.21,1.94.74,2.33,3,2.22,6.1,4.07,10.11,4.25a8.93,8.93,0,0,0,6.05-1.53c2.66-1.88,5.42-3.62,8.16-5.39,4.66-3,9.36-5.95,13.94-9.06a3.34,3.34,0,0,0,.87-2.54c0-.39-1.12-.75-1.73-1.13Z"/><path class="cls-3" d="M58.19,24.67l.49.13Z"/><path class="cls-3" d="M13.66,10.41l-.45.26Z"/><path class="cls-4" d="M0,28.06q3.24,5.48,6.47,11a33.59,33.59,0,0,1-3.06-3.61c-1.22-1.91-2.2-4-3.23-6A4.23,4.23,0,0,1,0,28.06Z"/><path class="cls-4" d="M6.73,39.09l4.14,2.26Z"/><path class="cls-4" d="M.07,23.48c0,1.22,0,2.45-.07,3.67C0,25.93.05,24.7.07,23.48Z"/><path class="cls-4" d="M57.3,24.81l-3.69-1.62Z"/><path class="cls-4" d="M53,22.72l-.91-.61Z"/><path class="cls-5" d="M49.2,16.48a15.1,15.1,0,0,1-.34,2.72c-.38,1.16-.87,2.23.37,3.15l-.94,1.15v.44l-6.28,4c-2,1.13-4,2.16-5.89,3.39C32,34,27.93,36.78,23.83,39.5a1.17,1.17,0,0,1-.95.19,1,1,0,0,1-.36-.88c.51-2.42,1.09-4.82,1.65-7.23l.31-.31.61-.45c2.1-1.21,4.24-2.35,6.3-3.63,4.27-2.67,8.48-5.41,12.74-8.11,1.36-.86,2.76-1.64,4.15-2.47Z"/><path class="cls-4" d="M49.2,16.48l-.92.13c1.28-1.2,1.15-2.56.48-4-.59-1.29-1.14-2.61-1.71-3.92,0-.27.16-.65,0-.78-1.16-1.24-2.36-2.44-3.55-3.65a19.05,19.05,0,0,1-1.93-.79c-4.22-2.38-7.46-2.13-11.35.93l-.75.31L23.69,7.9c-1.43.67-2.89,1.29-4.29,2-1.2.63-2.33,1.39-3.49,2.09L11.8,14.47l-.9,0-.77.15-.31.29-1.07.77c-.47.36-.93.75-1.42,1.09-2.81,2-5.54,3.56-5.42,8,.09,3.08,1.9,5.07,2.56,7.67l.47.77,1.21,2.43.33.61c1.65.94,3.32,1.85,5,2.8,3,1.75,4.53,1.86,6.22-.83,1.31-2.09,1.52-4.88,2.21-7.36a.5.5,0,0,0-.12-.35c-1.7-2.71-2.24-6.49-6.38-7-.09,0-.16-.14-.25-.16-1.28-.36-2.33-2-3.91-.69l-2.3,2.15c-.13.38-.45.82-.36,1.14.48,1.77,1,3.51,1.6,5.26v.31l.29.45c1.86.92,3.71,1.84,5.58,2.73.14.07.59-.14.6-.26s-.08-.62-.25-.7c-.79-.38-1.61-.68-2.42-1-.2-.21-.37-.49-.61-.6-2.32-1-3.06-2.94-3.05-5.3a3,3,0,0,1,3.8-2.52,8,8,0,0,1,4.2,3.94c1.78,3.38,1.84,5.32-.06,8.75l-.31.16c-.8.24-1.75.87-2.37.64a62.62,62.62,0,0,1-5.71-2.78L6.3,32.33l-2.58-5.8v-.61l.89-2.45.16-2.13A6.28,6.28,0,0,1,5.29,21c1.58-1,2.7-2.89,5-2.37h.3l2.29,1.06,1.07.46c0,.06.07.15.13.18,3.33,1.94,5.73,4.55,6.33,8.53A13,13,0,0,0,21.11,31v.3c-.36,3.09-.79,6.18-1,9.29,0,.53.95,1.13,1.46,1.69h.29l2.45,1.68.76.46a7.79,7.79,0,0,0,1.37.44c2,.28,4.07.52,6.11.77a5,5,0,0,0,1.74-.35c3.6-2.28,7.13-4.66,10.71-7,4-2.57,8-5,11.94-7.67A6.53,6.53,0,0,0,59,28.06c.13-.26-.92-1.1-1.43-1.67.61.38,1.72.74,1.73,1.13a3.34,3.34,0,0,1-.87,2.54c-4.58,3.11-9.28,6.05-13.94,9.06-2.74,1.77-5.5,3.51-8.16,5.39A8.93,8.93,0,0,1,30.29,46c-4-.18-7.11-2-10.11-4.25-.53-.39-.51-1.54-.74-2.33-.11-.37-.23-.73-.35-1.09a3.77,3.77,0,0,0-.89.47c-2.6,2.41-4.9,1.79-8,.31C6.33,37.29,4.89,34.09,3,30.79c-1.72-3-1.39-5.93-1.18-8.95a4.38,4.38,0,0,1,1.5-2.75c5.46-4.56,11.91-7.45,18.16-10.67,4.45-2.3,8.87-4.64,13.36-6.84a4.12,4.12,0,0,1,2.71-.19c3.76,1,7.68,2.06,9.71,5.8a47.15,47.15,0,0,1,2.95,7.74C50.31,15.3,49.55,16,49.2,16.48ZM5.55,25.4c.59-.64,1.29-1.42,2-2.17C8.91,21.83,10.4,21,12.4,22a28.24,28.24,0,0,0,2.8,1.13,1.56,1.56,0,0,0,.64,0c-.09-.21-.13-.5-.3-.63-1-.79-1.94-1.88-3.09-2.22-1.46-.44-2.88-1.74-4.7-.27-2.61,2.11-3.92,5.2-2.83,8C5.35,29,5.91,30,6.43,31a3.41,3.41,0,0,0,.52.63c.07-.28.25-.6.18-.86C6.67,29.13,6.16,27.46,5.55,25.4Zm10.78,5c-.19,1.09-.45,2.14-.54,3.21-.17,2-.89,2.46-2.69,1.6s-3.31-1.61-5-2.38c-.13-.07-.36.08-.55.13a10.11,10.11,0,0,0,1.82,2.41A14.9,14.9,0,0,0,13,37.24a2.75,2.75,0,0,0,2.09,0C17.05,36.1,17.67,32.41,16.33,30.42Zm-5.27-5.85a6.66,6.66,0,0,0-1,.61C8.08,27,9,30.73,11.68,31.81c.4.16,1-.27,1.57-.42a12.19,12.19,0,0,0-.77-1.68c-.35-.53-1.3-1.22-1.2-1.41a9.24,9.24,0,0,1,1.62-1.63,1.36,1.36,0,0,0,.32-.64C12.52,25.52,11.79,25.05,11.06,24.57Zm.65,3.5c1,.84,1.6,1.37,2.24,1.83a3.59,3.59,0,0,0,.94.32c0-.43.29-1,.1-1.27a5.86,5.86,0,0,0-1.79-1.32C13,27.51,12.52,27.82,11.71,28.07Z"/><path class="cls-3" d="M57.58,26.39c.51.57,1.56,1.41,1.43,1.67A6.53,6.53,0,0,1,57,30.61C53,33.24,49,35.71,45,38.28c-3.58,2.31-7.11,4.69-10.71,7a5,5,0,0,1-1.74.35c-.27-1.82-1.77-1.27-2.88-1.54a8,8,0,0,1-1.7-.9l1.07-.61c.25.26.45.63.75.74,2.62,1,4.69-.22,6.78-1.6,4.26-2.82,8.57-5.55,12.85-8.33q4-2.59,7.94-5.24a.87.87,0,0,0-.06-.78,16.71,16.71,0,0,0-1.71-1l1.25,0Z"/><path class="cls-4" d="M56.85,26.34l-1.25,0h-.3a18,18,0,0,1-2-1c-1.54-1-2.84-2.78-5.05-1.45V23.5c1.66-1.16,2.85-.14,4.19.75a21.52,21.52,0,0,0,3.22,1.38A9.13,9.13,0,0,1,56.85,26.34Z"/><path class="cls-6" d="M28,43.16a8,8,0,0,0,1.7.9c1.11.27,2.61-.28,2.88,1.54-2-.25-4.08-.49-6.11-.77a7.79,7.79,0,0,1-1.37-.44l1.3-.34a5.33,5.33,0,0,0-.81-.89c-1-.71-2-1.4-3.1-2a14.05,14.05,0,0,0-1.84-.72l.88,1.6a.94.94,0,0,1,.07.22c-.51-.56-1.49-1.16-1.46-1.69.2-3.11.63-6.2,1-9.29,1.41,1.59,2.24.14,3.2-.61L28,28.5c3.44-2,6.9-4,10.29-6.1,1.13-.69,2.95-1.71,2.92-2.51-.08-1.8-1.13-3.56-1.76-5.34-.11-.31-.24-.89-.11-1,1-.64,2-1.15,3-1.78,1.29-.85,2.53-1.77,3.8-2.65l.91-.46c.57,1.31,1.12,2.63,1.71,3.92.67,1.45.8,2.81-.48,4-1.39.83-2.79,1.61-4.15,2.47-4.26,2.7-8.47,5.44-12.74,8.11-2.06,1.28-4.2,2.42-6.3,3.63l-.61.45c-.11.1-.21.2-.31.31-.41.44-1.05.83-1.18,1.35a52.71,52.71,0,0,0-1,5.31c-.08.63,0,1.78.2,1.85a3.17,3.17,0,0,0,2.17-.15,29.87,29.87,0,0,0,4-2.47c2-1.46,4-3,6-4.52-.61.46-1.23.9-1.82,1.37-1,.77-1.5,1.55-.18,2.52a19.17,19.17,0,0,1,1.86,1.75c-1.11.72-2.25,1.39-3.32,2.17S29,42.35,28,43.16Z"/><path class="cls-4" d="M34.38,33c-2,1.51-4,3.06-6,4.52a29.87,29.87,0,0,1-4,2.47,3.17,3.17,0,0,1-2.17.15C22,40,22,38.87,22,38.24a52.71,52.71,0,0,1,1-5.31c.13-.52.77-.91,1.18-1.35C23.61,34,23,36.39,22.52,38.81a1,1,0,0,0,.36.88,1.17,1.17,0,0,0,.95-.19C27.93,36.78,32,34,36.12,31.32c1.9-1.23,3.93-2.26,5.89-3.39-.35.4-.71.79-1.06,1.18l-1.23.64-.91.73-.16,0-.59.44h0l-.45.29-.46,0-1.52,1-.16,0-.76.59Z"/><path class="cls-6" d="M41,29.11c.35-.39.71-.78,1.06-1.18l6.28-4c2.21-1.33,3.51.44,5.05,1.45a18,18,0,0,0,2,1l-1.53.31H53a2.52,2.52,0,0,1-.82-.47c-.36-.45-.49-1.18-.93-1.44-1.67-1-3.13,0-4.52.79C44.77,26.69,42.88,27.93,41,29.11Z"/><path class="cls-4" d="M24.48,31.27l.61-.45Z"/><path class="cls-7" d="M46.14,9.14c-1.27.88-2.51,1.8-3.8,2.65-1,.63-2,1.14-3,1.78-.13.09,0,.67.11,1,.63,1.78,1.68,3.54,1.76,5.34,0,.8-1.79,1.82-2.92,2.51-3.39,2.09-6.85,4.07-10.29,6.1l-3.71,2.15A5.34,5.34,0,0,1,24.9,30c.55-.41,1.14-.78,1.71-1.17,1-.57,1.95-1.13,2.92-1.71C33,25,36.58,23,40,20.82a1.83,1.83,0,0,0,.51-1.66,10.74,10.74,0,0,0-1.48-2.72c-.23-.32-1-.67-1.22-.54-2.61,1.33-5.16,2.79-7.76,4.16s-5.27,2.69-7.91,4h-.77c-.25-.46-.39-1.09-.77-1.34-2-1.35-4-2.66-3.65-5.52,1.79-1.07,3.54-2.21,5.39-3.18,4.23-2.24,8.51-4.39,12.74-6.63a1.18,1.18,0,0,0,.15-1.07,5.5,5.5,0,0,0-2-1.15,31.28,31.28,0,0,0-3.75-.5l.75-.31c2.2-.22,4.39-.51,6.58-.65a12.79,12.79,0,0,1,2.51.37c1.09.16,2.18.3,3.28.45-.25.27-.44.64-.74.8q-8.25,4.51-16.53,9c-1,.56-1.06,1.2-.35,2a6.4,6.4,0,0,0,1.67,1.62,3.43,3.43,0,0,0,2.4.33,42.19,42.19,0,0,0,4.62-2.4Z"/><path class="cls-8" d="M46.14,9.14,33.7,15.85a42.19,42.19,0,0,1-4.62,2.4,3.43,3.43,0,0,1-2.4-.33A6.4,6.4,0,0,1,25,16.3c-.71-.78-.69-1.42.35-2q8.28-4.44,16.53-9c.3-.16.49-.53.74-.8l.91-.31c1.19,1.21,2.39,2.41,3.55,3.65.12.13,0,.51,0,.78Z"/><path class="cls-8" d="M29.51,4.7a31.28,31.28,0,0,1,3.75.5,5.5,5.5,0,0,1,2,1.15,1.18,1.18,0,0,1-.15,1.07c-4.23,2.24-8.51,4.39-12.74,6.63-1.85,1-3.6,2.11-5.39,3.18l-.92.47-.16-.48a5.38,5.38,0,0,0-.9-.82,1.5,1.5,0,0,1-.08-2.65,3.36,3.36,0,0,0,.56-.57,6,6,0,0,0-.84.19c-1,.35-1.9.73-2.85,1.1L15.91,12c1.46-.67,2.95-1.29,4.37-2,1.18-.62,2.28-1.39,3.41-2.09Z"/><path class="cls-6" d="M7.84,35.08a62.62,62.62,0,0,0,5.71,2.78c.62.23,1.57-.4,2.37-.64-.13.17-.26.34-.4.5l-1.61,1.81c.81-.13,1.62-.24,2.42-.39a.78.78,0,0,0,.49-.33c.28-.5.51-1,.76-1.55l-1.35-.2c1.9-3.43,1.84-5.37.06-8.75a8,8,0,0,0-4.2-3.94,3,3,0,0,0-3.8,2.52c0,2.36.73,4.28,3.05,5.3.24.11.41.39.61.6a5,5,0,0,0-.47-.22L8.15,31.26C7.6,29.51,7,27.77,6.55,26c-.09-.32.23-.76.36-1.14.15.42.31.85.46,1.28a6.73,6.73,0,0,0,1.08-.62A13.14,13.14,0,0,0,9.8,24.18c.3-.34.54-.73.81-1.1l-1.4-.37c1.58-1.36,2.63.33,3.91.69.09,0,.16.15.25.16,4.14.5,4.68,4.28,6.38,7a.5.5,0,0,1,.12.35c-.69,2.48-.9,5.27-2.21,7.36-1.69,2.69-3.21,2.58-6.22.83-1.64-1-3.31-1.86-5-2.8C7.26,36.26,8.64,36.89,7.84,35.08Zm11.62-4.35c-.91-1.73-1.8-3.44-2.73-5.12-.12-.2-.49-.26-.74-.38-.08.34-.32.74-.21,1,.65,1.6,1.35,3.18,2.12,4.73.15.29.67.43,1.05.54C19,31.53,19.23,31.08,19.46,30.73Z"/><path class="cls-2" d="M5.55,25.4c.61,2.06,1.12,3.73,1.58,5.41.07.26-.11.58-.18.86A3.41,3.41,0,0,1,6.43,31C5.91,30,5.35,29,4.92,27.89c-1.09-2.75.22-5.84,2.83-7.95,1.82-1.47,3.24-.17,4.7.27,1.15.34,2.09,1.43,3.09,2.22.17.13.21.42.3.63a1.56,1.56,0,0,1-.64,0A28.24,28.24,0,0,1,12.4,22c-2-1-3.49-.14-4.84,1.26C6.84,24,6.14,24.76,5.55,25.4Z"/><path class="cls-6" d="M4.47,32.48c-.66-2.6-2.47-4.59-2.56-7.67-.12-4.46,2.61-6,5.42-8,.49-.34.95-.73,1.42-1.09-.6,1.25-.39,2.13,1.1,2.46.17,0,.29.28.43.43C8,18.07,6.87,20,5.29,21a6.28,6.28,0,0,0-.52.38L3,20.53c-.11.6-.25,1.2-.32,1.8a28.52,28.52,0,0,0-.34,3.9A5.12,5.12,0,0,0,3.1,28l.48-1.23c0-.09.09-.17.14-.26l2.58,5.8-1-1Z"/><path class="cls-2" d="M16.33,30.42c1.34,2,.72,5.68-1.23,6.82a2.75,2.75,0,0,1-2.09,0,14.9,14.9,0,0,1-3.62-1.85A10.11,10.11,0,0,1,7.57,33c.19,0,.42-.2.55-.13,1.67.77,3.32,1.58,5,2.38s2.52.41,2.69-1.6C15.88,32.56,16.14,31.51,16.33,30.42Z"/><path class="cls-3" d="M26.61,28.82c-.57.39-1.16.76-1.71,1.17a5.34,5.34,0,0,0-.59.66c-1,.75-1.79,2.2-3.2.61V31A45.11,45.11,0,0,0,20,26.17c-.54-1.55-.26-2.22,1.44-2.08h.77c.55,1.8,1.09,3.61,1.76,5.36,0,.07,1.4-.38,2.14-.57A3.07,3.07,0,0,1,26.61,28.82Z"/><path class="cls-6" d="M21.41,24.09c-1.7-.14-2,.53-1.44,2.08A45.11,45.11,0,0,1,21.11,31a13,13,0,0,1-.71-2.13c-.6-4-3-6.59-6.33-8.53-.06,0-.09-.12-.13-.18,1.16.18,1.68-.24,1.56-1.47,0-.3.37-.63.57-.95l.92-.47c-.32,2.86,1.65,4.17,3.65,5.52C21,23,21.16,23.63,21.41,24.09Z"/><path class="cls-2" d="M11.06,24.57c.73.48,1.46.95,2.16,1.46a1.36,1.36,0,0,1-.32.64,9.24,9.24,0,0,0-1.62,1.63c-.1.19.85.88,1.2,1.41a12.19,12.19,0,0,1,.77,1.68c-.53.15-1.17.58-1.57.42C9,30.73,8.08,27,10,25.18A6.66,6.66,0,0,1,11.06,24.57Z"/><path class="cls-6" d="M43.54,4.25l-.91.31c-1.1-.15-2.19-.29-3.28-.45a12.79,12.79,0,0,0-2.51-.37c-2.19.14-4.38.43-6.58.65,3.89-3.06,7.13-3.31,11.35-.93A19.05,19.05,0,0,0,43.54,4.25Z"/><path class="cls-3" d="M16.07,17.7c-.2.32-.6.65-.57.95.12,1.23-.4,1.65-1.56,1.47l-1.07-.46L10.58,18.6h-.3c-.14-.15-.26-.4-.43-.43-1.49-.33-1.7-1.21-1.1-2.46l1.07-.77.31-.29.77-.15c-.27.23-.55.45-.8.7s-.39.37-.4.57.22.6.32.59c2-.09,3.72,2,5.89.87Z"/><path class="cls-1" d="M15.91,17.22c-2.17,1.18-3.86-1-5.89-.87-.1,0-.33-.39-.32-.59s.23-.4.4-.57.53-.47.8-.7l.9,0c.95-.37,1.89-.75,2.85-1.1a6,6,0,0,1,.84-.19,3.36,3.36,0,0,1-.56.57A1.5,1.5,0,0,0,15,16.4,5.38,5.38,0,0,1,15.91,17.22Z"/><path class="cls-3" d="M3.72,26.53c-.05.09-.1.17-.14.26L3.1,28a5.12,5.12,0,0,1-.79-1.79,28.52,28.52,0,0,1,.34-3.9c.07-.6.21-1.2.32-1.8l1.8.81c0,.71-.1,1.42-.16,2.13-.29.82-.59,1.64-.89,2.45Z"/><path class="cls-3" d="M4.47,32.48l.83-1.11,1,1,1.54,2.75c.8,1.81-.58,1.18-1.36,1.21l-.33-.61c-.4-.81-.8-1.62-1.21-2.43Z"/><path class="cls-3" d="M21.58,42.24a.94.94,0,0,0-.07-.22l-.88-1.6a14.05,14.05,0,0,1,1.84.72c1.07.62,2.09,1.31,3.1,2a5.33,5.33,0,0,1,.81.89l-1.3.34-.76-.46-2.45-1.68Z"/><path class="cls-3" d="M8.15,31.26l3.33,1.31a5,5,0,0,1,.47.22c.81.32,1.63.62,2.42,1,.17.08.28.47.25.7s-.46.33-.6.26c-1.87-.89-3.72-1.81-5.58-2.73l-.29-.45Z"/><path class="cls-3" d="M9.21,22.71l1.4.37c-.27.37-.51.76-.81,1.1a13.14,13.14,0,0,1-1.35,1.34,6.73,6.73,0,0,1-1.08.62c-.15-.43-.31-.86-.46-1.28Z"/><path class="cls-3" d="M16.23,37.06l1.35.2c-.25.52-.48,1.05-.76,1.55a.78.78,0,0,1-.49.33c-.8.15-1.61.26-2.42.39l1.61-1.81c.14-.16.27-.33.4-.5Z"/><path class="cls-3" d="M11.71,28.07c.81-.25,1.26-.56,1.49-.44A5.86,5.86,0,0,1,15,29c.19.23-.05.84-.1,1.27A3.59,3.59,0,0,1,14,29.9C13.31,29.44,12.72,28.91,11.71,28.07Z"/><path class="cls-3" d="M23.69,7.9c-1.13.7-2.23,1.47-3.41,2.09-1.42.74-2.91,1.36-4.37,2,1.16-.7,2.29-1.46,3.49-2.09C20.8,9.19,22.26,8.57,23.69,7.9Z"/><path class="cls-6" d="M21.87,42.25l2.45,1.68Z"/><path class="cls-6" d="M10.58,18.6l2.29,1.06Z"/><path class="cls-6" d="M4.94,33.25c.41.81.81,1.62,1.21,2.43C5.75,34.87,5.35,34.06,4.94,33.25Z"/><path class="cls-6" d="M3.72,25.92c.3-.81.6-1.63.89-2.45C4.32,24.29,4,25.11,3.72,25.92Z"/><path class="cls-6" d="M8.15,31.57l.29.45Z"/><path class="cls-6" d="M10.13,14.64l-.31.29Z"/><path class="cls-1" d="M53.77,26.69l1.53-.31h.3a16.71,16.71,0,0,1,1.71,1,.87.87,0,0,1,.06.78q-3.94,2.65-7.94,5.24c-4.28,2.78-8.59,5.51-12.85,8.33-2.09,1.38-4.16,2.62-6.78,1.6-.3-.11-.5-.48-.75-.74,1.53-.94,3.06-1.86,4.57-2.81,3.67-2.31,7.36-4.61,11-7C47.7,30.79,50.72,28.72,53.77,26.69Z"/><path class="cls-8" d="M53.77,26.69c-3.05,2-6.07,4.1-9.15,6.09-3.64,2.35-7.33,4.65-11,7-1.51.95-3,1.87-4.57,2.81L28,43.16c1-.81,1.92-1.66,2.94-2.4s2.21-1.45,3.32-2.17c4-2.52,8.06-5,12.07-7.57,2.25-1.42,4.47-2.88,6.7-4.32Z"/><path class="cls-7" d="M53,26.7c-2.23,1.44-4.45,2.9-6.7,4.32-4,2.54-8,5.05-12.07,7.57a19.17,19.17,0,0,0-1.86-1.75c-1.32-1-.79-1.75.18-2.52.59-.47,1.21-.91,1.82-1.37l.31,0,.76-.59.16,0,1.52-1,.46,0L38,31h0l.59-.44.16,0,.91-.73L41,29.11c1.93-1.18,3.82-2.42,5.79-3.53,1.39-.78,2.85-1.8,4.52-.79.44.26.57,1,.93,1.44A2.52,2.52,0,0,0,53,26.7Z"/><path class="cls-6" d="M37.13,31.28l-1.52,1Z"/><path class="cls-6" d="M39.72,29.75l-.91.73Z"/><path class="cls-6" d="M35.45,32.34l-.76.59Z"/><path class="cls-6" d="M38.65,30.51l-.59.44Z"/><path class="cls-6" d="M38,31l-.45.29Z"/><path class="cls-8" d="M26.61,28.82a3.07,3.07,0,0,0-.53.06c-.74.19-2.11.64-2.14.57-.67-1.75-1.21-3.56-1.76-5.36,2.64-1.34,5.29-2.66,7.91-4s5.15-2.83,7.76-4.16c.26-.13,1,.22,1.22.54a10.74,10.74,0,0,1,1.48,2.72A1.83,1.83,0,0,1,40,20.82C36.58,23,33,25,29.53,27.11,28.56,27.69,27.58,28.25,26.61,28.82Z"/><path class="cls-3" d="M19.46,30.73c-.23.35-.44.8-.51.77-.38-.11-.9-.25-1.05-.54-.77-1.55-1.47-3.13-2.12-4.73-.11-.26.13-.66.21-1,.25.12.62.18.74.38C17.66,27.29,18.55,29,19.46,30.73Z"/></g></g></g></svg>