<svg xmlns="http://www.w3.org/2000/svg" viewBox="0 0 105.04 98.84"><defs><style>.cls-1{fill:#fff;}</style></defs><title>structure-hut</title><g id="Layer_2" data-name="Layer 2"><g id="Layer_1-2" data-name="Layer 1"><path class="cls-1" d="M64.1,98.76c0-7.82-.4-14.82.1-21.76.61-8.53-4.86-11-11.81-11.14-7.84-.13-11.45,3.46-11.49,10.94Q40.83,87,40.71,97.27c0,.29-.27.57-.73,1.47-5.47,0-11.25.16-17-.15-1.07-.06-2.58-1.86-2.94-3.12-2.47-8.78-4.83-17.6-6.93-26.48-.76-3.18-1.93-5.06-5.39-6C1.33,61.38-1,56.7.39,50,2.32,40.87,6.85,33,12.59,25.78c2.68-3.36,3.79-6.38,2.58-10.85C12.07,3.49,12.33,3.42,24.64,0c.85,3.54,1.7,7.06,2.64,11,3.66-1.91,6.63-3.72,9.8-5.06C51.62-.2,65.26,2.49,77.62,11.34c12.73,9.12,22,21,26.5,36.38,2.52,8.69-.09,13.34-8.73,16.19-1.4.46-2.75,2.59-3.19,4.21q-3.67,13.42-6.81,27c-.64,2.8-1.76,3.83-4.66,3.7C75.44,98.6,70.14,98.76,64.1,98.76Z"/></g></g></svg>