<svg xmlns="http://www.w3.org/2000/svg" viewBox="0 0 88.42 106.48"><defs><style>.cls-1{fill:#fff;}</style></defs><title>structure-building</title><g id="Layer_2" data-name="Layer 2"><g id="Layer_1-2" data-name="Layer 1"><path class="cls-1" d="M0,22.46H12.13C11.16,14.7,10.27,7.58,9.32,0H39.15c-.8,7.36-1.57,14.5-2.41,22.23H88.42c-3.87,28.41-7.64,56.12-11.43,84H56.07V87.48c0-12-5.41-16-17.06-13.09C33.84,75.7,32.22,79.32,32.1,84c-.17,7-.13,14-.21,21,0,.29-.26.58-.71,1.49-5.64,0-11.58.12-17.51-.13-.9,0-2.37-1.67-2.51-2.71C8,81,5,58.33,2,35.68,1.41,31.48.73,27.29,0,22.46Z"/></g></g></svg>