<svg xmlns="http://www.w3.org/2000/svg" viewBox="0 0 117.42 106.59"><defs><style>.cls-1{fill:#fff;}</style></defs><title>structure-house</title><g id="Layer_2" data-name="Layer 2"><g id="Layer_1-2" data-name="Layer 1"><path class="cls-1" d="M70.25,106.55c0-7.46-.06-14.1,0-20.73,0-4.65-1.09-8.9-5.56-10.83-5.27-2.27-11-2.35-15.55,1.51-1.72,1.44-2.66,4.59-2.78,7-.35,7.44-.12,14.9-.12,23-6.31,0-12.08.16-17.82-.14-1.09-.06-2.68-1.79-3-3C22.65,93.46,20,83.53,17.67,73.51a7.76,7.76,0,0,1,1.68-6.19c11.86-11.88,24-23.49,36-35.24,1.85-1.8,3.23-1.72,5,.05C72.64,44.11,85,56,97.16,68.05a5.78,5.78,0,0,1,1.15,4.67q-3.69,15.48-7.93,30.82c-.33,1.19-1.92,2.81-3,2.87C81.94,106.7,76.48,106.55,70.25,106.55Z"/><path class="cls-1" d="M18.13,12,34.85,7.32c.31,4.88.59,9.21.85,13.37L56.3,0l61.12,58.15L104.26,68.92,58,24.39,11.68,69,0,59.38c5.64-5.67,10.72-11.64,16.68-16.52s6.94-10.09,4.66-16.95C19.89,21.57,19.24,17,18.13,12Z"/></g></g></svg>