<svg xmlns="http://www.w3.org/2000/svg" viewBox="0 0 53.15 54.62"><defs><style>.cls-1{fill:#fff;}</style></defs><title>tree-fruit</title><g id="Layer_2" data-name="Layer 2"><g id="Layer_1-2" data-name="Layer 1"><path class="cls-1" d="M43.56,19.53c6.47,3.45,11,8.58,9.18,16.36-2.42,10.3-10.61,12.65-20.22,12.24-.27,2.26-.49,4.19-.76,6.49H21.48c-.26-1.95-.53-4-.64-4.79C15.15,47.61,9.41,46.7,5.45,43.55c-8.31-6.6-6.76-17.18,2.23-23a7.92,7.92,0,0,0,3.22-5.26A16.37,16.37,0,0,1,29,.1C38.76,1.16,45,9,43.41,18.4A4.6,4.6,0,0,0,43.56,19.53Zm-16.73.53c3.76.07,6-2.18,5.58-5.11-.28-1.86-3.29-4.55-5.1-4.57s-4.5,2.72-4.95,4.67C21.74,17.75,23.64,20.1,26.83,20.06Zm-9.62,18c3-.13,4.89-1.65,4.76-4.91S19.84,28,16.52,28.06,11.89,30.2,12,33.32C12.07,36.6,13.9,38.05,17.21,38.08ZM38,38.94c1.34-1.84,3.5-3.54,3.83-5.55.52-3.22-1.72-5.25-5.07-5.33S32,29.89,32,33.07,33.6,37.94,38,38.94Z"/></g></g></svg>