<?xml version="1.0" encoding="UTF-8"?>
<svg xmlns="http://www.w3.org/2000/svg" viewBox="0 0 112 96" width="448" height="384">
  <rect x="0" y="0" width="112" height="96" fill="#347941" />
  <path d="M16,13L96,13L99,16L99,23L98,24L98,27L95,30L94,30L94,31L93,32L91,32L90,33L89,33L86,36L86,37L85,38L77,38L74,35L73,35L72,34L72,33L68,33L67,32L66,32L65,31L65,30L64,29L59,29L55,33L55,34L54,35L53,35L51,37L49,37L48,38L47,38L45,36L42,36L41,37L31,37L30,36L28,36L27,37L17,37L16,36L16,35L15,34L15,32L14,31L14,24L13,23L13,20L14,19L14,15Z" fill="#35a043" fill-rule="evenodd" />
  <path d="M32,14L42,14L44,16L44,22L43,23L41,23L40,24L39,24L38,23L37,23L36,24L34,24L31,21L31,15Z M51,14L68,14L69,15L69,20L68,21L68,22L67,23L66,23L65,22L64,22L63,21L63,20L62,19L61,19L60,18L58,18L57,19L57,21L56,22L55,22L53,20L53,19L50,16L50,15Z M76,14L87,14L88,15L96,15L97,16L97,19L96,20L93,20L89,24L82,24L81,23L81,22L80,21L80,19L77,19L76,18L75,18L74,17L74,16Z" fill="#4ac34e" fill-rule="evenodd" />
  <path d="M34,15L37,15L38,16L38,17L37,18L37,21L36,22L34,22L33,21L33,20L25,20L24,21L24,24L25,25L25,27L24,28L24,40L20,44L20,46L25,51L25,52L26,53L26,59L27,60L28,60L32,56L32,54L37,49L38,49L39,48L40,48L43,45L43,44L46,41L54,41L58,45L58,46L59,47L61,47L66,52L66,53L69,56L71,56L72,55L72,53L73,52L73,51L76,48L76,46L79,43L79,40L78,39L78,34L79,33L79,32L84,27L84,22L83,21L83,19L84,18L88,18L89,19L89,21L88,22L88,29L83,34L83,39L82,40L82,46L79,49L79,50L78,51L78,52L76,54L76,56L77,56L80,53L83,53L87,57L88,57L92,61L93,61L96,64L96,65L97,66L97,70L96,71L96,77L93,80L91,80L90,81L90,85L86,85L86,79L88,77L90,77L92,75L92,70L93,69L93,67L92,66L92,65L91,64L89,64L86,61L85,61L82,58L78,58L77,59L74,59L73,60L67,60L65,58L65,57L59,51L56,51L54,49L54,47L52,45L47,45L46,46L46,47L41,52L40,52L36,56L36,58L32,62L31,62L28,65L27,65L26,66L26,67L25,68L25,73L27,75L27,77L26,78L26,85L22,85L22,76L21,75L21,68L22,67L22,66L23,65L23,61L22,60L22,54L19,51L19,50L16,47L16,42L17,41L18,41L20,39L20,31L19,30L19,27L20,26L20,21L19,20L19,18L20,17L22,17L23,16L33,16Z M34,29L38,29L39,30L39,32L38,33L38,38L39,39L39,42L38,43L35,43L33,41L33,39L34,38L34,33L33,32L33,30Z M68,38L70,38L72,40L73,40L74,41L74,42L73,43L72,43L70,45L69,45L68,44L68,41L67,40L67,39Z" fill="#83e1c3" fill-opacity="0.5" fill-rule="evenodd" />
</svg>