<?xml version="1.0" encoding="UTF-8"?>
<svg xmlns="http://www.w3.org/2000/svg" viewBox="0 0 112 96" width="448" height="384">
  <rect x="0" y="0" width="112" height="96" fill="#347941" />
  <path d="M16,13L96,13L99,16L99,30L98,31L96,31L95,32L95,34L98,37L98,38L99,39L99,49L96,52L95,52L94,53L86,53L85,52L84,52L81,49L81,42L82,41L82,40L83,39L84,39L85,38L85,35L88,32L88,29L89,28L89,24L88,23L83,23L82,22L78,22L77,23L77,24L76,25L76,26L74,28L73,28L72,29L70,29L69,30L67,30L66,31L65,31L64,30L63,30L61,32L56,32L55,31L54,31L52,29L51,29L50,28L49,28L48,27L46,27L44,25L44,24L43,23L42,23L40,21L27,21L25,23L25,26L24,27L24,33L25,34L26,34L27,35L28,35L31,38L31,39L30,40L30,41L28,43L28,44L27,45L27,46L25,48L15,48L13,46L13,41L14,40L14,37L15,36L15,35L14,35L13,34L13,16Z" fill="#35a043" fill-rule="evenodd" />
  <path d="M17,14L23,14L25,16L25,17L20,22L20,24L18,26L16,26L14,24L14,17Z M49,14L78,14L79,15L79,18L78,19L75,19L74,20L72,20L72,21L70,23L69,23L68,24L66,24L65,25L60,25L58,23L57,23L56,22L53,22L52,21L50,21L48,19L48,15Z M95,21L97,21L98,22L98,29L97,30L96,30L95,29L95,28L94,27L94,22Z M91,37L95,37L97,39L97,40L98,41L98,48L95,48L94,47L93,47L91,45L91,44L90,43L90,38Z" fill="#4ac34e" fill-rule="evenodd" />
  <path d="M34,16L37,16L38,17L38,19L37,20L37,22L39,24L39,26L38,27L36,27L35,26L33,26L32,25L32,23L33,22L33,20L32,19L32,18Z M65,16L67,16L68,17L68,20L66,22L65,22L64,21L64,17Z M17,33L18,33L19,34L19,35L20,36L21,36L22,35L23,35L24,36L24,38L22,40L22,41L24,43L24,44L23,45L23,46L22,47L22,49L24,51L24,55L25,56L27,56L29,54L30,54L33,51L33,50L37,46L42,46L43,45L47,45L48,44L53,44L55,46L55,47L57,49L62,49L63,50L64,50L66,52L73,52L74,53L77,53L78,54L79,54L82,57L86,57L87,56L87,51L86,50L86,49L88,47L89,47L90,48L91,48L92,49L92,50L91,51L91,58L94,61L94,62L95,63L95,68L94,69L94,76L92,78L91,78L90,79L90,85L86,85L86,78L87,77L87,76L88,75L89,75L90,74L90,68L91,67L91,64L88,61L81,61L80,60L79,60L76,57L73,57L72,56L65,56L63,54L62,54L61,53L56,53L51,48L49,48L48,49L43,49L42,50L38,50L36,52L36,53L31,58L30,58L29,59L29,60L30,61L30,63L29,64L29,66L28,67L28,72L24,76L24,78L26,80L26,85L22,85L22,81L21,80L21,79L20,78L20,76L21,75L21,74L24,71L24,66L25,65L25,64L26,63L26,61L24,59L23,59L20,56L20,53L18,51L18,46L20,44L20,43L18,41L18,39L16,37L16,34Z M38,33L40,33L41,34L41,36L40,37L40,38L38,40L37,40L36,39L36,36L37,35L37,34Z" fill="#9CFFE8" fill-opacity="0.77" fill-rule="evenodd" />
</svg>