<?xml version="1.0" encoding="UTF-8"?>
<svg xmlns="http://www.w3.org/2000/svg" viewBox="0 0 112 96" width="448" height="384">
  <rect x="0" y="0" width="112" height="96" fill="#347941" />
  <path d="M16,13L83,13L85,15L85,22L84,23L84,27L82,29L82,30L80,32L77,32L75,34L74,34L73,35L68,35L67,34L63,34L62,33L60,33L59,32L57,32L56,33L53,33L52,34L51,34L50,35L50,36L49,37L49,38L47,40L28,40L27,41L21,41L20,40L16,40L15,39L15,38L14,37L14,30L13,29L13,16Z M89,32L97,32L98,33L98,35L99,36L99,37L98,38L98,41L99,42L99,45L98,46L98,47L97,48L93,48L92,47L89,47L88,46L88,44L87,43L87,41L86,40L86,37L87,36L87,34Z" fill="#35a043" fill-rule="evenodd" />
  <path d="M17,14L54,14L56,16L56,20L55,21L55,22L53,24L41,24L40,23L39,23L38,22L33,22L31,24L20,24L19,23L17,23L15,21L15,20L14,19L14,17Z" fill="#4ac34e" fill-rule="evenodd" />
  <path d="M24,18L27,18L28,19L28,20L27,21L27,26L28,27L30,27L34,31L36,31L39,28L42,28L45,25L45,23L44,22L44,20L45,19L48,19L50,21L50,22L49,23L49,26L44,31L40,31L38,33L38,41L40,43L46,43L48,45L48,46L49,47L53,47L54,48L59,48L62,51L67,51L68,50L74,50L76,52L85,52L88,55L88,56L89,57L89,68L87,70L87,76L89,78L89,79L90,80L90,85L86,85L86,80L85,79L84,79L83,78L83,76L84,75L84,68L85,67L85,66L86,65L86,59L85,58L85,57L84,56L79,56L78,55L74,55L73,54L60,54L58,52L54,52L53,51L48,51L46,49L46,48L45,47L40,47L39,46L38,46L37,45L36,45L34,47L33,47L32,48L30,48L28,50L28,56L25,59L25,62L22,65L22,72L25,75L25,77L26,78L26,85L22,85L22,77L20,75L20,74L18,72L18,65L19,64L19,63L21,61L21,60L22,59L22,57L24,55L24,49L25,48L25,47L28,44L31,44L32,43L33,43L34,42L34,37L35,36L35,35L34,34L33,34L29,30L26,30L24,28L24,27L23,26L23,22L22,21L22,20Z M55,38L59,38L61,40L61,41L59,43L58,43L56,41L55,41L54,40L54,39Z M92,38L94,38L95,39L95,44L94,45L93,45L92,44L92,43L91,42L91,39Z" fill="#9CFFE8" fill-opacity="0.77" fill-rule="evenodd" />
</svg>