<?xml version="1.0" encoding="UTF-8"?>
<svg xmlns="http://www.w3.org/2000/svg" viewBox="0 0 112 96" width="448" height="384">
  <rect x="0" y="0" width="112" height="96" fill="#347941" />
  <path d="M16,13L65,13L66,14L67,14L68,13L96,13L99,16L99,18L98,19L98,20L99,21L99,22L98,23L96,23L95,24L94,24L93,25L89,25L88,26L88,27L87,28L85,28L84,29L75,29L74,28L74,27L72,25L71,25L70,24L69,24L68,25L67,25L64,28L61,28L60,29L58,29L57,28L56,28L55,29L54,29L52,31L50,31L49,32L48,32L47,31L46,31L45,32L42,32L41,31L36,31L35,32L35,33L34,34L32,34L31,35L29,35L28,34L26,34L24,36L24,37L23,38L21,38L20,37L19,37L18,36L17,36L16,37L15,36L15,34L14,33L14,32L13,31L14,30L14,29L13,28L13,21L14,20L14,19L13,18L13,16Z" fill="#35a043" fill-rule="evenodd" />
  <path d="M17,14L60,14L62,16L62,23L59,26L56,26L55,25L52,25L51,26L48,26L46,24L45,24L44,23L43,23L42,22L39,22L38,23L34,23L32,25L28,25L25,28L18,28L16,26L16,24L15,23L15,22L14,21L14,17Z M82,14L95,14L98,17L98,18L96,20L94,20L93,21L89,21L88,20L88,19L87,18L82,18L82,16L81,15Z" fill="#4ac34e" fill-rule="evenodd" />
  <path d="M53,16L55,16L56,17L60,17L61,18L66,18L67,19L69,19L70,18L74,18L75,19L76,19L81,24L81,31L84,34L85,34L88,37L88,43L89,44L89,50L86,53L86,54L85,55L85,60L82,63L82,67L83,68L86,68L88,70L88,71L89,72L89,77L90,78L90,85L86,85L86,79L85,78L85,73L84,72L81,72L79,70L79,69L78,68L78,62L79,61L79,60L81,58L81,54L82,53L82,52L85,49L85,45L84,44L84,38L83,37L82,37L81,36L80,36L79,35L77,35L76,36L74,36L73,37L73,39L72,40L72,41L67,46L66,46L65,47L61,47L60,48L59,48L57,50L51,50L50,49L47,49L46,50L44,50L43,51L38,51L35,48L34,48L32,46L32,45L31,44L29,44L26,47L25,47L24,48L24,50L25,51L25,54L28,57L28,65L29,66L29,75L26,78L26,85L22,85L22,77L25,74L25,66L24,65L24,58L21,55L21,51L20,50L20,46L21,45L22,45L23,44L24,44L28,40L32,40L36,36L42,36L43,37L49,37L50,36L51,36L53,34L58,34L59,33L64,33L65,32L69,32L70,31L72,31L73,32L76,32L77,31L77,25L74,22L70,22L69,23L67,23L66,22L61,22L60,21L57,21L55,23L53,23L52,22L52,21L53,20L53,19L52,18L52,17Z M66,36L65,37L60,37L59,38L54,38L52,40L51,40L50,41L42,41L41,40L37,40L35,42L35,44L36,45L37,45L39,47L42,47L43,46L46,46L47,45L50,45L51,46L56,46L58,44L59,44L60,43L64,43L65,42L66,42L69,39L69,37L68,36Z M32,51L33,51L35,53L35,56L36,57L36,58L35,59L33,59L31,57L31,52Z M93,59L94,59L95,60L95,61L96,62L96,65L95,66L94,66L92,64L91,64L90,63L90,61L91,60L92,60Z" fill="#83e1c3" fill-opacity="0.5" fill-rule="evenodd" />
</svg>