<?xml version="1.0" encoding="UTF-8"?>
<svg xmlns="http://www.w3.org/2000/svg" viewBox="0 0 112 96" width="448" height="384">
  <rect x="0" y="0" width="112" height="96" fill="#347941" />
  <path d="M16,13L96,13L99,16L99,25L98,26L98,27L99,28L99,30L98,31L98,33L99,34L99,35L97,37L89,37L88,36L87,36L86,35L85,35L84,34L83,34L80,31L80,30L78,28L74,28L73,29L73,31L72,32L70,32L69,31L59,31L58,32L53,32L52,33L43,33L40,36L40,37L39,38L33,38L32,37L25,37L22,34L19,34L18,33L15,33L14,32L14,30L13,29L13,26L14,25L14,21L13,20L13,16Z" fill="#35a043" fill-rule="evenodd" />
  <path d="M19,14L29,14L30,15L30,19L29,20L29,22L27,24L27,25L26,26L23,26L22,25L22,24L21,23L20,23L18,21L18,15Z M40,14L76,14L77,15L77,18L74,21L72,21L71,22L70,22L69,21L65,21L63,23L54,23L53,22L52,22L51,21L44,21L43,20L41,20L39,18L39,15Z M88,14L95,14L98,17L98,20L97,21L97,22L98,23L98,24L96,26L94,26L93,25L93,22L92,21L91,21L90,20L88,20L87,19L87,15Z" fill="#4ac34e" fill-rule="evenodd" />
  <path d="M22,17L25,17L27,19L27,20L25,22L24,22L23,21L22,21L21,20L21,18Z M56,17L58,17L59,18L60,18L61,19L61,20L60,21L60,25L61,26L61,27L63,29L63,38L60,41L59,41L58,42L58,47L59,48L64,48L65,47L66,47L67,46L73,46L74,45L81,45L82,46L83,46L84,47L86,47L89,50L89,52L91,54L91,61L92,62L92,63L91,64L90,64L89,65L88,65L87,66L87,72L88,73L88,75L90,77L90,85L86,85L86,78L85,77L85,75L84,74L84,73L83,72L83,65L85,63L86,63L87,62L87,54L86,53L86,52L85,51L84,51L83,50L82,50L81,49L74,49L73,50L68,50L67,51L66,51L65,52L59,52L58,51L55,51L54,52L48,52L47,53L46,53L44,55L42,55L41,54L32,54L31,55L30,55L26,59L22,59L20,61L20,67L21,68L21,69L24,72L24,73L25,74L25,79L26,80L26,85L22,85L22,80L21,79L21,74L18,71L18,70L17,69L17,60L18,59L18,58L20,56L24,56L26,54L26,53L28,51L30,51L31,50L44,50L45,49L46,49L47,48L53,48L54,47L54,42L53,41L50,41L48,39L47,39L44,36L44,30L43,29L41,29L40,30L38,30L37,29L37,26L38,25L41,25L42,26L45,26L47,28L47,29L48,30L48,35L51,38L54,38L55,39L57,39L59,37L59,29L57,27L57,26L56,25L56,21L55,20L55,18Z M75,33L77,33L78,34L78,37L77,38L77,39L76,40L75,40L74,39L74,34Z" fill="#83e1c3" fill-opacity="0.5" fill-rule="evenodd" />
</svg>