<?xml version="1.0" encoding="UTF-8"?>
<svg xmlns="http://www.w3.org/2000/svg" viewBox="0 0 112 96" width="448" height="384">
  <rect x="0" y="0" width="112" height="96" fill="#347941" />
  <path d="M16,13L88,13L91,16L91,22L90,23L90,27L89,28L89,29L88,30L81,30L80,31L78,31L77,32L75,32L74,31L69,31L68,32L51,32L49,34L49,35L47,37L38,37L36,39L35,39L34,40L33,40L33,41L30,44L28,44L24,48L24,52L23,53L23,54L20,57L19,57L18,56L17,56L16,57L14,57L13,56L13,51L14,50L14,49L15,48L15,47L14,46L14,45L16,43L16,42L15,41L15,40L14,39L14,31L13,30L13,24L14,23L14,21L13,20L13,16Z" fill="#35a043" fill-rule="evenodd" />
  <path d="M17,14L27,14L29,16L29,24L25,28L25,30L24,31L23,31L21,33L21,34L20,35L19,35L18,36L16,36L15,35L15,30L14,29L14,26L15,25L15,24L16,23L16,21L14,19L14,17Z M55,14L79,14L80,15L80,19L78,21L75,21L74,22L68,22L67,21L66,21L65,20L60,20L59,19L55,19L53,17L53,16Z" fill="#4ac34e" fill-rule="evenodd" />
  <path d="M25,16L26,16L27,17L31,17L32,18L33,18L34,19L35,19L40,24L40,25L41,26L46,26L49,23L55,23L57,25L58,25L61,28L61,37L65,41L74,41L75,42L79,42L81,44L82,44L87,49L87,51L90,54L90,58L88,60L88,62L90,64L91,64L92,65L92,66L91,67L91,68L93,70L93,77L90,80L90,85L86,85L86,79L89,76L89,71L87,69L87,66L84,63L83,63L82,62L80,62L77,59L72,59L71,58L70,58L65,53L65,52L64,51L64,47L63,46L63,44L60,41L58,41L56,43L55,43L51,47L51,48L49,50L46,50L45,51L44,51L43,52L38,52L36,54L35,54L32,57L31,57L30,58L30,63L26,67L26,68L24,70L24,78L25,79L25,80L26,81L26,85L22,85L22,81L21,80L21,78L20,77L20,70L21,69L21,68L23,66L23,65L26,62L26,58L27,57L27,55L28,54L29,54L33,50L36,50L38,48L43,48L44,47L47,47L48,46L48,45L52,41L52,40L53,39L55,39L57,37L57,29L55,27L50,27L49,28L48,28L47,29L40,29L33,22L32,22L31,21L28,21L27,22L26,22L24,20L24,17Z M72,16L76,16L77,17L77,18L75,20L73,20L71,18L71,17Z M87,34L89,34L90,35L90,37L87,40L85,40L84,39L84,37Z M68,44L67,45L67,50L72,55L78,55L81,58L82,58L83,59L85,59L86,58L86,54L84,52L84,51L81,48L80,48L77,45L74,45L73,44Z" fill="#9CFFE8" fill-opacity="0.77" fill-rule="evenodd" />
</svg>