<?xml version="1.0" encoding="UTF-8"?>
<svg xmlns="http://www.w3.org/2000/svg" viewBox="0 0 112 96" width="448" height="384">
  <rect x="0" y="0" width="112" height="96" fill="#347941" />
  <path d="M16,13L96,13L99,16L99,25L98,26L98,27L99,28L99,31L98,32L98,34L97,35L93,35L92,34L91,34L90,33L89,33L88,32L84,32L82,30L82,29L81,28L80,28L79,27L78,27L77,28L76,28L75,27L74,27L73,28L72,28L68,32L65,32L64,33L61,33L60,32L57,32L56,33L51,33L51,34L50,35L49,35L48,36L44,36L43,35L43,34L42,33L41,33L39,31L38,31L38,32L37,33L34,33L32,35L31,35L30,36L30,37L29,38L25,38L24,37L23,37L22,38L19,38L17,36L17,35L15,35L13,33L13,29L15,27L15,26L14,25L14,21L13,20L13,16Z" fill="#35a043" fill-rule="evenodd" />
  <path d="M26,14L95,14L98,17L98,23L97,24L97,27L96,28L92,28L89,25L89,24L88,23L78,23L77,22L74,22L73,23L67,23L65,21L65,20L64,19L58,19L57,18L54,18L53,19L48,19L46,21L45,21L44,22L42,22L41,23L33,23L32,22L31,22L30,23L26,23L25,22L25,20L24,19L24,16Z" fill="#4ac34e" fill-rule="evenodd" />
  <path d="M34,15L42,15L43,16L43,18L42,19L41,19L40,20L40,23L41,24L52,24L53,25L54,25L55,26L55,36L56,37L61,37L64,40L64,48L65,49L69,49L73,45L75,45L76,44L81,44L82,45L86,45L87,46L88,46L90,48L90,52L91,53L91,58L90,59L90,60L89,61L89,62L88,63L88,70L85,73L85,75L86,76L87,76L90,79L90,85L86,85L86,81L83,78L82,78L81,77L81,72L84,69L84,61L85,60L85,59L87,57L87,53L86,52L86,50L85,49L81,49L80,48L76,48L75,49L74,49L70,53L64,53L63,52L61,52L59,54L56,54L55,53L49,53L47,51L46,51L45,50L44,50L43,49L32,49L30,51L29,51L27,53L24,53L22,55L22,62L23,63L23,64L26,67L26,69L27,70L27,75L26,76L26,85L22,85L22,75L23,74L23,70L21,68L21,67L19,65L19,63L18,62L18,54L23,49L26,49L27,48L28,48L30,46L31,46L32,45L39,45L40,44L40,42L41,41L41,39L42,38L43,38L44,37L50,37L51,36L51,29L50,28L38,28L37,27L37,26L36,25L36,20L35,19L34,19L33,18L33,16Z M60,19L62,19L63,20L63,22L64,23L64,25L63,26L63,27L62,28L61,28L59,26L59,25L60,24L60,23L59,22L59,20Z M51,40L50,41L45,41L44,42L44,45L45,46L46,46L47,47L48,47L50,49L59,49L60,48L60,42L59,41L55,41L54,40Z M93,70L94,70L98,74L98,75L96,77L95,77L94,76L94,75L93,74L92,74L91,73L91,72Z" fill="#83e1c3" fill-opacity="0.5" fill-rule="evenodd" />
</svg>