<?xml version="1.0" encoding="UTF-8"?>
<svg xmlns="http://www.w3.org/2000/svg" viewBox="0 0 112 96" width="448" height="384">
  <rect x="0" y="0" width="112" height="96" fill="#347941" />
  <path d="M25,13L96,13L99,16L99,20L98,21L98,23L97,24L97,25L99,27L99,33L98,34L98,40L97,41L94,41L90,37L88,37L87,36L78,36L77,35L76,35L75,36L71,36L67,32L61,32L59,34L57,34L56,35L49,35L45,39L44,39L43,40L38,40L36,38L36,37L33,37L32,36L29,36L28,35L27,35L24,32L24,29L23,28L23,26L24,25L24,23L23,22L23,15Z" fill="#35a043" fill-rule="evenodd" />
  <path d="M33,14L47,14L48,15L48,20L49,21L49,23L48,24L48,25L46,27L43,27L42,26L42,25L41,24L41,23L40,22L36,22L34,20L33,20L31,18L31,17L32,16L32,15Z M58,14L91,14L92,15L92,19L88,23L88,24L87,25L83,25L82,24L67,24L65,22L64,22L63,21L58,21L56,19L56,18L57,17L57,15Z" fill="#4ac34e" fill-rule="evenodd" />
  <path d="M70,16L79,16L80,17L80,19L79,20L77,20L76,21L76,26L77,27L78,27L79,28L80,28L83,31L83,42L84,43L85,43L88,46L88,47L90,49L90,55L92,57L92,58L93,59L93,68L90,71L90,72L89,73L89,75L90,76L90,85L86,85L86,77L85,76L85,72L86,71L86,70L89,67L89,60L87,58L87,56L86,55L86,51L85,50L85,49L82,46L80,46L79,45L76,45L75,46L74,46L73,47L72,47L70,49L64,49L63,50L62,50L60,52L54,52L53,53L52,53L49,56L44,56L41,53L39,53L38,52L32,52L31,53L28,53L26,55L26,59L25,60L25,61L22,64L22,68L23,69L24,69L27,72L27,75L26,76L26,85L22,85L22,73L21,72L20,72L18,70L18,63L22,59L22,54L27,49L30,49L31,48L39,48L40,49L41,49L42,50L43,50L45,52L48,52L51,49L52,49L53,48L59,48L61,46L62,46L63,45L69,45L71,43L72,43L73,42L74,42L75,41L78,41L79,40L79,32L78,31L77,31L76,30L75,30L72,27L72,21L71,20L70,20L69,19L69,17Z M19,36L24,36L26,38L26,44L25,45L24,45L23,44L23,42L22,41L21,41L20,42L20,44L19,45L18,45L17,44L17,38Z" fill="#83e1c3" fill-opacity="0.5" fill-rule="evenodd" />
</svg>