<?xml version="1.0" encoding="UTF-8"?>
<svg xmlns="http://www.w3.org/2000/svg" viewBox="0 0 112 96" width="448" height="384">
  <rect x="0" y="0" width="112" height="96" fill="#347941" />
  <path d="M16,13L96,13L98,15L98,18L99,19L99,24L98,25L98,27L96,29L90,29L89,28L89,27L88,26L81,26L80,27L80,28L77,31L75,31L75,32L73,34L72,34L71,35L69,35L68,34L67,34L66,35L62,35L61,34L59,34L58,33L57,33L55,35L52,35L51,34L50,34L48,36L48,37L47,38L36,38L35,37L34,37L29,42L15,42L13,40L13,35L14,34L14,31L15,30L15,29L14,28L14,26L13,25L13,16Z" fill="#35a043" fill-rule="evenodd" />
  <path d="M17,14L49,14L50,15L50,18L47,21L39,21L38,22L37,22L37,23L35,25L34,25L33,24L22,24L21,23L21,22L20,22L19,21L16,21L14,19L14,17Z M63,14L82,14L83,15L83,17L82,18L82,19L81,20L76,20L75,21L75,22L74,23L73,23L70,26L64,26L63,25L62,25L61,24L61,23L62,22L62,15Z" fill="#4ac34e" fill-rule="evenodd" />
  <path d="M25,16L34,16L35,17L35,19L34,20L33,20L32,21L32,27L33,28L36,28L37,29L38,29L39,30L40,30L41,31L41,42L42,43L42,47L43,48L52,48L53,47L54,47L56,49L58,49L61,52L65,52L66,51L67,51L68,50L68,48L70,46L71,46L73,44L74,44L75,43L76,43L77,42L80,42L81,41L87,41L88,42L90,42L94,46L94,53L91,56L91,57L90,58L90,64L89,65L89,66L87,68L87,72L90,75L90,83L89,84L86,84L86,76L83,73L83,67L85,65L85,64L86,63L86,57L87,56L87,55L90,52L90,47L89,46L87,46L86,45L81,45L80,46L78,46L77,47L76,47L74,49L73,49L71,51L71,52L68,55L67,55L66,56L60,56L57,53L55,53L54,52L47,52L46,53L42,53L38,57L32,57L31,58L31,59L29,61L28,61L27,62L26,62L24,64L24,69L25,70L25,71L27,73L27,75L26,76L26,84L22,84L22,72L21,71L21,70L20,69L20,63L24,59L25,59L26,58L27,58L28,57L28,51L27,50L26,50L24,48L24,38L25,37L25,34L27,32L27,29L28,28L28,21L27,20L25,20L24,19L24,17Z M31,32L30,33L30,34L29,35L29,38L28,39L28,46L29,47L30,47L32,49L32,52L33,53L37,53L38,52L38,45L37,44L37,34L36,33L35,33L34,32Z M62,38L65,38L66,39L66,40L65,41L65,43L66,44L66,46L65,47L62,47L61,46L61,45L62,44L62,42L61,41L61,39Z" fill="#83e1c3" fill-opacity="0.5" fill-rule="evenodd" />
</svg>