<?xml version="1.0" encoding="UTF-8"?>
<svg xmlns="http://www.w3.org/2000/svg" viewBox="0 0 112 96" width="448" height="384">
  <rect x="0" y="0" width="112" height="96" fill="#347941" />
  <path d="M16,13L96,13L99,16L99,26L98,27L98,36L99,37L99,39L97,41L94,41L93,42L92,42L91,41L83,41L83,39L82,38L82,37L80,35L80,34L78,32L78,30L77,30L76,29L72,29L71,30L70,29L68,29L67,30L64,30L63,29L61,29L60,28L57,28L56,29L56,31L55,32L55,33L54,34L54,35L52,35L51,36L47,36L45,34L45,32L44,31L39,31L37,29L30,29L28,31L27,30L26,30L25,31L23,31L21,29L20,29L19,28L18,28L17,29L15,27L14,27L13,26L13,22L14,21L14,18L13,17L13,16Z" fill="#35a043" fill-rule="evenodd" />
  <path d="M34,14L55,14L57,16L57,17L58,18L58,21L57,22L56,22L55,23L55,24L53,26L46,26L45,25L37,25L36,24L35,24L34,23L33,23L32,22L32,20L33,19L33,17L34,16Z M66,14L95,14L98,17L98,24L97,25L97,26L96,27L96,28L98,30L98,37L97,38L97,39L96,40L91,40L89,38L89,36L88,35L88,32L87,31L87,27L88,26L88,25L89,24L89,22L88,21L87,21L86,22L84,22L83,23L77,23L76,22L73,22L72,21L71,21L70,22L67,22L64,19L65,18L65,17L64,16Z" fill="#4ac34e" fill-rule="evenodd" />
  <path d="M48,16L51,16L54,19L54,21L53,22L52,22L52,26L53,27L53,29L52,30L52,42L53,43L56,43L61,38L62,38L63,37L65,37L66,36L72,36L73,37L74,37L78,41L78,49L79,50L79,52L80,53L80,59L81,60L81,65L80,66L80,69L77,72L77,73L74,76L74,83L73,84L70,84L70,75L73,72L73,71L76,68L76,66L77,65L77,60L76,59L76,55L73,52L73,50L74,49L74,42L73,41L72,41L71,40L65,40L63,42L62,42L61,43L61,46L60,47L60,57L59,58L59,59L58,60L57,60L55,62L52,62L51,63L45,63L44,62L40,62L39,61L38,61L36,59L36,56L37,55L37,53L39,51L39,50L40,49L40,43L39,42L39,41L36,38L27,38L26,39L25,39L21,43L20,43L19,42L12,42L12,38L19,38L20,37L22,37L23,36L24,36L27,33L29,33L30,34L37,34L44,41L44,42L45,43L47,43L48,42L48,22L47,21L45,21L44,20L44,18L45,17L47,17Z M49,47L48,48L45,48L43,50L43,52L41,54L41,56L40,57L40,58L45,58L46,59L49,59L50,58L54,58L55,57L55,55L56,54L56,49L55,48L52,48L51,47Z M59,74L60,74L61,75L63,75L65,77L65,78L64,79L63,79L62,80L61,80L60,79L59,79L57,77L57,76Z" fill="#83e1c3" fill-opacity="0.5" fill-rule="evenodd" />
</svg>