<?xml version="1.0" encoding="UTF-8"?>
<svg xmlns="http://www.w3.org/2000/svg" viewBox="0 0 112 96" width="448" height="384">
  <rect x="0" y="0" width="112" height="96" fill="#347941" />
  <path d="M16,13L96,13L99,16L99,31L98,32L98,33L97,34L96,34L94,36L91,36L90,37L82,37L80,35L77,35L75,33L74,33L72,31L66,31L65,32L53,32L52,33L50,33L49,32L47,32L46,31L33,31L31,33L29,33L26,36L26,37L24,39L18,39L16,37L15,37L14,36L14,33L13,32L13,26L14,25L14,22L13,21L13,16Z" fill="#35a043" fill-rule="evenodd" />
  <path d="M17,14L26,14L27,15L27,26L24,29L20,29L19,30L16,30L14,28L14,27L15,26L15,21L14,20L14,17Z M45,14L75,14L76,15L76,17L74,19L69,19L67,21L64,21L63,20L62,20L61,21L54,21L53,20L52,20L51,19L46,19L44,17L44,15Z M91,14L95,14L98,17L98,24L96,26L95,26L93,24L93,20L92,19L91,19L90,18L90,15Z" fill="#4ac34e" fill-rule="evenodd" />
  <path d="M82,16L83,16L85,18L85,21L83,23L82,23L80,21L80,18Z M22,18L24,18L25,19L30,19L31,20L32,20L35,23L39,23L40,24L41,24L42,25L42,26L44,28L44,35L43,36L43,38L42,39L42,40L46,44L46,47L47,48L53,48L54,49L59,49L60,48L66,48L68,46L69,46L71,44L71,43L70,42L69,42L67,40L61,40L58,37L58,36L57,35L57,31L56,30L56,29L58,27L60,27L62,29L62,30L61,31L61,35L63,37L69,37L70,38L71,38L74,41L74,42L75,43L78,43L79,44L80,44L81,45L81,46L82,47L82,49L83,50L89,50L92,53L92,54L94,56L94,64L93,65L93,67L92,68L92,70L91,71L91,72L90,73L90,85L86,85L86,78L87,77L87,71L88,70L88,69L89,68L89,66L90,65L90,63L91,62L91,58L89,56L89,55L88,54L82,54L79,51L79,49L77,47L73,47L70,50L69,50L67,52L61,52L60,53L53,53L52,52L46,52L43,49L43,46L41,44L39,44L38,45L35,45L34,46L34,47L30,51L30,52L29,53L29,58L31,60L31,61L32,62L32,70L29,73L29,75L27,77L27,78L26,79L26,85L22,85L22,78L23,77L23,76L26,73L26,71L29,68L29,63L27,61L27,60L26,59L26,51L27,50L27,49L28,48L28,47L31,44L31,43L33,41L37,41L38,40L38,39L39,38L39,36L40,35L40,29L39,28L39,27L38,26L34,26L32,24L31,24L30,23L25,23L24,24L23,24L22,23L22,22L21,21L21,19Z M35,53L37,53L39,55L39,56L38,57L38,58L37,59L35,59L34,58L34,54Z" fill="#9CFFE8" fill-opacity="0.77" fill-rule="evenodd" />
</svg>