<?xml version="1.0" encoding="UTF-8"?>
<svg xmlns="http://www.w3.org/2000/svg" viewBox="0 0 112 96" width="448" height="384">
  <rect x="0" y="0" width="112" height="96" fill="#347941" />
  <path d="M16,13L96,13L99,16L99,28L98,29L98,35L97,36L96,36L94,38L91,38L90,39L85,39L84,38L82,38L80,36L76,36L74,38L71,38L70,37L66,37L65,38L62,38L60,40L59,40L58,41L50,41L47,38L47,36L46,35L43,35L41,37L39,37L38,36L35,36L35,37L33,39L27,39L26,38L24,38L23,37L22,37L20,35L19,35L18,34L18,33L16,31L15,31L14,30L14,27L13,26L13,16Z" fill="#35a043" fill-rule="evenodd" />
  <path d="M36,14L78,14L80,16L80,20L78,22L77,22L76,23L76,25L73,28L73,29L72,30L69,30L68,29L64,29L63,30L51,30L50,29L49,29L48,28L45,28L43,26L43,25L42,25L41,24L39,24L38,23L38,20L37,19L36,19L34,17L34,16Z M19,15L22,15L23,16L23,18L24,19L24,24L23,25L21,25L20,26L19,26L18,27L16,27L15,26L15,25L14,24L14,21L15,20L15,19L16,18L16,17L17,16L18,16Z M93,16L96,16L98,18L98,25L97,26L97,29L96,30L93,30L92,29L91,29L90,28L90,27L89,26L89,19L91,17L92,17Z" fill="#4ac34e" fill-rule="evenodd" />
  <path d="M56,21L59,21L60,22L61,22L62,23L62,24L60,26L59,26L58,27L58,33L57,34L57,35L56,36L56,37L57,38L57,42L58,43L58,44L59,45L59,46L60,47L60,48L61,49L65,49L66,48L72,48L76,52L77,52L82,57L83,57L86,60L87,60L88,61L89,61L95,67L95,75L92,78L91,78L90,79L90,85L86,85L86,77L88,75L90,75L91,74L91,68L88,65L87,65L86,64L84,64L82,62L81,62L75,56L74,56L70,52L67,52L66,53L61,53L60,52L59,52L58,51L57,51L56,52L55,52L54,53L50,53L49,52L44,52L43,53L36,53L31,58L30,58L26,62L26,63L25,64L25,66L29,70L29,71L31,73L31,75L30,76L30,77L28,79L27,79L26,80L26,85L22,85L22,78L24,76L25,76L26,75L26,73L21,68L21,62L23,60L23,59L29,53L29,52L27,50L27,44L28,43L28,41L29,40L29,38L27,36L27,33L25,31L25,30L27,28L31,28L32,29L33,29L34,30L34,31L32,33L31,33L31,35L33,37L33,41L32,42L32,43L31,44L31,49L32,50L34,50L35,49L42,49L43,48L51,48L52,49L55,49L56,48L56,47L54,45L54,44L53,43L53,38L52,37L52,36L53,35L53,34L54,33L54,27L53,26L52,26L51,25L51,23L52,22L55,22Z M83,24L87,24L88,25L88,27L87,28L84,28L82,26L82,25Z M68,42L72,42L73,43L73,44L71,46L68,46L67,45L67,43Z" fill="#9CFFE8" fill-opacity="0.77" fill-rule="evenodd" />
</svg>