<?xml version="1.0" encoding="UTF-8"?>
<svg xmlns="http://www.w3.org/2000/svg" viewBox="0 0 112 96" width="448" height="384">
  <rect x="0" y="0" width="112" height="96" fill="#347941" />
  <path d="M33,13L96,13L99,16L99,21L98,22L98,23L99,24L99,33L98,34L97,34L97,37L99,39L99,44L98,45L98,47L99,48L99,51L98,52L98,57L97,58L97,59L95,61L94,61L93,60L92,60L91,61L88,61L86,59L85,59L83,57L83,56L82,56L80,54L78,54L75,51L75,45L74,45L72,43L72,42L69,42L68,43L67,43L65,41L64,41L61,38L61,37L58,34L58,24L57,23L55,23L54,22L52,22L51,23L48,23L47,24L43,24L42,25L39,25L38,24L36,24L34,22L34,21L33,20L33,17L32,16L32,14Z M21,25L29,25L30,26L32,26L34,28L34,33L33,34L33,35L32,36L29,36L28,35L27,35L26,34L22,34L21,33L15,33L13,31L13,28L15,26L20,26Z" fill="#35a043" fill-rule="evenodd" />
  <path d="M47,14L56,14L57,15L57,18L56,19L53,19L52,20L48,20L47,19L47,18L46,17L46,15Z M74,14L95,14L98,17L98,20L97,21L97,25L98,26L98,27L96,29L94,29L93,28L90,28L88,30L86,30L85,31L79,31L77,29L75,29L74,28L74,27L73,26L73,20L72,19L72,16Z" fill="#4ac34e" fill-rule="evenodd" />
  <path d="M26,15L27,15L29,17L29,19L27,21L26,21L24,19L24,17Z M81,19L84,19L85,20L85,21L84,22L84,23L83,24L82,24L81,23L79,23L78,24L77,24L76,25L70,25L69,26L68,26L65,29L64,29L63,30L55,30L54,31L54,32L53,33L53,34L52,35L52,39L50,41L50,44L51,45L52,45L54,47L59,47L60,48L61,48L63,50L63,51L65,53L65,61L66,62L66,63L68,65L68,66L69,67L69,70L73,74L73,78L74,79L74,83L73,84L70,84L70,80L69,79L69,75L66,72L66,69L64,67L64,66L63,65L63,64L62,63L62,56L60,54L60,53L58,51L54,51L53,50L52,50L51,49L50,49L49,48L48,48L45,51L40,51L39,52L31,52L29,50L25,50L24,49L23,49L18,44L17,44L15,42L12,42L12,38L17,38L18,39L18,40L19,41L20,41L24,45L26,45L27,46L30,46L32,48L38,48L39,47L44,47L47,44L47,39L49,37L49,33L50,32L50,31L52,29L52,28L54,26L62,26L63,25L64,25L67,22L68,22L69,21L77,21L78,20L80,20Z M89,37L91,37L92,38L92,42L91,43L89,43L88,42L88,38Z" fill="#83e1c3" fill-opacity="0.5" fill-rule="evenodd" />
</svg>