<?xml version="1.0" encoding="UTF-8"?>
<svg xmlns="http://www.w3.org/2000/svg" viewBox="0 0 112 96" width="448" height="384">
  <rect x="0" y="0" width="112" height="96" fill="#347941" />
  <path d="M28,13L96,13L99,16L99,20L98,21L98,24L99,25L99,46L97,48L97,52L99,54L99,69L98,70L97,70L96,69L96,67L95,66L95,64L93,64L92,63L85,63L84,64L81,64L80,63L80,61L82,59L82,56L83,55L83,53L82,52L81,52L80,51L80,46L79,45L77,45L76,44L76,41L77,40L79,40L80,39L80,36L81,35L81,34L80,33L78,33L74,29L73,29L72,30L70,30L68,32L57,32L56,33L55,33L52,30L48,30L46,28L45,28L43,30L43,31L42,32L39,32L38,31L37,31L36,32L34,30L34,28L32,26L32,23L33,22L33,19L32,18L28,18L27,17L27,14Z" fill="#35a043" fill-rule="evenodd" />
  <path d="M38,14L94,14L95,15L96,15L98,17L98,18L97,19L97,26L98,27L98,33L97,34L97,37L96,38L93,38L92,37L88,37L88,35L87,34L87,33L88,32L91,32L91,25L90,24L90,23L91,22L91,20L90,19L89,19L87,21L86,21L85,22L84,22L83,23L81,23L80,22L76,22L74,20L71,20L69,18L64,18L60,22L60,23L59,24L48,24L47,23L47,22L45,20L45,19L38,19L37,18L37,15Z M89,53L91,53L92,54L95,54L96,55L96,56L97,56L97,59L96,60L93,60L92,59L90,59L89,60L88,60L86,58L86,57L88,55L88,54Z" fill="#4ac34e" fill-rule="evenodd" />
  <path d="M53,17L57,17L58,18L58,19L57,20L57,25L61,25L64,22L71,22L72,23L79,23L81,25L85,25L86,26L92,26L93,25L95,25L96,26L96,30L95,31L93,31L92,30L86,30L85,29L80,29L78,27L71,27L70,26L67,26L64,29L64,32L65,33L65,36L64,37L64,38L65,39L65,42L64,43L60,43L59,42L56,42L55,43L53,43L52,44L52,48L51,49L51,51L52,52L52,59L53,60L67,60L69,62L71,62L72,63L74,63L75,64L75,68L74,69L74,70L73,71L73,76L74,77L74,85L70,85L70,78L69,77L69,70L70,69L70,67L69,66L67,66L66,65L65,65L64,64L53,64L52,65L49,65L47,63L47,60L48,59L48,54L46,52L46,48L48,46L48,44L47,43L45,43L44,42L35,42L32,45L30,45L29,46L24,46L20,42L11,42L11,38L22,38L26,42L28,42L29,41L31,41L34,38L48,38L49,39L52,39L53,38L60,38L60,37L59,36L59,33L60,32L60,29L54,29L53,28L53,20L52,19L52,18Z M21,23L24,23L26,25L26,26L25,27L25,29L24,30L23,30L21,28L21,26L20,25L20,24Z M60,49L63,49L64,50L67,50L68,51L68,52L67,53L66,53L65,54L61,54L60,53L60,52L59,51L59,50Z" fill="#9CFFE8" fill-opacity="0.77" fill-rule="evenodd" />
</svg>