<?xml version="1.0" encoding="UTF-8"?>
<svg xmlns="http://www.w3.org/2000/svg" viewBox="0 0 112 96" width="448" height="384">
  <rect x="0" y="0" width="112" height="96" fill="#347941" />
  <path d="M25,13L96,13L99,16L99,22L98,23L98,24L99,25L99,31L98,32L98,34L99,35L99,41L98,42L98,46L99,47L99,52L98,53L92,53L91,52L89,52L88,53L86,53L85,52L84,52L82,50L82,49L81,48L81,47L80,46L78,46L75,43L75,40L72,37L72,36L70,34L69,34L68,33L64,33L63,32L57,32L54,35L50,35L49,34L44,34L43,35L37,35L35,33L35,32L34,31L33,31L31,29L31,28L30,27L28,27L26,25L26,22L24,20L24,14Z" fill="#35a043" fill-rule="evenodd" />
  <path d="M51,14L95,14L98,17L98,21L97,22L97,25L98,26L98,30L97,31L97,35L98,36L98,39L96,41L96,42L95,43L89,43L86,40L86,36L85,35L80,35L79,34L78,34L76,32L76,31L75,30L75,25L74,24L70,24L69,25L68,25L66,27L59,27L58,28L57,28L55,26L53,26L52,25L52,24L51,23L51,21L50,20L50,15Z" fill="#4ac34e" fill-rule="evenodd" />
  <path d="M68,19L76,19L80,23L80,28L82,30L87,30L91,34L91,38L94,41L94,46L97,49L97,50L98,51L98,57L97,58L97,59L96,60L96,64L94,66L94,67L91,70L83,70L79,74L78,74L75,77L75,78L74,79L74,85L70,85L70,79L71,78L71,76L77,70L78,70L79,69L79,68L76,65L74,65L72,63L68,63L66,61L66,60L65,59L65,51L62,48L58,48L57,49L53,49L50,52L50,53L47,56L38,56L37,57L35,57L34,56L33,56L32,55L31,55L28,52L28,51L27,50L27,49L23,45L23,44L22,43L21,43L20,42L11,42L11,38L23,38L26,41L26,43L31,48L31,49L33,51L34,51L35,52L44,52L46,50L47,50L52,45L53,45L54,44L55,44L56,43L63,43L65,45L65,46L70,51L70,53L69,54L69,58L70,59L73,59L75,61L78,61L82,65L85,65L86,66L90,66L91,65L91,64L92,63L92,59L94,57L94,51L91,48L91,47L90,46L90,41L88,39L88,35L86,33L81,33L77,29L77,24L75,22L69,22L68,23L67,23L66,24L65,24L64,25L60,25L58,23L58,22L60,20L62,20L63,21L65,21L66,20L67,20Z M94,25L95,25L96,26L96,28L95,29L95,30L94,31L93,31L92,30L92,27Z M21,27L22,27L23,28L23,31L21,33L20,33L19,32L19,29Z" fill="#83e1c3" fill-opacity="0.5" fill-rule="evenodd" />
</svg>