<?xml version="1.0" encoding="UTF-8"?>
<svg xmlns="http://www.w3.org/2000/svg" viewBox="0 0 112 96" width="448" height="384">
  <rect x="0" y="0" width="112" height="96" fill="#347941" />
  <path d="M28,13L96,13L99,16L99,44L97,46L96,46L95,47L94,47L93,46L89,46L88,45L86,45L85,44L80,44L79,43L71,43L70,44L69,44L68,43L62,43L61,42L61,41L60,40L58,40L57,39L51,39L48,36L44,36L43,35L38,35L38,36L37,37L36,37L35,36L31,36L28,33L28,31L27,30L27,23L26,22L26,17L27,16L27,14Z" fill="#35a043" fill-rule="evenodd" />
  <path d="M40,14L55,14L56,15L56,18L55,19L55,22L53,24L43,24L42,23L41,23L39,21L39,15Z M82,14L95,14L98,17L98,31L96,33L95,33L94,34L93,34L92,33L91,33L89,31L86,31L85,30L85,27L84,26L84,24L82,22L82,21L81,20L81,15Z" fill="#4ac34e" fill-rule="evenodd" />
  <path d="M70,16L71,16L72,17L74,17L75,18L75,20L74,21L72,21L71,20L70,20L69,19L69,17Z M50,18L51,18L53,20L53,21L52,22L52,26L53,27L54,27L55,28L61,28L63,30L64,30L65,31L65,32L66,33L71,33L72,34L73,34L74,35L74,37L76,39L76,48L78,50L78,51L79,52L79,56L82,59L82,60L83,61L83,69L82,70L82,71L81,72L81,73L78,76L77,76L76,77L75,77L74,78L74,85L70,85L70,78L71,77L71,76L73,74L74,74L75,73L76,73L78,71L78,70L79,69L79,61L77,59L77,58L76,57L76,54L75,53L75,52L74,51L73,51L71,53L66,53L63,56L62,56L61,57L53,57L52,58L51,58L49,60L46,60L45,61L35,61L34,60L31,60L30,59L29,59L26,56L26,49L25,48L25,47L24,46L23,46L22,45L21,45L18,42L11,42L11,38L18,38L20,36L20,30L21,29L21,28L25,24L29,24L30,23L31,23L32,24L32,26L31,27L31,28L30,29L29,29L28,28L25,28L24,29L24,30L23,31L23,38L21,40L21,41L22,42L23,42L24,43L26,43L28,45L28,46L29,47L29,54L31,56L34,56L35,57L36,57L37,58L43,58L45,56L48,56L50,54L51,54L52,53L60,53L61,52L62,52L65,49L68,49L69,48L70,48L72,46L72,39L71,38L71,37L70,36L64,36L63,35L63,34L62,33L61,33L59,31L53,31L52,30L51,30L48,27L48,22L47,21L47,20L48,19L49,19Z M42,44L43,44L44,45L44,49L42,51L41,51L40,50L40,46Z" fill="#83e1c3" fill-opacity="0.5" fill-rule="evenodd" />
</svg>