<?xml version="1.0" encoding="UTF-8"?>
<svg xmlns="http://www.w3.org/2000/svg" viewBox="0 0 112 96" width="448" height="384">
  <rect x="0" y="0" width="112" height="96" fill="#347941" />
  <path d="M16,13L96,13L99,16L99,31L98,32L98,38L99,39L99,42L98,43L98,44L96,46L93,46L92,47L91,47L90,48L84,48L82,50L79,50L78,51L73,51L71,49L71,48L69,46L69,41L70,40L70,36L71,35L71,27L70,26L70,25L69,24L64,24L62,26L62,28L60,30L57,30L56,31L42,31L41,30L31,30L29,32L27,32L26,31L25,31L24,32L16,32L14,30L14,26L13,25L13,16Z" fill="#35a043" fill-rule="evenodd" />
  <path d="M17,14L26,14L28,16L28,23L27,24L27,25L26,26L23,26L22,27L16,27L15,26L15,23L14,22L14,17Z M69,14L95,14L98,17L98,26L97,27L97,30L95,32L90,32L89,31L89,27L86,24L80,24L78,22L78,21L77,20L75,20L74,19L69,19L68,18L68,15Z" fill="#4ac34e" fill-rule="evenodd" />
  <path d="M26,17L30,17L31,18L32,18L33,19L36,19L38,21L46,21L47,22L48,22L51,25L51,26L52,27L52,35L51,36L51,38L50,39L50,41L51,42L51,43L53,45L53,47L54,48L54,56L57,59L61,59L62,60L67,60L68,59L77,59L78,60L79,60L82,63L82,70L83,71L83,73L82,74L81,74L80,75L80,76L79,77L76,77L75,78L75,79L74,80L74,85L70,85L70,78L72,76L72,75L73,74L74,74L75,73L77,73L78,72L78,71L79,70L79,65L78,64L77,64L76,63L69,63L68,64L61,64L60,63L56,63L51,58L51,57L50,56L50,48L48,46L48,44L47,43L47,42L46,41L40,41L38,43L38,44L35,47L35,48L34,49L34,56L32,58L31,58L29,60L23,60L20,57L20,56L19,55L19,47L18,46L18,44L16,42L11,42L11,38L17,38L21,42L21,43L22,44L22,52L23,53L23,55L24,56L28,56L29,55L30,55L31,54L31,47L32,46L32,45L35,42L35,41L39,37L46,37L47,36L47,35L48,34L48,27L47,26L46,26L44,24L37,24L36,23L35,23L34,22L31,22L30,21L26,21L25,22L24,22L23,23L21,23L20,22L20,19L21,18L22,18L23,19L24,19Z M91,20L93,20L95,22L95,25L94,26L92,26L91,25L91,24L90,23L90,21Z M65,30L67,30L68,31L68,33L65,36L63,36L62,35L62,34L64,32L64,31Z" fill="#9CFFE8" fill-opacity="0.77" fill-rule="evenodd" />
</svg>