<?xml version="1.0" encoding="UTF-8"?>
<svg xmlns="http://www.w3.org/2000/svg" viewBox="0 0 112 96" width="448" height="384">
  <rect x="0" y="0" width="112" height="96" fill="#347941" />
  <path d="M17,13L90,13L91,14L91,21L89,23L89,28L88,29L88,30L86,32L86,33L85,34L84,34L83,33L77,33L74,36L69,36L67,38L66,38L65,39L63,39L62,38L48,38L45,35L42,35L41,34L41,33L39,31L35,31L32,34L31,34L30,35L23,35L21,33L18,33L17,32L15,32L13,30L13,28L14,27L14,25L13,24L13,18L14,17L14,16Z M81,40L92,40L95,43L98,43L99,44L99,48L98,49L98,51L99,52L99,55L97,57L94,57L92,59L90,59L88,61L87,61L86,62L85,62L84,61L81,61L80,60L80,59L79,59L77,57L77,56L76,55L76,53L75,52L75,49L78,46L78,43Z" fill="#35a043" fill-rule="evenodd" />
  <path d="M24,14L44,14L45,15L45,21L43,23L42,23L41,24L41,25L40,26L39,26L38,25L35,25L34,24L32,24L31,25L28,25L27,24L27,23L26,23L25,22L23,22L22,21L22,19L23,18L23,15Z M70,14L89,14L90,15L90,20L87,23L81,23L80,22L79,22L78,23L74,23L73,22L72,22L70,20L70,19L69,18L69,15Z M93,44L97,44L98,45L98,47L97,48L97,52L98,53L98,54L96,56L92,56L91,55L91,52L90,51L90,48L91,47L91,46Z" fill="#4ac34e" fill-rule="evenodd" />
  <path d="M38,16L39,16L40,17L41,17L42,16L48,16L51,19L51,20L52,21L52,25L54,27L55,27L57,29L57,31L58,32L58,40L57,41L57,42L59,44L60,44L62,46L64,46L66,48L66,57L64,59L64,60L63,61L63,66L64,67L64,68L66,70L68,70L70,72L71,72L72,73L72,74L74,76L74,85L70,85L70,77L67,74L65,74L60,69L60,68L59,67L59,60L60,59L60,58L61,57L61,56L62,55L62,50L61,49L60,49L58,47L57,47L56,46L54,46L53,47L49,47L48,48L48,51L46,53L43,53L42,54L34,54L33,55L32,55L30,53L24,53L23,52L21,52L19,50L19,46L18,45L18,44L16,42L11,42L11,38L18,38L20,40L20,41L22,43L22,47L24,49L33,49L34,50L39,50L40,49L44,49L45,48L45,46L48,43L52,43L53,42L53,41L54,40L54,31L53,30L52,30L50,28L50,27L49,26L49,22L47,20L44,20L43,19L42,19L41,20L39,20L38,21L37,21L35,19L35,18L36,17L37,17Z M34,39L36,39L38,41L38,45L37,46L36,46L34,44L34,42L33,41L33,40Z M85,51L86,51L88,53L88,56L86,58L85,58L84,57L84,56L83,55L83,54L84,53L84,52Z" fill="#83e1c3" fill-opacity="0.5" fill-rule="evenodd" />
</svg>