<?xml version="1.0" encoding="UTF-8"?>
<svg xmlns="http://www.w3.org/2000/svg" viewBox="0 0 112 96" width="448" height="384">
  <rect x="0" y="0" width="112" height="96" fill="#347941" />
  <path d="M24,13L96,13L99,16L99,20L98,21L98,25L97,26L97,27L98,28L98,35L99,36L99,53L98,54L98,55L99,56L99,61L97,63L91,63L89,61L84,61L80,57L80,52L78,50L78,43L77,42L77,32L76,31L72,31L71,30L65,30L64,29L63,29L62,28L59,28L57,30L54,30L53,29L53,28L52,28L51,27L50,27L49,26L42,26L41,25L35,25L34,24L33,24L31,22L28,22L25,19L25,18L23,16L23,14Z M15,25L18,25L19,26L21,26L23,28L24,28L25,29L26,29L28,31L28,33L26,35L22,35L20,33L15,33L13,31L13,27Z" fill="#35a043" fill-rule="evenodd" />
  <path d="M56,14L79,14L80,15L80,22L78,24L76,24L75,25L72,25L71,24L67,24L66,23L65,23L64,22L60,22L58,20L58,19L55,16L55,15Z M87,37L96,37L97,38L97,41L98,42L98,50L96,52L94,52L93,51L90,51L87,48L87,47L85,45L85,39Z" fill="#4ac34e" fill-rule="evenodd" />
  <path d="M17,16L19,16L20,17L20,18L21,19L21,21L20,22L18,22L16,20L16,17Z M72,16L73,16L74,17L77,17L78,16L82,16L85,19L85,20L86,21L86,29L84,31L84,32L83,33L83,34L81,36L75,36L74,37L73,37L72,38L66,38L65,39L65,42L64,43L64,49L63,50L63,51L62,52L62,54L63,55L64,55L65,56L66,56L70,60L71,60L74,63L74,65L76,67L76,74L75,75L75,76L74,77L74,85L70,85L70,76L71,75L71,74L72,73L72,68L70,66L70,65L69,64L68,64L63,59L62,59L60,57L58,57L57,56L56,56L55,55L52,55L51,54L49,54L48,53L41,53L40,52L39,52L38,51L37,51L35,49L30,49L29,48L28,48L24,44L21,44L20,43L19,43L18,42L11,42L11,38L19,38L20,39L21,39L22,40L25,40L29,44L31,44L32,45L36,45L38,47L39,47L40,48L42,48L43,49L50,49L51,50L53,50L54,51L56,51L57,52L58,52L59,51L59,49L60,48L60,42L61,41L61,40L62,39L62,37L65,34L71,34L72,33L73,33L74,32L80,32L81,31L81,29L83,27L83,23L82,22L82,21L81,20L78,20L77,21L74,21L73,22L72,22L69,19L69,18L70,17L71,17Z M90,41L92,41L93,42L94,42L95,43L95,45L94,46L92,46L91,45L90,45L89,44L89,42Z" fill="#83e1c3" fill-opacity="0.5" fill-rule="evenodd" />
</svg>