<?xml version="1.0" encoding="UTF-8"?>
<svg xmlns="http://www.w3.org/2000/svg" viewBox="0 0 112 96" width="448" height="384">
  <rect x="0" y="0" width="112" height="96" fill="#347941" />
  <path d="M16,13L96,13L99,16L98,17L98,18L99,19L99,27L98,28L97,28L96,29L95,29L94,30L94,31L93,32L93,33L91,35L88,35L87,36L85,36L84,35L83,35L82,36L81,36L79,34L78,34L77,33L69,33L68,34L67,34L66,33L65,33L64,32L63,32L62,33L59,33L58,34L54,34L53,35L49,35L48,36L43,36L42,37L41,37L40,36L35,36L34,37L26,37L25,36L24,36L23,35L23,34L20,31L20,30L19,29L16,29L15,28L13,28L13,16Z" fill="#35a043" fill-rule="evenodd" />
  <path d="M17,14L27,14L28,15L28,19L25,22L23,22L21,24L15,24L14,23L14,17Z M66,14L86,14L88,16L88,23L87,24L87,26L86,27L85,27L84,28L84,29L83,30L79,30L78,29L68,29L67,28L66,28L65,27L65,26L64,25L64,16Z" fill="#4ac34e" fill-rule="evenodd" />
  <path d="M58,17L71,17L72,18L73,18L76,21L79,21L80,20L80,19L81,18L84,18L86,20L86,21L85,22L85,24L83,26L81,26L80,25L75,25L72,22L71,22L70,21L60,21L58,23L58,27L56,29L55,29L53,31L53,40L54,41L58,41L59,40L67,40L68,41L69,41L70,42L71,42L74,45L74,49L75,50L79,50L80,51L82,51L87,56L88,56L89,57L91,57L93,59L93,60L94,61L94,67L93,68L93,69L92,70L92,74L89,77L89,78L90,79L90,85L86,85L86,79L85,78L85,76L88,73L88,70L89,69L89,68L90,67L90,62L89,61L88,61L86,59L85,59L81,55L80,55L79,54L70,54L69,55L67,55L63,59L55,59L54,58L52,58L51,59L50,59L49,58L48,58L44,54L44,53L43,52L43,48L41,46L39,46L38,45L32,45L31,44L30,44L29,45L29,46L27,48L27,49L26,50L26,57L25,58L25,60L24,61L24,63L26,65L29,65L30,66L31,66L33,68L33,69L35,71L35,75L31,79L29,79L28,78L27,78L26,79L26,85L22,85L22,78L23,77L23,76L24,75L25,75L26,74L27,74L28,75L30,75L31,74L31,72L30,71L30,70L29,69L25,69L22,66L21,66L20,65L20,60L21,59L21,58L22,57L22,49L23,48L23,47L24,46L24,45L28,41L28,40L29,39L29,30L30,29L30,28L32,26L33,26L34,25L34,24L32,22L32,20L33,19L37,19L38,18L41,18L43,20L43,22L42,23L39,23L38,24L38,26L35,29L34,29L33,30L33,40L34,41L38,41L39,42L41,42L42,43L44,43L46,45L46,46L47,47L47,52L49,54L54,54L55,55L62,55L67,50L69,50L70,49L70,46L69,45L67,45L66,44L59,44L58,45L53,45L51,43L50,43L49,42L49,29L52,26L53,26L54,25L54,22L56,20L56,19Z M88,40L90,40L92,42L92,43L90,45L90,46L89,47L88,47L87,46L87,45L86,44L86,42Z" fill="#83e1c3" fill-opacity="0.5" fill-rule="evenodd" />
</svg>