<?xml version="1.0" encoding="UTF-8"?>
<svg xmlns="http://www.w3.org/2000/svg" viewBox="0 0 112 96" width="448" height="384">
  <rect x="0" y="0" width="112" height="96" fill="#347941" />
  <path d="M23,13L96,13L99,16L99,27L97,29L97,30L99,32L99,37L98,38L98,40L99,41L99,45L97,47L96,47L95,48L88,48L87,47L84,47L83,48L79,48L77,46L71,46L67,42L65,42L62,39L62,36L60,34L60,25L58,23L56,23L55,22L51,22L50,23L47,23L46,22L45,22L44,23L35,23L33,25L31,25L30,26L24,26L23,25L23,24L21,22L21,15Z M94,59L97,59L99,61L99,70L97,72L90,72L87,69L87,62L89,60L93,60Z" fill="#35a043" fill-rule="evenodd" />
  <path d="M66,14L95,14L98,17L98,24L97,25L93,25L91,27L91,32L90,33L90,34L87,37L81,37L80,36L80,34L79,33L79,30L75,26L75,21L74,20L73,20L72,19L67,19L65,17L65,15Z" fill="#4ac34e" fill-rule="evenodd" />
  <path d="M36,17L37,17L38,18L41,18L42,19L42,20L41,21L41,25L42,26L42,27L44,29L50,29L51,28L52,28L54,26L62,26L63,25L67,25L68,24L70,24L71,23L72,23L74,21L77,21L78,20L79,20L80,21L81,21L82,22L82,23L81,24L81,25L80,26L79,26L78,25L74,25L72,27L71,27L70,28L68,28L67,29L64,29L63,30L55,30L53,32L52,32L51,33L45,33L44,34L44,37L46,39L47,39L49,41L49,42L50,43L50,49L51,50L51,51L53,53L53,54L54,55L54,57L56,59L63,59L64,60L67,60L69,62L71,62L75,66L75,69L76,70L76,76L75,77L75,78L74,79L74,85L70,85L70,79L71,78L71,77L72,76L72,71L71,70L71,68L69,66L68,66L66,64L63,64L62,63L55,63L51,59L51,57L50,56L50,55L48,53L48,52L47,51L47,44L46,43L45,43L43,41L41,41L40,42L39,42L38,43L36,43L34,45L33,45L32,46L22,46L21,45L20,45L19,44L18,44L16,42L11,42L11,38L17,38L19,40L20,40L21,41L22,41L23,42L31,42L32,41L33,41L35,39L37,39L38,38L39,38L41,36L41,31L39,29L39,28L37,26L37,22L36,21L35,21L34,20L34,19Z M26,51L27,51L28,52L29,52L30,53L30,57L29,58L27,58L26,57L26,55L25,54L25,52Z M90,51L94,51L95,52L95,54L94,55L93,55L92,56L89,56L88,55L88,53Z" fill="#83e1c3" fill-opacity="0.5" fill-rule="evenodd" />
</svg>