<?xml version="1.0" encoding="UTF-8"?>
<svg xmlns="http://www.w3.org/2000/svg" viewBox="0 0 112 96" width="448" height="384">
  <rect x="0" y="0" width="112" height="96" fill="#347941" />
  <path d="M16,13L96,13L99,16L99,21L98,22L98,24L97,25L96,25L95,26L90,26L88,28L85,28L85,29L84,30L72,30L70,32L69,31L68,31L68,32L65,35L62,35L60,37L47,37L46,36L46,35L45,34L45,32L43,30L38,30L37,31L36,31L34,33L32,33L31,34L30,34L29,35L27,35L26,36L20,36L18,34L17,34L16,33L14,33L13,32L13,28L14,27L14,24L13,23L13,21L14,20L14,19L13,18L13,16Z" fill="#35a043" fill-rule="evenodd" />
  <path d="M17,14L84,14L85,15L85,18L83,20L82,20L81,21L72,21L71,22L70,22L69,23L68,23L67,24L66,24L65,25L64,25L64,26L62,28L48,28L47,27L46,27L45,26L44,26L43,25L39,25L37,23L32,23L30,21L24,21L23,22L22,22L21,23L16,23L14,21L14,17Z" fill="#4ac34e" fill-rule="evenodd" />
  <path d="M46,16L48,16L49,17L51,17L52,18L54,18L56,20L56,21L58,23L58,31L56,33L56,34L55,35L55,42L56,43L56,44L58,46L59,46L60,47L65,47L66,48L67,48L68,49L68,51L69,52L72,52L73,51L77,51L78,52L79,52L81,54L81,55L82,56L84,56L85,55L85,48L86,47L86,42L85,41L85,40L84,39L79,39L76,36L76,35L75,34L75,27L74,26L73,26L72,25L72,23L73,22L81,22L82,23L82,25L81,26L80,26L79,27L79,34L80,35L82,35L83,34L85,34L86,35L86,36L87,37L88,37L89,38L89,40L90,41L90,48L89,49L89,56L90,57L90,59L91,60L91,61L92,62L92,68L91,69L91,72L90,73L90,74L89,75L89,78L90,79L90,85L86,85L86,79L85,78L85,75L86,74L86,72L87,71L87,69L88,68L88,63L87,62L87,61L86,60L81,60L78,57L78,56L77,55L73,55L72,56L69,56L68,55L67,55L65,53L65,52L64,51L59,51L58,50L57,50L53,46L50,46L49,47L42,47L41,48L41,49L40,50L40,58L39,59L39,60L37,62L28,62L27,63L26,63L24,65L24,66L23,67L23,72L24,73L24,74L25,75L25,76L26,77L26,85L22,85L22,77L21,76L21,75L19,73L19,66L21,64L21,62L23,60L24,60L26,58L32,58L33,57L35,57L36,56L36,49L38,47L38,46L41,43L48,43L49,42L50,42L51,41L51,33L52,32L52,31L54,29L54,24L52,22L50,22L49,23L48,23L47,22L46,22L44,20L44,18Z M17,38L19,38L20,39L21,39L23,41L23,43L22,44L21,44L20,43L19,43L16,40L16,39Z M95,50L96,50L97,51L97,53L98,54L98,55L97,56L96,56L94,58L93,58L92,57L92,56L93,55L93,53L94,52L94,51Z" fill="#9CFFE8" fill-opacity="0.77" fill-rule="evenodd" />
</svg>