<?xml version="1.0" encoding="UTF-8"?>
<svg xmlns="http://www.w3.org/2000/svg" viewBox="0 0 112 96" width="448" height="384">
  <rect x="0" y="0" width="112" height="96" fill="#347941" />
  <path d="M16,13L96,13L99,16L99,29L98,30L97,30L95,32L95,33L93,35L80,35L79,34L78,34L76,32L69,32L68,33L68,34L67,35L65,35L64,36L62,36L58,32L57,32L56,31L55,31L54,30L47,30L46,29L44,29L42,27L40,27L39,26L36,26L35,27L35,39L34,40L34,41L32,43L32,44L31,45L30,45L29,44L28,44L26,46L23,46L22,47L17,47L13,43L13,38L15,36L15,34L14,33L14,27L13,26L13,16Z M90,44L96,44L98,46L98,49L99,50L99,56L98,57L97,57L97,58L98,59L98,60L97,61L95,61L94,62L93,62L91,60L90,60L89,59L89,58L87,56L87,50L88,49L88,48L89,47L89,45Z" fill="#35a043" fill-rule="evenodd" />
  <path d="M17,14L19,14L20,15L20,20L21,21L21,23L20,24L20,25L19,26L19,30L18,31L16,31L15,30L15,25L14,24L14,17Z M46,14L64,14L67,17L72,17L73,16L73,15L74,14L95,14L98,17L98,22L95,25L94,25L93,26L80,26L79,25L79,24L76,21L67,21L66,22L66,23L65,24L59,24L58,25L57,25L56,26L55,26L54,27L53,27L52,26L47,26L46,25L45,25L43,23L43,16L44,15L45,15Z" fill="#4ac34e" fill-rule="evenodd" />
  <path d="M39,16L40,16L41,17L54,17L55,16L57,16L58,17L58,22L57,23L56,23L54,21L41,21L40,20L39,20L36,23L35,23L32,26L32,31L33,32L40,32L41,31L44,31L46,33L49,33L52,36L52,40L53,41L55,41L56,42L57,42L58,43L59,43L61,45L65,45L66,44L67,44L68,43L75,43L76,44L77,44L80,47L80,53L79,54L79,57L78,58L78,63L79,64L79,65L82,68L86,68L91,73L91,76L90,77L90,83L89,84L86,84L86,74L84,72L79,72L75,68L75,65L74,64L74,56L75,55L75,52L76,51L76,49L74,47L70,47L68,49L59,49L56,46L55,46L54,45L52,45L51,44L49,44L47,46L45,46L42,49L42,50L40,52L40,56L39,57L39,58L35,62L29,62L26,65L26,69L24,71L24,76L26,78L26,84L22,84L22,80L20,78L20,69L22,67L22,63L26,59L27,59L28,58L32,58L33,57L34,57L36,55L36,50L39,47L39,46L43,42L46,42L48,40L48,39L46,37L45,37L43,35L42,35L41,36L31,36L30,35L30,34L28,32L28,25L34,19L35,19L36,18L37,18Z M84,18L90,18L91,19L91,21L89,23L89,35L90,35L91,36L91,38L90,39L83,39L82,38L82,36L83,35L85,35L85,23L83,21L83,19Z M20,49L22,49L24,51L25,51L26,52L26,54L25,55L23,55L21,53L20,53L19,52L19,50Z M79,75L82,75L83,76L83,78L80,81L78,81L77,80L77,78L78,77L78,76Z" fill="#83e1c3" fill-opacity="0.5" fill-rule="evenodd" />
</svg>