<?xml version="1.0" encoding="UTF-8"?>
<svg xmlns="http://www.w3.org/2000/svg" viewBox="0 0 112 96" width="448" height="384">
  <rect x="0" y="0" width="112" height="96" fill="#347941" />
  <path d="M16,13L17,14L18,14L19,13L96,13L99,16L99,24L98,25L98,27L99,28L99,31L98,32L98,33L99,34L99,38L98,39L93,39L92,38L92,36L91,36L90,35L79,35L78,34L77,34L76,35L75,35L74,34L75,33L75,32L74,32L73,31L71,31L70,30L69,30L68,29L68,28L64,28L63,27L60,27L59,28L55,28L55,29L52,32L49,32L48,33L46,33L45,32L41,32L37,36L32,36L31,35L30,35L29,36L21,36L18,33L17,33L16,32L15,32L13,30L13,27L14,26L14,24L13,23L13,16Z" fill="#35a043" fill-rule="evenodd" />
  <path d="M35,14L95,14L98,17L98,21L97,22L95,22L93,24L79,24L78,23L76,23L75,22L74,22L73,21L72,21L70,19L66,19L64,21L57,21L53,25L49,25L47,27L47,28L46,29L38,29L35,26L35,24L36,23L36,19L35,18Z" fill="#4ac34e" fill-rule="evenodd" />
  <path d="M42,16L43,16L44,17L44,20L46,22L46,24L44,26L42,26L41,25L41,24L40,23L32,23L29,26L29,38L30,39L31,39L33,41L33,46L34,47L35,47L37,49L46,49L47,48L48,48L50,46L54,46L55,45L55,40L58,37L69,37L71,39L78,39L79,38L79,32L80,31L80,30L82,28L82,21L80,19L80,17L81,16L88,16L89,17L89,19L88,20L87,20L86,21L86,29L84,31L84,32L83,33L83,40L81,42L80,42L79,43L70,43L68,41L60,41L59,42L59,45L60,46L63,46L65,48L66,48L68,50L78,50L79,51L80,51L81,52L88,52L90,54L90,55L91,56L91,57L92,58L92,65L90,67L90,74L91,75L91,81L90,82L90,83L89,84L86,84L86,82L87,81L87,76L86,75L86,66L88,64L88,59L87,58L87,57L86,56L79,56L78,55L77,55L76,54L66,54L64,52L63,52L62,51L61,51L60,50L51,50L49,52L48,52L47,53L35,53L34,52L33,52L31,50L30,50L29,51L28,51L25,54L25,58L28,61L28,65L29,66L29,69L26,72L26,79L27,80L27,81L26,82L26,84L22,84L22,82L23,81L23,80L22,79L22,71L25,68L25,66L24,65L24,62L21,59L21,52L26,47L28,47L29,46L29,43L28,42L27,42L25,40L25,24L30,19L40,19L41,18L41,17Z M17,38L18,38L19,39L19,40L20,40L21,41L21,42L22,43L22,45L21,46L20,46L19,45L18,45L17,44L17,43L16,43L15,42L15,41L16,40L16,39Z M91,42L92,42L93,43L93,46L92,47L92,48L91,49L88,49L87,48L87,46L88,45L89,45L90,44L90,43Z" fill="#83e1c3" fill-opacity="0.5" fill-rule="evenodd" />
</svg>