<?xml version="1.0" encoding="UTF-8"?>
<svg xmlns="http://www.w3.org/2000/svg" viewBox="0 0 112 96" width="448" height="384">
  <rect x="0" y="0" width="112" height="96" fill="#347941" />
  <path d="M16,13L93,13L95,15L95,21L92,24L92,25L90,27L84,27L83,26L82,26L81,25L77,25L76,26L72,26L71,27L70,27L69,28L64,28L63,29L63,34L62,35L60,35L59,36L58,36L57,37L54,37L53,38L48,38L46,40L46,44L45,45L44,45L42,47L41,47L38,50L32,50L30,48L28,48L27,47L27,45L24,42L19,42L15,38L15,36L13,34L13,30L14,29L14,26L13,25L13,16Z" fill="#35a043" fill-rule="evenodd" />
  <path d="M17,14L36,14L37,15L37,19L34,22L33,22L32,23L22,23L21,24L21,26L19,28L16,28L15,27L15,25L14,24L14,17Z M56,14L71,14L72,15L72,16L70,18L70,19L69,20L65,20L64,21L61,21L60,20L59,20L58,19L57,19L55,17L55,15Z" fill="#4ac34e" fill-rule="evenodd" />
  <path d="M81,16L83,16L84,17L84,19L83,20L82,20L81,21L78,21L77,20L77,18L78,17L80,17Z M25,17L26,17L27,18L28,18L29,19L29,20L28,21L28,24L29,25L29,26L31,28L37,28L38,27L39,27L42,24L50,24L53,27L54,27L55,28L58,28L59,29L65,29L67,31L69,31L74,36L74,39L75,40L77,40L78,41L82,41L83,42L84,42L85,43L86,43L89,46L89,49L92,52L92,54L93,55L93,62L94,63L94,69L92,71L92,72L91,73L91,77L90,78L90,83L89,84L86,84L86,77L87,76L87,72L88,71L88,70L91,67L91,65L90,64L90,57L89,56L89,54L86,51L86,48L85,47L84,47L83,46L82,46L81,45L78,45L77,44L74,44L70,48L70,53L67,56L66,56L65,57L64,57L63,58L60,58L57,61L56,61L55,60L47,60L46,59L44,59L42,57L37,57L33,61L28,61L26,63L26,68L24,70L24,71L23,72L23,76L26,79L26,84L22,84L22,80L20,78L20,70L21,69L21,68L23,66L23,61L26,58L30,58L31,57L32,57L35,54L44,54L45,55L47,55L49,57L55,57L56,56L57,56L59,54L63,54L65,52L66,52L67,51L67,46L71,42L71,38L68,35L66,35L64,33L59,33L58,32L54,32L53,31L52,31L49,28L43,28L40,31L39,31L38,32L30,32L26,28L26,27L24,25L24,22L23,21L23,19Z M90,33L92,33L93,34L93,35L94,36L94,39L93,40L91,40L90,39L90,36L89,35L89,34Z" fill="#83e1c3" fill-opacity="0.5" fill-rule="evenodd" />
</svg>