<?xml version="1.0" encoding="UTF-8"?>
<svg xmlns="http://www.w3.org/2000/svg" viewBox="0 0 112 96" width="448" height="384">
  <rect x="0" y="0" width="112" height="96" fill="#347941" />
  <path d="M17,13L95,13L99,17L99,29L98,30L98,35L99,36L99,41L97,43L96,43L94,45L94,49L93,50L93,52L90,55L89,55L88,56L87,56L86,55L80,55L77,52L77,42L76,42L74,40L73,40L72,39L71,39L70,38L70,36L67,33L60,33L59,32L56,32L55,33L44,33L43,32L37,32L35,30L35,29L34,28L30,28L29,29L28,29L26,31L22,31L21,30L20,30L19,29L17,29L16,28L16,27L15,26L15,23L14,22L14,19L16,17L16,14Z" fill="#35a043" fill-rule="evenodd" />
  <path d="M34,14L55,14L56,15L56,21L55,22L55,25L53,27L45,27L44,26L44,25L43,24L41,24L39,22L35,22L34,21L34,20L33,19L33,15Z M76,14L94,14L98,18L98,24L95,27L92,27L90,29L90,30L87,33L77,33L75,31L73,31L72,30L72,25L73,24L75,24L75,22L74,21L74,18L75,17L75,15Z" fill="#4ac34e" fill-rule="evenodd" />
  <path d="M86,16L90,16L92,18L92,19L90,21L90,23L86,27L86,28L84,30L84,35L86,37L86,45L82,49L81,49L80,50L73,50L69,54L69,55L72,58L72,66L73,67L73,69L72,70L71,70L70,71L70,76L74,80L74,85L70,85L70,81L66,77L66,70L69,67L69,61L68,60L68,59L66,57L66,55L65,54L63,54L61,52L61,51L56,46L56,42L55,41L51,41L49,39L48,39L46,41L45,41L44,42L44,44L39,49L36,49L34,51L26,51L21,46L20,46L16,42L11,42L11,38L17,38L19,40L21,40L23,42L23,43L27,47L32,47L33,46L34,46L35,45L38,45L41,42L41,40L44,37L45,37L46,36L46,24L47,23L47,21L46,21L45,20L45,19L46,18L47,18L48,17L50,17L51,18L51,20L50,21L50,35L52,37L56,37L59,40L59,44L66,51L67,51L72,46L79,46L80,45L81,45L83,43L83,40L80,37L80,30L79,29L75,29L75,30L74,31L73,31L72,30L72,25L73,24L74,24L75,25L79,25L81,27L82,27L83,26L83,25L87,21L87,20L85,18L85,17Z M22,17L23,17L24,18L24,19L23,20L23,23L24,24L24,25L23,26L22,26L20,24L20,19Z M66,40L67,40L68,41L68,46L67,47L66,47L64,45L64,42Z" fill="#9CFFE8" fill-opacity="0.77" fill-rule="evenodd" />
</svg>