<?xml version="1.0" encoding="UTF-8"?>
<svg xmlns="http://www.w3.org/2000/svg" viewBox="0 0 112 96" width="448" height="384">
  <rect x="0" y="0" width="112" height="96" fill="#347941" />
  <path d="M33,13L96,13L99,16L99,51L98,52L97,52L96,53L93,53L92,52L91,52L90,53L87,53L86,52L85,52L84,51L83,51L79,47L79,45L78,44L78,41L82,37L82,34L80,32L80,31L79,30L79,28L78,28L77,27L72,27L71,26L62,26L59,29L59,30L58,31L58,33L59,34L59,36L58,37L58,38L57,39L56,39L54,41L53,41L52,42L43,42L42,41L41,41L38,38L38,37L36,35L36,33L35,32L35,31L34,30L34,28L32,26L32,24L31,23L31,22L30,21L30,17L31,16L31,15Z M85,57L91,57L92,58L93,58L94,59L98,59L99,60L99,62L98,63L98,72L95,75L95,76L94,77L91,77L90,78L87,78L86,77L83,77L81,75L81,74L80,73L80,71L81,70L81,69L80,68L80,64L79,63L79,62L81,60L81,59L82,58L84,58Z" fill="#35a043" fill-rule="evenodd" />
  <path d="M40,14L57,14L59,16L59,17L60,18L60,19L58,21L58,22L57,23L57,24L55,26L46,26L45,27L40,27L39,26L39,25L37,23L37,21L38,20L38,17L39,16L39,15Z M87,14L95,14L97,16L97,17L96,18L96,22L97,23L97,26L96,27L96,32L97,33L97,43L98,44L98,48L97,49L94,49L93,50L89,50L88,49L87,49L84,46L84,44L86,42L86,41L87,40L87,37L85,35L85,33L84,32L84,29L83,28L83,25L81,23L81,21L84,18L84,17Z M91,59L92,59L93,60L95,60L97,62L97,64L96,65L96,67L97,68L97,69L96,70L95,70L93,72L89,72L88,71L88,70L87,69L87,68L86,68L85,67L85,64L87,62L88,62Z" fill="#4ac34e" fill-rule="evenodd" />
  <path d="M70,17L73,17L74,18L74,20L73,21L72,21L70,23L70,29L69,30L69,32L70,33L70,35L69,36L69,37L70,38L70,39L71,40L72,40L74,42L74,43L77,46L77,49L78,50L78,53L76,55L75,55L74,56L73,56L69,60L69,62L71,64L71,65L72,66L72,71L70,73L68,73L67,74L67,75L68,76L71,76L72,77L73,77L74,78L74,85L70,85L70,81L68,79L66,79L65,78L64,78L62,76L62,74L65,71L67,71L68,70L68,66L67,65L67,64L66,63L64,63L63,62L62,62L61,61L59,61L57,59L56,59L54,57L54,55L55,54L55,53L54,52L54,51L53,50L50,50L48,48L47,48L46,47L44,47L43,48L42,48L41,49L35,49L34,48L28,48L23,43L17,43L16,42L11,42L11,38L17,38L18,39L23,39L24,40L25,40L30,45L35,45L36,46L39,46L40,45L41,45L43,43L43,40L42,39L42,35L43,34L43,33L44,32L45,32L47,30L47,29L46,28L46,24L44,22L44,21L45,20L46,20L47,19L49,19L51,21L51,23L50,24L50,27L51,28L51,32L49,34L47,34L46,35L46,37L47,38L47,43L49,45L50,45L52,47L54,47L56,45L57,45L58,44L59,44L62,41L62,40L63,39L65,39L66,38L66,34L65,33L65,30L66,29L66,23L65,22L65,20L66,19L68,19Z M91,27L92,27L94,29L94,32L93,33L91,33L90,32L90,28Z M32,36L33,36L35,38L35,40L33,42L32,42L31,41L31,37Z M68,42L67,42L65,44L64,44L61,47L60,47L58,49L58,51L59,52L59,54L58,55L58,56L59,57L61,57L63,59L65,59L71,53L72,53L73,52L73,51L74,50L74,48L71,45L71,44L70,43L69,43Z" fill="#9CFFE8" fill-opacity="0.77" fill-rule="evenodd" />
</svg>