<?xml version="1.0" encoding="UTF-8"?>
<svg xmlns="http://www.w3.org/2000/svg" viewBox="0 0 112 96" width="448" height="384">
  <rect x="0" y="0" width="112" height="96" fill="#347941" />
  <path d="M16,13L96,13L99,16L99,18L98,19L98,20L99,21L99,25L98,26L98,27L99,28L99,30L98,31L94,31L93,30L92,30L91,29L91,28L90,28L89,29L87,29L86,28L85,28L83,26L79,26L78,25L76,25L75,24L74,24L73,25L71,25L70,26L69,26L69,30L70,31L70,36L69,37L68,37L67,38L67,39L66,40L62,40L60,38L59,38L58,39L57,38L54,38L52,36L51,36L50,35L45,35L44,34L42,34L41,35L26,35L24,37L22,37L20,39L14,39L13,38L13,29L14,28L14,26L13,25L13,16Z" fill="#35a043" fill-rule="evenodd" />
  <path d="M17,14L25,14L26,15L26,25L25,26L25,27L24,28L23,28L22,29L21,29L20,30L20,37L19,38L15,38L14,37L14,31L16,29L16,25L14,23L14,17Z M38,14L69,14L71,16L71,18L70,19L70,20L69,21L69,22L68,23L67,23L66,24L65,24L64,25L55,25L54,26L53,26L52,25L50,25L49,24L48,24L47,23L47,21L46,20L45,20L44,19L38,19L37,18L37,15Z M85,14L95,14L98,17L98,23L97,24L95,24L94,23L93,23L91,21L90,21L88,19L87,19L85,17Z" fill="#4ac34e" fill-rule="evenodd" />
  <path d="M59,15L61,15L62,16L64,16L65,17L65,18L64,19L63,19L62,20L62,27L63,28L63,29L65,31L73,31L74,32L75,32L79,36L79,42L80,43L82,43L86,47L89,47L91,49L91,50L92,51L92,56L91,57L91,59L89,61L89,62L88,63L88,65L92,69L92,77L90,79L90,85L86,85L86,78L88,76L88,70L84,66L84,61L85,60L85,59L88,56L88,52L87,51L85,51L82,48L80,48L79,47L73,47L72,48L71,48L70,49L70,50L68,52L68,53L67,54L66,54L65,55L57,55L56,54L55,54L53,52L47,52L46,51L42,51L41,50L41,49L39,47L38,47L36,45L35,45L33,47L32,47L31,48L30,48L28,50L28,51L26,53L26,58L27,59L28,59L29,60L29,61L30,62L30,68L29,69L29,70L25,74L25,78L26,79L26,85L22,85L22,80L21,79L21,73L22,72L22,71L26,67L26,63L25,62L24,62L23,61L23,59L22,58L22,52L23,51L23,50L26,47L26,46L28,44L30,44L31,43L32,43L33,42L33,26L32,25L31,25L29,23L22,23L21,24L21,25L20,26L19,26L18,25L18,24L17,23L17,20L16,19L16,18L18,16L20,16L21,17L22,17L24,19L30,19L32,21L34,21L36,23L36,24L37,25L37,40L38,41L38,42L39,43L40,43L41,44L42,44L43,45L43,46L44,47L47,47L48,48L54,48L56,50L57,50L58,51L64,51L66,49L66,48L67,47L67,46L69,44L70,44L71,43L74,43L75,42L75,37L74,36L73,36L72,35L64,35L61,32L60,32L59,31L59,30L58,29L58,22L57,21L56,21L54,19L54,18L56,16L58,16Z M43,22L44,22L45,23L45,24L46,25L46,26L47,27L47,28L46,29L43,29L42,30L41,30L40,29L40,28L41,27L41,26L42,25L42,23Z M86,33L87,33L88,34L89,34L90,33L91,33L92,34L92,36L93,37L93,38L92,39L91,39L90,38L89,38L87,40L86,40L85,39L85,38L86,37L86,36L85,35L85,34Z" fill="#9CFFE8" fill-opacity="0.77" fill-rule="evenodd" />
</svg>