<?xml version="1.0" encoding="UTF-8"?>
<svg xmlns="http://www.w3.org/2000/svg" viewBox="0 0 112 96" width="448" height="384">
  <rect x="0" y="0" width="112" height="96" fill="#347941" />
  <path d="M16,13L96,13L99,16L98,17L98,18L99,19L99,20L97,22L97,25L94,28L94,30L93,31L92,31L90,33L90,34L91,35L91,36L90,37L90,38L89,39L88,39L87,40L77,40L76,39L75,39L74,40L69,40L67,42L64,42L62,40L62,39L58,35L56,35L54,33L53,33L52,32L38,32L37,31L36,31L35,30L33,30L32,29L31,29L30,30L26,30L25,31L20,31L19,30L19,29L18,29L17,30L15,30L14,29L14,22L13,21L13,16Z M90,58L91,59L92,59L93,58L97,58L98,59L98,62L97,63L97,64L98,64L99,65L98,66L98,67L99,68L99,72L96,75L95,75L94,74L93,74L92,75L91,74L88,74L86,72L86,69L85,68L86,67L86,65L87,64L87,61Z" fill="#35a043" fill-rule="evenodd" />
  <path d="M17,14L31,14L32,15L32,24L30,26L22,26L20,24L16,24L15,23L15,21L14,20L14,17Z M48,14L91,14L92,15L92,17L91,18L90,18L89,19L88,19L87,20L86,20L84,22L83,22L82,23L78,23L77,24L66,24L65,23L64,23L63,24L60,24L58,22L57,22L56,21L55,21L53,19L49,19L47,17L47,15Z" fill="#4ac34e" fill-rule="evenodd" />
  <path d="M24,16L26,16L28,18L37,18L40,21L44,21L45,22L46,22L49,25L49,38L55,44L55,47L57,49L57,50L58,51L58,52L59,53L59,58L61,60L64,60L66,58L70,58L71,57L71,53L72,52L72,48L73,47L73,46L75,44L79,44L80,43L80,36L79,35L75,35L74,34L71,34L69,32L69,31L68,30L68,21L67,20L66,20L65,19L65,17L66,16L74,16L75,17L75,19L74,20L73,20L72,21L72,29L73,30L75,30L76,31L80,31L84,35L84,44L80,48L77,48L76,49L76,53L75,54L75,59L76,60L76,61L77,62L77,64L78,65L78,66L79,67L79,70L78,71L78,75L74,79L74,83L73,84L70,84L70,78L74,74L74,70L75,69L75,68L74,67L74,66L73,65L73,63L72,62L67,62L66,63L65,63L64,64L60,64L56,60L56,56L55,55L55,53L54,52L54,51L51,48L51,45L48,42L46,42L45,43L42,43L41,44L40,44L39,45L29,45L28,44L26,44L24,42L12,42L12,38L15,38L16,37L18,37L19,38L25,38L26,39L28,39L30,41L31,41L32,40L40,40L41,39L44,39L45,38L45,26L44,25L39,25L37,23L36,23L35,22L27,22L27,23L26,24L24,24L23,23L23,17Z M60,26L61,26L64,29L64,30L63,31L60,31L59,30L58,30L57,29L57,28L58,27L59,27Z M91,47L93,47L94,48L94,49L90,53L89,53L88,52L88,50Z" fill="#83e1c3" fill-opacity="0.5" fill-rule="evenodd" />
</svg>