<?xml version="1.0" encoding="UTF-8"?>
<svg xmlns="http://www.w3.org/2000/svg" viewBox="0 0 112 96" width="448" height="384">
  <rect x="0" y="0" width="112" height="96" fill="#347941" />
  <path d="M16,13L79,13L81,15L81,17L82,18L82,19L81,20L81,21L79,23L78,23L77,22L76,22L75,21L74,21L73,22L71,22L70,21L66,21L65,22L63,22L62,21L58,21L57,22L56,22L55,23L55,26L56,27L56,28L57,29L56,30L56,32L57,33L57,35L58,36L58,37L57,38L55,38L54,39L53,39L52,38L51,38L51,39L50,40L47,40L44,37L38,37L37,38L35,38L34,39L32,39L31,40L30,40L29,41L28,41L27,42L27,48L25,50L25,51L24,52L22,52L21,51L18,51L17,50L16,50L15,51L13,49L13,47L14,46L14,45L13,44L13,41L14,40L14,39L13,38L13,37L14,36L14,33L13,32L13,31L14,30L14,29L13,28L13,26L14,25L14,24L13,23L13,16Z" fill="#35a043" fill-rule="evenodd" />
  <path d="M17,14L44,14L46,16L46,19L44,21L43,21L42,22L41,22L40,21L37,21L36,22L33,22L32,21L30,21L29,22L28,22L27,23L27,24L26,25L26,26L25,27L25,32L24,33L24,34L23,35L23,40L22,41L22,42L21,43L16,43L14,41L14,39L16,37L16,33L15,32L15,31L14,30L14,27L15,26L15,22L14,21L14,17Z M69,14L78,14L81,17L81,18L80,19L80,20L79,21L72,21L71,20L70,20L70,18L69,17Z" fill="#4ac34e" fill-rule="evenodd" />
  <path d="M87,14L93,14L94,15L94,17L93,18L92,18L91,19L91,21L90,22L90,23L89,24L89,25L88,26L88,28L89,29L91,29L95,33L95,37L96,38L100,38L100,42L95,42L91,38L91,34L90,33L86,33L85,32L81,32L80,33L80,38L79,39L79,40L77,42L77,44L75,46L74,46L71,49L67,49L66,48L55,48L54,47L48,47L47,48L41,48L40,49L39,49L38,50L37,50L36,51L36,52L35,53L35,59L37,61L38,61L39,62L39,64L38,65L38,70L39,71L40,71L42,73L42,84L38,84L38,76L36,74L36,73L34,71L34,64L32,62L32,61L31,60L31,50L34,47L35,47L37,45L39,45L40,44L45,44L46,43L52,43L53,42L55,42L56,43L57,43L58,44L71,44L73,42L73,41L74,40L74,39L76,37L76,32L79,29L80,29L81,28L84,28L85,27L85,24L86,23L86,22L88,20L88,19L86,17L86,15Z M36,15L41,15L42,16L42,17L40,19L40,22L41,23L43,23L44,22L50,22L51,23L57,23L58,22L60,22L61,23L61,27L60,28L58,28L56,26L49,26L48,25L44,25L43,26L41,26L40,25L39,25L37,23L37,19L35,17L35,16Z M63,67L67,67L68,68L68,69L67,70L67,71L68,72L68,74L67,75L66,75L65,76L64,76L63,75L63,74L62,73L62,72L63,71L63,70L62,69L62,68Z" fill="#83e1c3" fill-opacity="0.5" fill-rule="evenodd" />
</svg>