<?xml version="1.0" encoding="UTF-8"?>
<svg xmlns="http://www.w3.org/2000/svg" viewBox="0 0 112 96" width="448" height="384">
  <rect x="0" y="0" width="112" height="96" fill="#347941" />
  <path d="M16,13L33,13L34,14L35,14L36,13L47,13L48,14L49,14L50,13L82,13L83,14L83,16L84,17L84,21L83,22L83,23L84,24L83,25L83,27L80,30L76,30L75,31L69,31L67,33L63,33L62,34L61,33L60,33L60,34L59,35L53,35L52,34L40,34L38,32L35,32L34,31L30,31L28,33L28,39L30,41L30,44L29,45L29,47L28,48L28,50L27,50L26,51L26,52L25,53L25,55L23,57L23,58L21,58L20,59L15,59L13,57L13,54L14,53L14,47L13,46L14,45L14,44L13,43L13,33L15,31L15,30L14,29L14,28L13,27L13,16Z" fill="#35a043" fill-rule="evenodd" />
  <path d="M17,14L20,14L22,16L22,27L21,28L21,29L24,32L24,37L25,38L25,45L23,47L23,48L21,50L17,50L16,49L16,48L15,47L15,44L14,43L14,36L15,35L15,34L16,33L16,28L14,26L14,17Z M58,14L74,14L76,16L76,23L75,24L75,25L73,27L70,27L68,29L59,29L56,26L56,17L57,16L57,15Z" fill="#4ac34e" fill-rule="evenodd" />
  <path d="M59,16L61,16L62,17L62,21L63,22L63,24L62,25L61,25L58,22L55,22L54,23L54,24L53,25L53,27L51,29L49,29L48,30L48,42L49,43L49,45L51,47L53,47L54,46L54,45L57,42L57,41L60,38L64,38L65,39L69,39L71,37L72,37L73,36L77,36L80,39L84,39L86,41L87,41L88,42L92,42L93,41L94,41L97,38L100,38L100,42L98,42L94,46L87,46L86,45L85,45L83,43L79,43L76,40L73,40L70,43L63,43L62,44L61,44L54,51L49,51L48,50L47,50L46,51L46,52L45,53L44,53L43,54L42,54L41,55L41,56L37,60L36,60L35,61L35,65L37,67L37,72L39,74L39,75L42,78L42,84L38,84L38,80L35,77L35,76L34,75L34,74L33,73L33,68L31,66L31,60L32,59L32,58L33,57L34,57L38,53L38,52L39,51L40,51L43,48L44,48L45,47L45,44L43,42L43,39L44,38L44,31L43,30L39,30L36,27L36,26L33,23L33,22L32,21L26,21L24,23L21,23L19,25L17,25L16,24L16,18L17,17L19,17L21,19L23,19L25,17L31,17L32,18L34,18L36,20L36,21L38,23L38,24L40,26L44,26L45,25L49,25L50,24L50,23L51,22L51,21L54,18L57,18Z M92,17L93,17L95,19L95,20L94,21L93,21L92,22L92,24L91,25L90,25L89,24L89,23L88,22L88,20L89,19L90,19Z M64,47L66,47L67,48L68,48L69,47L71,47L72,48L72,50L70,52L68,52L67,51L66,51L65,52L64,52L63,51L63,48Z" fill="#83e1c3" fill-opacity="0.5" fill-rule="evenodd" />
</svg>