<?xml version="1.0" encoding="UTF-8"?>
<svg xmlns="http://www.w3.org/2000/svg" viewBox="0 0 112 96" width="448" height="384">
  <rect x="0" y="0" width="112" height="96" fill="#347941" />
  <path d="M16,13L49,13L51,15L51,19L50,20L50,22L49,23L49,32L47,34L34,34L32,36L30,36L28,38L28,39L29,40L29,42L28,43L28,44L30,46L30,50L31,51L31,56L32,57L32,59L30,61L29,61L28,62L25,62L24,63L19,63L18,62L15,62L14,61L14,60L13,59L13,53L14,52L14,47L13,46L13,37L15,35L15,29L14,28L14,24L13,23L13,16Z M60,13L96,13L99,16L99,25L98,26L97,26L97,28L95,30L91,30L90,31L88,29L88,28L87,27L85,27L84,28L83,28L81,30L80,30L79,29L72,29L71,30L68,30L67,29L66,29L65,30L64,30L63,29L63,28L59,24L59,20L58,19L58,15Z" fill="#35a043" fill-rule="evenodd" />
  <path d="M17,14L36,14L39,17L39,21L38,22L38,23L36,25L34,25L33,24L32,24L31,25L23,25L22,24L20,24L19,23L17,23L16,22L15,22L14,21L14,17Z M88,14L95,14L98,17L98,23L97,24L97,28L95,30L91,30L89,28L89,27L88,26L88,25L87,24L87,15Z M17,38L20,38L22,40L23,40L24,41L24,49L25,50L25,56L24,57L24,58L22,60L17,60L15,58L15,49L16,48L16,46L14,44L14,40L15,39L16,39Z" fill="#4ac34e" fill-rule="evenodd" />
  <path d="M84,15L86,15L87,16L87,17L91,17L92,16L94,16L95,17L95,21L94,22L92,22L91,21L87,21L87,22L86,23L84,23L83,22L83,19L82,18L82,17Z M25,16L30,16L31,17L31,19L29,21L29,26L30,27L41,27L42,28L43,28L45,30L45,36L46,37L50,37L53,40L55,40L59,44L59,45L60,46L62,46L63,45L68,45L73,40L74,40L76,38L77,38L80,35L82,35L83,36L87,36L88,35L89,35L92,38L100,38L100,42L91,42L89,40L83,40L82,41L79,41L76,44L75,44L70,49L65,49L64,50L59,50L55,46L55,45L54,44L51,44L49,42L45,42L44,41L41,41L40,42L40,47L41,48L41,49L42,50L42,55L45,58L45,61L44,62L44,64L46,66L46,67L47,68L47,76L45,78L44,78L42,80L42,84L38,84L38,78L41,75L42,75L43,74L43,69L40,66L40,61L41,60L41,59L40,58L39,58L38,57L38,52L37,51L37,49L36,48L36,41L37,40L37,39L39,37L40,37L41,36L41,32L40,31L29,31L28,30L27,30L25,28L25,20L24,19L24,17Z M63,16L64,16L65,17L66,17L67,18L67,19L68,20L68,21L67,22L65,22L63,20L63,19L62,18L62,17Z M54,26L55,26L56,27L56,28L57,29L58,29L59,30L59,32L58,33L56,33L55,34L53,34L52,33L52,32L53,31L53,30L52,29L52,28Z" fill="#83e1c3" fill-opacity="0.5" fill-rule="evenodd" />
</svg>