<?xml version="1.0" encoding="UTF-8"?>
<svg xmlns="http://www.w3.org/2000/svg" viewBox="0 0 112 96" width="448" height="384">
  <rect x="0" y="0" width="112" height="96" fill="#347941" />
  <path d="M34,13L93,13L94,14L97,14L99,16L99,20L98,21L98,23L99,24L99,29L97,31L97,35L98,36L98,39L97,40L97,41L98,42L98,45L99,46L99,62L97,64L95,64L95,65L94,66L91,66L90,65L88,65L87,64L85,64L84,63L83,63L80,60L80,59L78,57L78,51L79,50L79,49L78,48L78,46L77,45L77,42L74,39L74,38L72,36L72,35L71,34L55,34L54,33L46,33L45,32L40,32L39,33L38,33L37,32L36,32L35,31L34,31L33,30L33,25L32,24L32,15Z" fill="#35a043" fill-rule="evenodd" />
  <path d="M43,14L53,14L57,18L57,22L56,23L56,24L54,26L41,26L38,23L38,19L40,17L41,17L42,16L42,15Z M87,14L90,14L91,15L92,15L93,16L93,17L96,20L96,23L95,24L95,26L94,27L93,27L92,28L80,28L79,27L77,27L75,25L75,19L76,18L76,17L78,15L86,15Z M88,39L92,39L93,40L95,40L97,42L97,48L98,49L97,50L97,54L98,55L98,58L96,60L95,60L94,61L91,61L89,59L88,59L87,58L87,57L86,56L86,54L87,53L87,52L86,51L86,49L85,48L85,47L86,46L86,45L85,44L86,43L86,41Z" fill="#4ac34e" fill-rule="evenodd" />
  <path d="M49,17L50,17L51,18L62,18L63,17L68,17L70,19L70,20L69,21L68,21L67,20L66,20L65,21L65,22L67,24L67,26L68,27L73,27L74,28L76,28L77,29L83,29L83,26L82,25L80,25L79,24L79,21L80,20L81,20L82,21L84,21L85,20L86,20L88,22L89,22L90,23L90,25L89,26L87,26L87,31L85,33L76,33L75,32L73,32L72,31L68,31L67,32L67,40L66,41L66,42L64,44L63,44L62,45L52,45L51,46L50,46L48,48L48,49L49,50L49,53L50,54L51,54L55,58L63,58L65,60L67,60L68,61L69,61L70,62L70,63L75,68L76,68L77,69L78,69L80,71L80,77L79,78L79,79L77,81L75,81L74,82L74,85L70,85L70,80L72,78L75,78L76,77L76,73L75,72L72,72L70,70L70,69L67,66L66,66L64,64L61,64L60,63L54,63L53,62L51,62L48,59L48,58L47,57L46,57L44,55L44,50L39,45L34,45L31,42L29,42L28,43L24,43L23,42L11,42L11,38L21,38L22,37L23,37L24,38L31,38L32,37L33,37L36,40L41,40L43,42L44,42L45,43L46,43L48,41L60,41L62,39L62,36L63,35L63,25L61,23L60,23L59,22L52,22L50,24L48,24L47,23L46,23L45,22L45,20L47,18L48,18Z M17,24L19,24L20,25L22,25L23,26L23,28L21,30L20,30L19,29L18,29L17,28L17,27L16,26L16,25Z M19,73L22,73L23,74L23,75L24,76L24,77L25,78L25,79L24,80L23,80L22,79L20,79L19,78L19,77L18,76L18,74Z" fill="#83e1c3" fill-opacity="0.5" fill-rule="evenodd" />
</svg>