<?xml version="1.0" encoding="UTF-8"?>
<svg xmlns="http://www.w3.org/2000/svg" viewBox="0 0 112 96" width="448" height="384">
  <rect x="0" y="0" width="112" height="96" fill="#347941" />
  <path d="M16,13L96,13L99,16L99,23L98,24L98,27L99,28L99,30L97,32L97,33L95,33L93,35L87,35L85,33L81,33L79,35L66,35L64,33L61,33L60,34L58,34L57,33L53,33L52,32L51,32L50,31L50,30L47,27L38,27L36,29L36,33L35,34L35,36L33,38L33,39L32,40L31,40L30,41L27,41L25,43L21,43L20,42L18,42L15,39L14,39L13,38L13,36L14,35L14,30L13,29L13,16Z" fill="#35a043" fill-rule="evenodd" />
  <path d="M48,14L95,14L96,15L96,18L94,20L94,21L93,22L80,22L79,21L78,21L77,22L74,22L73,23L72,23L71,24L64,24L63,25L62,25L60,27L52,27L51,26L50,26L49,25L48,25L46,23L46,16Z" fill="#4ac34e" fill-rule="evenodd" />
  <path d="M53,17L54,17L55,18L55,22L54,23L53,23L52,22L50,22L49,23L45,23L44,24L44,28L45,29L45,31L44,32L42,32L41,33L40,33L39,32L39,30L40,29L40,25L41,24L41,22L44,19L49,19L50,18L52,18Z M86,17L89,17L90,18L90,19L89,20L89,26L86,29L80,29L79,30L78,30L76,32L76,39L77,40L78,40L83,45L84,45L86,47L86,49L90,53L90,57L87,60L87,66L89,68L90,68L91,69L91,70L92,71L92,78L90,80L90,85L86,85L86,80L87,79L87,78L88,77L88,72L83,67L83,59L86,56L86,54L83,51L83,49L82,48L81,48L76,43L75,43L74,42L73,42L72,43L71,43L70,44L69,44L68,45L68,46L67,47L67,48L64,51L58,51L57,52L49,52L48,51L46,51L44,49L37,49L36,50L32,50L31,51L28,51L25,54L25,59L27,61L29,61L31,63L31,64L30,65L30,72L28,74L28,75L27,76L27,77L26,78L26,85L22,85L22,77L24,75L24,74L25,73L25,72L27,70L27,65L26,64L25,64L21,60L21,54L22,53L22,52L27,47L29,47L30,46L34,46L35,45L45,45L47,47L49,47L50,48L56,48L57,47L63,47L64,46L64,45L65,44L65,43L68,40L70,40L72,38L72,32L73,31L73,30L76,27L78,27L79,26L84,26L86,24L86,20L85,19L85,18Z M26,20L27,20L28,21L28,23L25,26L23,26L22,25L22,23L24,21L25,21Z M90,38L94,38L95,39L95,41L93,43L92,43L91,42L90,42L89,41L89,39Z" fill="#9CFFE8" fill-opacity="0.77" fill-rule="evenodd" />
</svg>