<?xml version="1.0" encoding="UTF-8"?>
<svg xmlns="http://www.w3.org/2000/svg" viewBox="0 0 112 96" width="448" height="384">
  <rect x="0" y="0" width="112" height="96" fill="#347941" />
  <path d="M16,13L96,13L99,16L99,26L98,27L98,31L99,32L99,39L98,40L98,44L97,45L96,45L95,46L92,46L89,43L88,43L85,40L83,40L82,39L79,39L78,40L74,40L73,39L72,39L71,38L67,38L66,37L65,37L63,35L63,34L61,32L61,31L60,30L60,22L58,20L55,20L54,19L48,19L45,22L44,22L40,26L40,30L38,32L34,32L32,34L32,38L29,41L29,42L26,45L21,45L19,43L17,43L15,41L15,40L14,39L14,38L13,37L13,28L14,27L14,26L13,25L13,16Z" fill="#35a043" fill-rule="evenodd" />
  <path d="M17,14L38,14L39,15L39,18L37,20L29,20L26,23L26,27L22,31L22,32L21,33L21,34L20,35L17,35L16,34L15,34L14,33L14,29L15,28L15,25L14,24L14,17Z M76,14L95,14L98,17L98,23L96,25L82,25L80,23L80,21L79,20L78,20L77,19L76,19L75,18L75,15Z" fill="#4ac34e" fill-rule="evenodd" />
  <path d="M19,16L20,16L21,17L21,20L18,23L17,23L16,22L16,19Z M92,17L93,17L94,18L94,20L93,21L93,22L92,23L92,27L91,28L91,29L89,31L85,31L84,32L74,32L73,31L72,31L71,30L67,30L65,28L64,28L63,27L57,27L56,28L55,28L53,30L53,31L52,32L52,34L51,35L51,36L52,37L52,40L55,43L64,43L65,44L66,44L69,47L70,47L71,48L78,48L79,49L80,49L85,54L85,57L86,58L87,58L91,62L91,70L90,71L90,72L89,73L89,74L88,75L88,77L89,78L89,79L90,80L90,83L89,84L86,84L86,80L85,79L85,78L84,77L84,75L85,74L85,73L87,71L87,70L88,69L88,64L85,61L84,61L82,59L82,56L78,52L77,52L76,51L69,51L68,50L67,50L64,47L56,47L55,46L54,46L52,44L51,44L49,46L49,47L45,51L45,52L43,54L43,57L41,59L40,59L39,60L35,60L33,62L32,62L27,67L27,68L24,71L24,76L25,77L25,78L26,79L26,84L22,84L22,80L21,79L21,78L20,77L20,71L21,70L21,69L24,66L24,65L30,59L31,59L33,57L37,57L38,56L39,56L40,55L40,52L42,50L42,49L47,44L47,43L49,41L49,39L48,38L48,37L47,36L47,35L48,34L48,33L49,32L49,30L50,29L50,28L54,24L56,24L57,23L64,23L66,25L67,25L69,27L73,27L74,28L75,28L76,29L82,29L83,28L87,28L88,27L88,23L89,22L89,21L88,20L88,19L89,18L91,18Z M37,36L39,36L40,37L40,38L39,39L39,40L37,42L36,42L35,41L35,38Z" fill="#83e1c3" fill-opacity="0.5" fill-rule="evenodd" />
</svg>