<?xml version="1.0" encoding="UTF-8"?>
<svg xmlns="http://www.w3.org/2000/svg" viewBox="0 0 112 96" width="448" height="384">
  <rect x="0" y="0" width="112" height="96" fill="#347941" />
  <path d="M16,13L96,13L99,16L99,28L98,29L98,32L96,34L93,34L92,35L74,35L73,34L68,34L67,33L62,33L61,32L57,32L56,33L55,33L52,36L52,39L49,42L47,42L46,43L34,43L31,40L31,39L28,36L24,36L21,33L19,33L18,32L16,32L15,31L15,30L14,29L14,25L13,24L13,16Z" fill="#35a043" fill-rule="evenodd" />
  <path d="M33,14L42,14L43,15L43,17L41,19L40,19L39,20L38,20L37,21L37,22L36,23L34,23L33,22L33,21L32,20L32,15Z M55,14L75,14L77,16L77,20L76,21L76,23L74,25L74,26L73,27L70,27L69,26L62,26L61,25L59,25L57,23L56,23L54,21L54,15Z M89,14L95,14L98,17L98,25L97,26L93,26L90,23L90,20L88,18L88,15Z" fill="#4ac34e" fill-rule="evenodd" />
  <path d="M52,16L56,16L57,17L58,17L59,16L60,16L62,18L62,20L60,22L59,22L58,21L57,21L56,20L53,20L51,22L50,22L49,23L49,28L47,30L46,30L45,31L45,35L43,37L43,38L42,39L42,46L47,51L48,51L49,52L51,52L52,53L60,53L61,52L62,52L66,48L67,48L68,47L73,47L74,46L74,45L78,41L80,41L82,39L82,32L81,31L81,30L82,29L82,28L83,27L84,27L85,28L85,29L87,31L87,32L86,33L86,38L87,39L88,39L91,42L91,51L89,53L89,59L90,60L90,61L86,65L86,66L85,67L85,72L86,73L86,75L90,79L90,83L89,84L86,84L86,80L83,77L83,75L82,74L82,65L83,64L83,63L86,60L86,52L87,51L87,50L88,49L88,44L87,43L86,43L85,42L84,42L83,43L82,43L80,45L79,45L77,47L77,49L75,51L69,51L68,52L67,52L63,56L62,56L60,58L58,58L57,57L52,57L51,56L48,56L47,55L46,55L42,51L40,51L37,54L31,54L29,56L29,57L27,59L27,64L24,67L24,69L23,70L23,75L24,76L24,77L26,79L26,84L22,84L22,80L21,79L21,78L20,77L20,76L19,75L19,69L20,68L20,67L21,66L21,65L24,62L24,57L26,55L26,54L29,51L30,51L31,50L36,50L37,49L37,48L38,47L38,38L40,36L40,35L42,33L42,29L44,27L45,27L46,26L46,22L47,21L47,20L49,18L50,18Z M93,17L95,17L96,18L96,23L95,24L94,24L92,22L92,18Z M19,44L21,44L22,45L22,50L21,51L20,51L19,50L19,49L18,48L18,45Z" fill="#83e1c3" fill-opacity="0.5" fill-rule="evenodd" />
</svg>