<?xml version="1.0" encoding="UTF-8"?>
<svg xmlns="http://www.w3.org/2000/svg" viewBox="0 0 112 96" width="448" height="384">
  <rect x="0" y="0" width="112" height="96" fill="#347941" />
  <path d="M16,13L96,13L99,16L99,23L98,24L98,27L99,28L99,34L98,35L98,36L99,37L99,38L98,39L98,40L97,41L95,41L94,40L94,38L93,37L93,33L92,32L92,31L90,29L90,28L89,27L87,27L86,26L81,26L80,27L75,27L74,28L73,28L72,29L71,29L68,32L60,32L59,31L58,31L56,29L55,29L53,27L52,27L51,28L49,28L48,29L40,29L39,30L39,31L38,32L37,32L37,33L38,34L38,40L36,42L30,42L29,43L24,43L23,44L23,45L22,46L22,47L20,49L19,49L18,50L15,50L14,49L14,45L13,44L13,39L14,38L14,35L15,34L15,31L13,29L13,16Z" fill="#35a043" fill-rule="evenodd" />
  <path d="M17,14L47,14L49,16L49,22L48,23L40,23L39,24L38,24L35,27L19,27L18,26L16,26L14,24L14,17Z M61,14L94,14L95,15L95,22L94,23L92,23L91,22L83,22L81,20L80,20L79,21L77,21L76,22L74,22L73,23L71,23L70,22L69,22L66,25L63,25L62,24L61,24L60,23L60,20L59,19L59,16Z" fill="#4ac34e" fill-rule="evenodd" />
  <path d="M27,19L29,19L30,20L31,20L32,21L32,22L31,23L30,23L29,24L29,30L30,31L30,32L31,33L34,33L35,34L49,34L52,37L52,43L53,44L59,44L60,45L62,45L63,46L65,46L66,47L68,47L69,48L78,48L79,49L80,49L82,51L82,53L84,55L87,55L88,56L89,56L92,59L92,60L93,61L93,68L94,69L94,72L91,75L91,76L90,77L90,85L86,85L86,76L87,75L87,74L90,71L90,69L89,68L89,61L88,60L87,60L86,59L83,59L81,57L80,57L78,55L78,53L77,52L68,52L67,51L66,51L65,50L63,50L62,49L59,49L58,48L52,48L51,49L49,49L48,48L46,48L45,49L43,49L40,52L32,52L29,55L29,56L27,58L27,62L28,63L28,64L29,65L31,65L33,67L33,74L30,77L27,77L26,78L26,85L22,85L22,78L23,77L23,76L25,74L28,74L29,73L29,69L28,68L26,68L25,67L25,65L23,63L23,56L24,55L25,55L26,54L26,53L31,48L38,48L39,47L40,47L42,45L44,45L45,44L47,44L48,43L48,39L47,38L34,38L33,37L30,37L26,33L26,32L25,31L25,25L24,24L23,24L22,23L22,22L23,21L24,21L25,20L26,20Z M56,34L57,34L58,35L61,35L62,36L62,37L63,38L63,39L62,40L58,40L56,38L56,37L55,36L55,35Z M90,45L91,45L92,46L92,47L93,48L93,49L92,50L92,52L91,53L90,53L88,51L88,50L87,49L87,47L88,46L89,46Z" fill="#83e1c3" fill-opacity="0.5" fill-rule="evenodd" />
</svg>