<?xml version="1.0" encoding="UTF-8"?>
<svg xmlns="http://www.w3.org/2000/svg" viewBox="0 0 112 96" width="448" height="384">
  <rect x="0" y="0" width="112" height="96" fill="#347941" />
  <path d="M16,13L96,13L99,16L99,27L98,28L98,34L99,35L99,36L98,37L98,40L99,41L99,45L98,46L98,50L96,52L93,52L90,49L90,48L87,45L87,43L85,41L83,41L82,40L81,40L80,39L73,39L71,37L71,36L70,35L70,34L69,33L69,27L67,25L65,25L64,26L63,26L62,25L57,25L56,26L56,27L51,32L50,32L49,33L49,35L47,37L34,37L33,38L29,38L28,39L24,39L23,38L23,37L21,35L19,35L18,34L15,34L14,33L14,32L13,31L13,27L14,26L14,23L13,22L13,16Z" fill="#35a043" fill-rule="evenodd" />
  <path d="M17,14L42,14L43,15L43,18L42,19L42,20L41,21L39,21L37,23L33,23L31,25L28,25L27,26L19,26L17,24L16,24L15,23L15,21L14,20L14,17Z M74,14L95,14L98,17L98,25L97,26L93,26L92,25L91,25L90,24L90,22L89,21L83,21L82,20L78,20L77,19L74,19L73,18L73,15Z" fill="#4ac34e" fill-rule="evenodd" />
  <path d="M22,18L23,18L24,19L25,19L26,20L26,21L25,22L25,23L26,24L26,28L27,29L31,29L32,30L39,30L41,32L41,33L42,34L42,40L43,41L47,41L48,42L50,42L52,44L54,44L55,45L56,45L58,47L58,48L57,49L57,53L59,55L59,56L60,57L62,57L63,58L69,58L70,57L70,55L74,51L77,51L78,50L78,45L77,44L77,43L76,42L76,37L77,36L77,35L76,34L76,32L77,31L79,31L80,32L82,32L83,33L83,34L81,36L81,37L80,38L80,42L81,43L81,50L82,51L84,51L87,54L87,55L88,56L88,62L90,64L90,65L91,66L91,67L92,68L92,75L91,76L91,80L90,81L90,85L86,85L86,80L87,79L87,75L88,74L88,68L87,67L87,66L85,64L85,58L84,57L84,56L83,55L81,55L80,54L79,54L78,55L75,55L73,57L73,59L71,61L60,61L59,60L58,60L56,58L56,57L54,55L54,49L53,48L51,48L49,46L47,46L46,45L43,45L42,44L39,44L38,45L35,45L29,51L26,51L25,52L25,57L27,59L27,60L29,62L30,62L31,63L32,63L34,65L34,66L33,67L33,75L32,76L31,76L30,77L28,77L26,79L26,85L22,85L22,80L21,79L21,78L23,76L24,76L27,73L29,73L30,72L30,67L28,65L27,65L24,62L24,61L22,59L22,52L21,51L21,50L23,48L24,48L25,47L28,47L34,41L37,41L38,40L38,34L37,33L30,33L29,32L25,32L22,29L22,24L21,23L21,22L20,21L20,20Z M49,20L51,20L52,21L52,22L51,23L51,24L49,26L48,26L47,25L47,23L48,22L48,21Z M62,36L63,36L67,40L67,41L66,42L64,42L61,39L61,37Z" fill="#9CFFE8" fill-opacity="0.77" fill-rule="evenodd" />
</svg>