<?xml version="1.0" encoding="UTF-8"?>
<svg xmlns="http://www.w3.org/2000/svg" viewBox="0 0 112 96" width="448" height="384">
  <rect x="0" y="0" width="112" height="96" fill="#347941" />
  <path d="M16,13L96,13L99,16L99,19L98,20L98,21L97,22L97,25L99,27L99,48L98,49L97,49L95,51L94,51L93,52L87,52L86,51L85,51L84,50L81,50L80,49L80,32L79,31L79,26L77,24L76,24L75,23L63,23L62,24L57,24L56,25L56,26L55,27L55,28L50,33L46,33L45,32L43,32L42,33L39,33L38,32L34,32L33,33L25,33L24,32L22,32L20,30L20,29L19,28L18,28L17,27L16,27L14,25L14,24L13,23L13,16Z" fill="#35a043" fill-rule="evenodd" />
  <path d="M23,14L44,14L46,16L46,17L47,18L48,18L49,19L49,21L47,23L46,23L45,24L44,24L42,26L40,26L39,25L37,25L36,26L36,27L35,28L33,28L32,29L26,29L25,28L24,28L23,27L23,26L21,24L21,22L20,21L20,20L19,19L19,17L20,16L21,16Z M59,14L81,14L82,15L82,18L81,19L78,19L77,20L66,20L66,22L65,22L64,21L63,21L62,20L60,20L58,18L58,15Z M90,27L94,27L95,28L95,29L97,29L98,30L98,35L97,36L97,39L98,40L98,44L97,45L96,45L94,47L90,47L87,44L87,32L88,31L88,29Z" fill="#4ac34e" fill-rule="evenodd" />
  <path d="M64,16L73,16L74,17L74,18L73,19L72,19L72,26L73,27L74,27L76,29L76,32L75,33L73,33L72,32L72,31L70,29L69,29L68,30L68,31L67,32L64,32L63,31L63,29L66,26L67,26L68,25L68,19L64,19L63,18L63,17Z M91,33L94,33L95,34L95,35L94,36L94,39L93,40L93,42L92,43L91,43L90,42L86,42L85,43L85,44L83,46L76,46L75,47L74,47L71,50L71,55L70,56L70,59L73,62L74,62L75,63L75,64L77,66L77,71L78,72L78,74L73,79L73,80L74,81L74,85L70,85L70,82L69,81L69,78L74,73L74,72L73,71L73,66L72,65L71,65L66,60L66,59L65,58L65,56L67,54L67,50L66,49L65,49L64,48L63,48L60,45L57,45L56,44L51,44L50,45L49,45L48,46L48,47L46,49L46,50L44,52L37,52L36,51L35,51L30,46L26,46L25,45L20,45L17,42L11,42L11,38L19,38L20,39L20,40L21,41L26,41L27,42L32,42L33,43L33,44L36,47L37,47L38,48L42,48L44,46L44,45L48,41L50,41L51,40L56,40L57,41L61,41L62,42L63,42L66,45L67,45L68,46L70,46L73,43L74,43L75,42L81,42L82,41L82,40L84,38L89,38L90,37L90,34Z M55,58L56,58L57,59L57,61L55,63L52,63L51,62L51,60L52,59L54,59Z M84,71L85,71L86,72L88,72L89,73L89,75L88,76L84,76L83,75L83,72Z" fill="#9CFFE8" fill-opacity="0.77" fill-rule="evenodd" />
</svg>