<?xml version="1.0" encoding="UTF-8"?>
<svg xmlns="http://www.w3.org/2000/svg" viewBox="0 0 112 96" width="448" height="384">
  <rect x="0" y="0" width="112" height="96" fill="#347941" />
  <path d="M16,13L91,13L92,14L92,20L91,21L91,24L88,27L87,27L84,30L82,30L81,29L79,29L78,30L75,30L74,31L70,31L68,29L68,28L64,28L64,29L63,30L60,30L58,28L58,27L57,26L56,26L54,24L51,24L50,23L47,23L45,25L45,34L42,37L42,38L40,40L38,40L37,41L36,41L35,42L35,43L34,44L34,46L32,48L32,53L29,56L27,56L26,57L25,57L24,58L18,58L17,57L16,57L15,56L15,52L14,51L14,44L13,43L13,40L14,39L15,39L16,38L18,38L19,37L20,37L21,36L21,33L20,32L20,31L18,29L16,29L15,30L14,30L13,29L13,25L14,24L14,21L13,20L13,16Z" fill="#35a043" fill-rule="evenodd" />
  <path d="M27,14L39,14L40,15L40,21L39,22L39,30L38,31L37,31L36,32L35,32L33,34L29,34L28,33L28,31L27,30L27,25L26,24L26,22L27,21L27,18L26,17L26,15Z M58,14L74,14L75,15L75,18L73,20L73,21L71,23L62,23L60,21L60,20L59,19L58,19L57,18L57,15Z" fill="#4ac34e" fill-rule="evenodd" />
  <path d="M65,16L66,16L67,17L68,17L69,18L69,20L68,21L68,33L70,35L74,35L76,37L76,38L77,39L77,44L78,45L78,48L83,53L83,54L84,55L84,60L85,61L85,66L88,69L88,70L90,72L90,73L91,74L91,79L90,80L90,83L89,84L86,84L86,80L87,79L87,75L86,74L86,73L85,72L85,71L82,68L82,67L81,66L81,60L80,59L80,55L76,51L75,51L74,50L74,46L73,45L73,40L72,39L69,39L66,36L65,36L62,39L55,39L53,41L53,43L52,44L52,49L51,50L51,55L50,56L50,57L48,59L47,59L46,60L45,60L44,61L38,61L37,62L36,62L32,66L29,66L28,67L27,67L26,68L26,69L25,70L25,76L26,77L26,84L22,84L22,78L21,77L21,70L22,69L22,68L23,67L23,66L26,63L27,63L28,62L31,62L35,58L36,58L37,57L43,57L45,55L46,55L47,54L47,49L48,48L48,43L49,42L49,40L50,39L50,38L51,37L51,36L50,35L50,34L46,30L43,30L40,27L36,27L34,29L34,30L33,31L31,31L30,30L30,29L29,28L29,27L31,25L33,25L35,23L41,23L44,26L47,26L53,32L53,33L55,35L61,35L64,32L64,21L63,20L63,18Z M81,18L84,18L86,20L86,22L85,23L84,23L83,22L81,22L80,21L80,19Z M91,57L93,57L94,58L94,59L95,60L95,61L93,63L92,63L91,62L90,62L89,61L89,59Z" fill="#83e1c3" fill-opacity="0.5" fill-rule="evenodd" />
</svg>