<?xml version="1.0" encoding="UTF-8"?>
<svg xmlns="http://www.w3.org/2000/svg" viewBox="0 0 112 96" width="448" height="384">
  <rect x="0" y="0" width="112" height="96" fill="#347941" />
  <path d="M17,13L96,13L99,16L99,28L98,29L98,36L99,37L99,47L97,49L97,50L94,53L94,54L93,55L86,55L85,54L84,54L81,51L80,51L77,48L77,45L78,44L78,41L77,40L77,34L76,33L69,33L68,34L62,34L61,33L53,33L52,32L52,31L50,29L42,29L40,31L33,31L32,32L31,32L30,33L28,33L27,32L25,32L24,33L22,33L21,32L20,32L16,28L16,24L17,23L17,19L16,18L16,14Z" fill="#35a043" fill-rule="evenodd" />
  <path d="M19,14L43,14L45,16L45,23L43,25L43,26L42,27L37,27L35,25L29,25L27,23L23,23L22,22L21,22L19,20L19,19L18,18L18,15Z M69,14L85,14L86,15L86,16L88,18L88,26L87,27L87,28L85,30L85,31L84,32L81,32L80,31L79,31L76,28L74,28L73,29L72,29L70,31L68,31L66,29L66,27L67,26L67,25L68,24L68,20L67,19L67,17L68,16L68,15Z" fill="#4ac34e" fill-rule="evenodd" />
  <path d="M43,17L50,17L51,18L52,18L53,19L54,19L56,21L56,26L57,27L58,27L60,25L61,25L62,24L62,23L65,20L69,20L70,19L71,19L72,20L72,26L71,27L70,27L69,26L69,24L66,24L65,25L65,26L63,28L62,28L61,29L60,29L58,31L58,41L60,43L62,43L64,45L64,47L68,51L69,51L70,50L74,50L78,54L78,60L76,62L75,62L74,63L73,63L69,67L69,68L68,69L68,71L67,72L67,73L68,74L69,74L70,75L71,75L72,76L73,76L75,78L75,79L74,80L74,83L73,84L70,84L70,80L68,78L67,78L65,76L64,76L63,75L63,72L64,71L64,68L66,66L66,65L72,59L73,59L74,58L74,55L73,54L70,54L69,55L67,55L61,49L61,48L59,46L57,46L55,44L53,44L52,45L48,45L47,46L43,46L41,48L37,48L36,47L27,47L26,46L24,46L23,47L20,47L15,42L12,42L12,38L16,38L20,42L20,43L21,44L22,44L24,42L26,42L27,43L36,43L37,44L40,44L42,42L47,42L48,41L52,41L53,40L53,38L54,37L54,29L53,28L53,23L52,22L51,22L50,21L44,21L42,23L41,23L40,22L40,20Z M90,43L92,43L94,45L94,49L93,50L91,50L90,49L90,46L89,45L89,44Z M85,72L87,72L88,73L89,73L90,74L90,76L89,77L88,77L87,76L85,76L84,75L84,73Z" fill="#83e1c3" fill-opacity="0.5" fill-rule="evenodd" />
</svg>