<?xml version="1.0" encoding="UTF-8"?>
<svg xmlns="http://www.w3.org/2000/svg" viewBox="0 0 112 96" width="448" height="384">
  <rect x="0" y="0" width="112" height="96" fill="#347941" />
  <path d="M54,13L96,13L99,16L99,27L98,28L98,35L99,36L99,37L98,38L98,40L99,41L99,46L98,47L98,50L99,51L99,58L98,59L98,60L97,61L97,62L96,63L96,64L93,67L89,67L88,66L86,66L85,65L83,65L82,64L82,63L78,59L78,58L76,56L76,55L75,54L74,54L72,52L72,47L71,46L71,43L70,42L70,37L69,36L68,36L67,35L66,35L65,34L63,34L62,35L60,35L58,33L57,33L56,32L56,31L55,30L55,25L54,24L54,20L53,19L53,14Z" fill="#35a043" fill-rule="evenodd" />
  <path d="M62,14L95,14L98,17L98,23L97,24L96,24L95,25L87,25L85,23L83,23L81,25L77,25L76,26L75,26L74,27L73,27L72,28L69,28L68,29L63,29L62,28L62,24L60,22L60,16Z" fill="#4ac34e" fill-rule="evenodd" />
  <path d="M31,17L33,17L34,18L34,19L33,20L33,22L32,23L30,23L29,22L29,19Z M92,19L94,19L95,20L95,22L94,23L94,29L91,32L85,32L84,33L84,35L81,38L80,38L78,40L78,49L76,51L68,51L64,55L55,55L53,57L53,60L54,61L62,61L65,64L65,65L66,66L70,66L74,70L74,73L73,74L73,79L74,80L74,85L70,85L70,81L69,80L69,73L70,72L70,71L69,70L66,70L65,69L64,69L62,67L62,66L61,65L53,65L50,62L50,55L52,53L52,51L50,49L50,42L46,38L46,34L45,33L42,33L41,32L34,32L29,37L29,39L28,40L28,44L26,46L18,46L16,44L16,43L15,42L11,42L11,38L17,38L18,39L18,40L19,41L19,42L20,43L24,43L25,42L25,35L27,33L28,33L33,28L42,28L43,29L47,29L49,31L49,36L54,41L54,48L55,49L55,50L56,51L63,51L67,47L74,47L75,46L75,38L79,34L80,34L81,33L81,31L83,29L89,29L90,28L90,23L89,22L89,21L90,20L91,20Z M87,53L90,53L91,54L91,56L89,58L86,58L85,57L85,55Z" fill="#83e1c3" fill-opacity="0.5" fill-rule="evenodd" />
</svg>