<?xml version="1.0" encoding="UTF-8"?>
<svg xmlns="http://www.w3.org/2000/svg" viewBox="0 0 112 96" width="448" height="384">
  <rect x="0" y="0" width="112" height="96" fill="#347941" />
  <path d="M17,13L96,13L99,16L99,29L98,30L98,33L99,34L99,37L98,38L98,41L99,42L99,47L98,48L97,48L97,49L95,51L95,52L92,55L85,55L82,52L81,52L80,51L79,51L78,50L77,50L76,49L76,44L77,43L77,33L76,32L68,32L67,33L60,33L59,34L56,34L55,33L53,33L49,29L42,29L40,31L32,31L30,33L23,33L22,32L21,32L20,31L19,31L17,29L17,26L16,25L16,19L17,18L17,16L16,15L16,14Z" fill="#35a043" fill-rule="evenodd" />
  <path d="M22,14L38,14L39,15L39,16L42,19L42,21L40,23L37,23L35,25L30,25L28,23L24,23L22,21L21,21L20,20L20,16Z M51,14L61,14L63,16L63,23L62,24L62,25L60,27L54,27L53,26L52,26L49,23L49,17L50,16L50,15Z M80,14L95,14L98,17L98,27L97,28L96,28L94,30L91,30L90,29L90,28L86,24L84,24L83,23L83,21L82,20L81,20L80,19L79,19L78,18L78,16Z" fill="#4ac34e" fill-rule="evenodd" />
  <path d="M33,17L34,17L35,18L35,21L33,23L32,23L31,22L31,19Z M57,17L59,17L60,18L68,18L69,19L70,19L72,21L73,21L74,22L78,22L81,25L81,26L82,27L82,28L83,29L83,30L85,32L85,37L83,39L83,41L84,42L85,42L87,44L88,44L89,45L90,45L91,46L91,58L92,59L92,61L91,62L90,62L89,63L88,63L84,67L81,67L80,68L75,68L70,73L70,76L73,79L73,80L74,81L74,85L70,85L70,81L68,79L68,78L67,77L67,71L72,66L72,64L69,61L68,61L67,62L60,62L58,60L58,59L57,58L57,51L51,45L50,45L49,44L47,44L46,45L45,45L44,46L39,46L38,47L32,47L31,46L29,46L28,45L20,45L17,42L11,42L11,38L16,38L17,37L18,37L20,39L20,40L21,41L29,41L30,42L32,42L33,43L37,43L38,42L43,42L44,41L45,41L46,40L50,40L51,41L52,41L57,46L58,46L60,44L60,41L64,37L68,37L69,36L79,36L80,37L81,37L82,36L82,34L80,32L80,31L78,29L78,27L77,26L73,26L72,25L71,25L69,23L68,23L67,22L60,22L59,23L58,23L57,22L57,21L56,20L56,18Z M71,40L70,41L65,41L63,43L63,46L60,49L60,56L61,57L61,58L67,58L68,57L69,57L76,64L80,64L81,63L83,63L87,59L87,48L86,47L85,47L84,46L83,46L80,43L80,41L79,40Z M89,77L90,77L91,78L91,79L88,82L86,82L85,81L85,79L86,78L88,78Z" fill="#9CFFE8" fill-opacity="0.77" fill-rule="evenodd" />
</svg>