<?xml version="1.0" encoding="UTF-8"?>
<svg xmlns="http://www.w3.org/2000/svg" viewBox="0 0 112 96" width="448" height="384">
  <rect x="0" y="0" width="112" height="96" fill="#347941" />
  <path d="M16,13L96,13L99,16L99,23L98,24L98,25L99,26L99,40L98,41L98,44L97,45L86,45L84,43L83,43L82,42L82,40L83,39L83,38L82,37L82,36L81,35L81,32L80,31L77,31L75,29L74,29L71,26L69,26L68,25L60,25L56,29L56,30L55,31L55,33L52,36L52,37L51,38L50,38L48,40L47,40L44,43L43,43L42,44L33,44L29,40L29,39L25,35L23,35L22,34L21,34L20,33L18,33L17,32L17,31L16,30L16,29L14,29L13,28L13,16Z" fill="#35a043" fill-rule="evenodd" />
  <path d="M17,14L57,14L58,15L58,21L57,22L57,24L56,25L54,25L53,26L52,26L47,31L46,31L45,32L35,32L30,27L26,27L25,28L23,28L22,29L18,29L17,28L15,28L14,27L14,26L15,25L15,24L14,23L14,17Z M82,14L95,14L98,17L98,21L97,22L97,27L98,28L98,33L96,35L88,35L86,33L86,30L85,29L85,28L83,26L83,20L81,18L81,15Z" fill="#4ac34e" fill-rule="evenodd" />
  <path d="M67,15L70,15L72,17L72,18L71,19L71,20L70,21L69,21L67,19L67,18L66,17L66,16Z M31,16L32,16L33,17L34,17L35,18L36,18L37,17L38,17L39,16L40,16L41,17L41,18L40,19L40,22L41,23L41,25L42,26L42,34L41,35L41,38L40,39L40,46L39,47L39,48L44,48L45,47L47,47L48,46L49,46L50,45L55,45L58,42L58,36L60,34L60,33L62,31L69,31L70,32L74,32L78,36L78,38L79,39L79,43L78,44L78,47L82,51L85,51L86,50L89,50L90,49L90,41L89,40L89,38L90,37L90,33L88,31L88,30L89,29L94,29L95,30L95,31L94,32L94,35L95,36L95,38L94,39L94,47L95,48L95,50L91,54L88,54L87,55L81,55L79,53L78,53L76,55L75,55L74,56L73,56L72,57L72,58L71,59L71,63L70,64L70,67L69,68L69,73L70,74L70,75L74,79L74,83L73,84L70,84L70,80L65,75L65,66L66,65L66,64L67,63L67,58L69,56L69,55L72,52L74,52L75,51L75,50L74,49L74,44L75,43L75,39L74,38L74,37L73,36L70,36L69,35L64,35L63,36L63,37L62,38L62,44L61,45L60,45L59,46L59,47L57,49L50,49L49,50L48,50L47,51L46,51L45,52L36,52L35,53L31,53L29,51L29,50L25,46L24,46L23,45L21,45L20,44L19,44L17,42L12,42L12,38L18,38L19,39L20,39L22,41L23,41L24,42L26,42L32,48L34,48L35,47L35,45L36,44L36,39L37,38L37,34L38,33L38,28L37,27L37,25L36,24L36,22L35,21L34,21L33,20L32,20L31,21L30,21L29,20L29,19L30,18L30,17Z M20,66L22,66L23,67L23,70L24,71L24,72L23,73L22,73L20,71L19,71L18,70L18,68Z" fill="#83e1c3" fill-opacity="0.5" fill-rule="evenodd" />
</svg>