<?xml version="1.0" encoding="UTF-8"?>
<svg xmlns="http://www.w3.org/2000/svg" viewBox="0 0 112 96" width="448" height="384">
  <rect x="0" y="0" width="112" height="96" fill="#347941" />
  <path d="M16,13L96,13L99,16L99,22L96,25L93,25L92,26L86,26L85,25L83,25L82,24L76,24L75,25L74,25L73,26L72,26L70,28L66,28L65,29L60,29L58,27L54,27L53,26L52,26L51,27L49,27L48,28L48,29L46,31L45,31L44,32L40,32L39,31L38,31L36,33L32,33L31,34L31,36L30,37L30,38L29,39L29,41L28,42L28,43L27,44L27,48L28,49L28,50L29,50L30,49L31,50L32,50L33,51L33,52L34,53L33,54L33,55L34,56L34,61L32,63L29,63L28,64L19,64L18,65L17,65L15,63L15,62L13,60L13,50L14,49L14,47L13,46L13,31L15,29L15,28L14,27L14,25L13,24L13,16Z" fill="#35a043" fill-rule="evenodd" />
  <path d="M17,14L45,14L46,15L46,16L44,18L44,19L43,20L30,20L29,21L25,21L24,20L23,20L20,23L20,24L21,25L21,31L19,33L19,36L18,37L18,41L19,42L19,43L20,44L20,47L21,48L21,51L18,54L17,54L16,55L15,55L14,54L14,52L15,51L15,46L14,45L14,33L16,31L16,27L15,26L15,24L14,23L14,17Z M54,14L84,14L85,15L85,17L84,18L83,18L82,19L82,20L81,21L77,21L76,22L72,22L70,20L66,20L64,22L63,22L62,23L60,23L59,22L58,22L55,19L54,19L53,18L53,15Z" fill="#4ac34e" fill-rule="evenodd" />
  <path d="M34,15L41,15L42,16L42,17L40,19L40,25L39,26L37,26L36,27L33,27L32,26L30,26L27,29L27,32L25,34L25,35L24,36L24,37L25,38L25,45L26,46L26,51L27,52L27,54L28,55L36,55L37,54L37,50L38,49L38,48L41,45L42,45L43,44L46,44L47,43L48,43L49,42L53,42L54,41L59,41L60,40L65,40L66,41L68,41L69,40L69,39L71,37L72,37L74,35L74,30L75,29L76,29L77,28L80,28L81,27L83,27L84,28L85,28L86,27L86,24L84,22L84,20L85,19L88,19L89,20L90,20L92,22L92,23L90,25L90,29L89,30L89,31L88,32L84,32L83,31L81,31L80,32L79,32L78,33L78,35L79,36L81,36L83,38L83,39L84,40L84,41L86,43L87,43L89,45L89,46L90,47L90,49L89,50L89,51L88,52L88,54L89,55L89,61L88,62L88,63L86,65L86,70L87,71L87,72L89,74L89,77L90,78L90,85L86,85L86,79L85,78L85,75L83,73L83,72L82,71L82,64L83,63L83,62L85,60L85,56L84,55L84,50L86,48L86,47L85,46L84,46L81,43L81,42L79,40L74,40L70,44L69,44L68,45L66,45L65,44L60,44L59,45L55,45L54,46L50,46L49,47L48,47L47,48L44,48L42,50L42,51L41,52L41,55L40,56L40,58L41,59L41,66L39,68L39,69L38,70L37,70L34,73L33,73L28,78L26,78L25,79L25,80L26,81L26,85L22,85L22,81L21,80L21,77L23,75L24,75L25,74L27,74L31,70L32,70L37,65L37,60L36,59L29,59L28,60L26,60L25,59L25,58L23,56L23,54L22,53L22,45L21,44L21,39L20,38L20,35L22,33L22,32L23,31L23,28L25,26L25,25L27,23L28,23L29,22L32,22L33,23L35,23L36,22L36,19L35,18L34,18L33,17L33,16Z M51,28L53,28L54,29L55,29L56,28L57,28L58,29L58,30L57,31L57,32L56,33L55,33L54,34L53,34L50,31L50,29Z" fill="#9CFFE8" fill-opacity="0.77" fill-rule="evenodd" />
</svg>