<?xml version="1.0" encoding="UTF-8"?>
<svg xmlns="http://www.w3.org/2000/svg" viewBox="0 0 112 96" width="448" height="384">
  <rect x="0" y="0" width="112" height="96" fill="#347941" />
  <path d="M16,13L96,13L99,16L99,25L98,26L98,27L99,28L99,39L98,40L98,41L96,43L87,43L86,42L85,42L84,41L82,41L80,43L76,43L73,40L73,33L76,30L76,27L74,25L63,25L61,27L61,31L60,32L60,35L59,36L58,36L57,37L51,37L50,36L49,36L45,32L45,29L44,28L40,28L39,27L36,27L35,28L35,29L30,34L24,34L20,30L19,30L18,29L16,29L13,26L13,16Z" fill="#35a043" fill-rule="evenodd" />
  <path d="M33,14L95,14L98,17L98,24L96,26L96,27L97,28L97,29L98,30L98,38L97,39L97,40L94,40L92,38L92,30L91,29L91,28L90,27L90,23L89,22L83,22L82,21L82,20L80,18L78,18L77,19L75,19L74,20L69,20L68,19L67,19L66,18L63,18L61,20L60,20L59,21L58,21L55,24L40,24L39,23L38,23L35,20L34,20L32,18L32,15Z" fill="#4ac34e" fill-rule="evenodd" />
  <path d="M45,18L53,18L54,19L54,20L53,21L52,21L51,22L51,25L54,28L54,30L55,31L55,32L56,33L56,42L57,43L60,43L64,47L64,49L65,50L65,51L67,53L74,53L75,52L75,49L76,48L76,39L77,38L77,37L79,35L82,35L83,34L84,34L86,32L87,32L88,33L88,35L90,37L90,39L89,40L88,40L87,39L87,38L86,37L85,37L84,38L81,38L80,39L80,49L79,50L79,53L78,54L78,56L79,57L79,58L84,63L84,72L79,77L77,77L76,78L75,78L74,79L74,85L70,85L70,78L73,75L73,74L74,73L78,73L79,72L79,71L80,70L80,65L76,61L76,60L75,59L75,58L74,57L67,57L66,56L65,56L61,52L61,51L60,50L60,49L59,48L56,48L55,47L54,47L53,48L53,49L52,50L52,51L50,53L48,53L47,54L42,54L41,53L38,53L35,50L35,48L34,47L34,46L33,45L31,45L28,48L22,48L21,47L20,47L15,42L11,42L11,38L17,38L23,44L26,44L27,43L27,40L25,38L25,31L26,30L26,29L27,28L27,27L25,25L23,25L22,26L21,26L19,24L19,21L21,19L22,19L24,21L26,21L31,26L31,29L29,31L29,36L31,38L31,40L32,41L35,41L36,42L36,43L39,46L39,48L40,49L41,49L42,50L47,50L49,48L49,47L51,45L51,44L52,43L52,33L51,32L51,31L50,30L50,29L47,26L47,22L46,21L45,21L44,20L44,19Z M91,49L93,49L94,50L94,52L95,53L95,54L94,55L92,55L91,54L91,53L90,52L90,50Z M22,63L27,63L28,64L28,65L26,67L22,67L21,66L21,64Z" fill="#9CFFE8" fill-opacity="0.77" fill-rule="evenodd" />
</svg>