<?xml version="1.0" encoding="UTF-8"?>
<svg xmlns="http://www.w3.org/2000/svg" viewBox="0 0 112 96" width="448" height="384">
  <rect x="0" y="0" width="112" height="96" fill="#347941" />
  <path d="M16,13L93,13L94,14L94,17L91,20L91,21L89,23L88,22L87,22L85,24L80,24L79,25L79,26L76,29L76,31L75,32L75,35L74,36L74,38L73,39L72,39L71,40L66,40L64,38L64,37L62,35L62,34L60,32L59,32L58,31L54,31L53,32L49,32L48,33L42,33L41,32L35,32L34,33L34,34L30,38L30,39L28,41L22,41L20,39L17,39L15,37L15,35L13,33L13,24L14,23L14,21L13,20L13,16Z M94,35L97,35L99,37L99,45L98,46L98,49L96,51L89,51L85,47L84,47L83,46L82,46L81,45L81,42L84,39L86,39L89,36L93,36Z" fill="#35a043" fill-rule="evenodd" />
  <path d="M17,14L27,14L28,15L28,23L27,24L26,24L25,25L25,26L23,28L19,28L18,29L15,29L14,28L14,26L15,25L15,24L16,23L16,21L15,20L15,19L14,18L14,17Z M51,14L74,14L75,15L75,18L72,21L68,21L66,23L62,23L61,24L60,24L58,26L56,26L54,24L54,23L53,22L53,21L50,18L50,15Z" fill="#4ac34e" fill-rule="evenodd" />
  <path d="M22,16L23,16L24,17L31,17L33,19L34,19L37,22L37,25L39,27L39,28L40,29L40,36L41,37L41,39L42,40L44,40L45,39L53,39L54,40L56,40L60,44L60,46L61,47L61,54L63,56L67,56L68,55L69,55L70,54L78,54L79,55L83,55L84,56L85,56L89,60L89,62L90,63L90,65L91,66L91,70L92,71L92,75L91,76L91,78L90,79L90,83L89,84L86,84L86,78L87,77L87,74L88,73L88,71L87,70L87,65L86,64L86,62L83,59L78,59L77,58L71,58L70,59L69,59L68,60L62,60L60,58L59,58L57,56L57,54L58,53L58,49L57,48L57,46L55,44L53,44L52,43L46,43L45,44L42,44L41,43L39,43L36,46L36,48L32,52L29,52L24,57L24,62L26,64L26,66L29,69L29,76L27,78L27,79L26,80L26,84L22,84L22,79L23,78L23,77L25,75L25,70L23,68L23,66L21,64L21,63L20,62L20,57L21,56L21,55L26,50L27,50L29,48L31,48L33,46L33,44L37,40L37,38L36,37L36,29L34,27L34,24L33,23L32,23L30,21L24,21L23,22L22,22L20,20L20,19L21,18L21,17Z M57,16L58,16L60,18L60,19L59,20L59,21L58,22L56,22L55,21L55,18Z M86,30L88,30L89,31L89,33L88,34L87,34L85,36L83,36L82,35L82,34Z" fill="#83e1c3" fill-opacity="0.5" fill-rule="evenodd" />
</svg>