<?xml version="1.0" encoding="UTF-8"?>
<svg xmlns="http://www.w3.org/2000/svg" viewBox="0 0 112 96" width="448" height="384">
  <rect x="0" y="0" width="112" height="96" fill="#347941" />
  <path d="M16,13L96,13L99,16L99,23L98,24L98,27L99,28L99,29L98,30L93,30L92,31L89,31L88,32L82,32L80,30L79,30L78,29L74,29L73,30L69,30L68,31L67,31L66,32L58,32L56,30L56,27L55,26L55,24L53,22L50,22L49,23L47,23L45,25L45,27L43,29L43,31L40,34L40,38L38,40L38,41L37,42L35,42L35,44L34,45L34,48L33,49L33,59L31,61L30,61L29,62L24,62L23,61L22,61L21,60L20,60L16,56L15,56L14,55L14,53L13,52L13,51L14,50L14,47L13,46L13,45L14,44L14,41L13,40L13,35L14,34L14,30L13,29L13,25L14,24L14,22L13,21L13,16Z" fill="#35a043" fill-rule="evenodd" />
  <path d="M17,14L54,14L55,15L55,18L53,20L46,20L43,23L43,25L42,26L42,27L39,30L30,30L28,28L28,27L25,24L22,24L20,26L20,30L19,31L16,31L15,30L15,29L14,28L14,27L15,26L15,20L14,19L14,17Z M83,14L95,14L98,17L98,22L97,23L97,26L96,27L92,27L91,28L87,28L85,26L83,26L82,25L82,24L81,23L81,16Z" fill="#4ac34e" fill-rule="evenodd" />
  <path d="M83,16L85,16L86,17L86,19L85,20L85,21L84,22L83,22L82,21L80,21L79,22L77,22L76,23L75,23L74,24L68,24L66,26L65,26L64,27L64,28L63,29L63,35L64,36L64,37L65,38L71,38L72,37L80,37L81,36L90,36L91,37L93,37L94,38L101,38L101,42L94,42L93,41L91,41L90,40L82,40L81,41L73,41L72,42L65,42L63,44L63,45L60,48L60,53L61,54L61,55L63,57L63,64L60,67L53,67L52,66L49,66L48,67L48,69L47,70L47,73L42,78L42,85L38,85L38,77L44,71L44,68L45,67L45,63L39,57L30,57L26,53L26,52L25,51L25,50L23,48L23,43L24,42L24,41L26,39L26,38L31,33L32,33L33,32L33,28L32,27L32,26L34,24L35,24L36,23L37,23L38,24L38,26L37,27L37,33L34,36L33,36L29,40L29,41L27,43L27,48L28,49L28,50L31,53L40,53L42,55L43,55L47,59L47,60L48,61L48,62L49,63L54,63L55,64L58,64L60,62L60,59L58,57L58,55L56,53L56,48L58,46L58,45L60,43L60,42L61,41L61,38L60,37L60,36L59,35L59,29L60,28L60,27L61,26L61,25L63,23L64,23L66,21L73,21L75,19L76,19L77,18L78,18L79,17L82,17Z M50,25L52,25L53,26L53,28L52,29L51,29L50,30L48,30L47,29L47,27L48,26L49,26Z M23,26L24,26L26,28L26,30L24,32L23,32L22,31L22,27Z" fill="#83e1c3" fill-opacity="0.5" fill-rule="evenodd" />
</svg>