<?xml version="1.0" encoding="UTF-8"?>
<svg xmlns="http://www.w3.org/2000/svg" viewBox="0 0 112 96" width="448" height="384">
  <rect x="0" y="0" width="112" height="96" fill="#347941" />
  <path d="M16,13L57,13L58,14L59,14L60,13L72,13L73,14L74,14L75,13L77,13L78,14L78,16L79,17L79,18L78,19L78,20L77,21L75,21L74,20L70,20L69,19L68,19L67,20L66,20L65,21L62,21L61,20L59,20L57,22L56,22L55,23L50,23L49,24L49,25L48,26L48,27L47,28L47,29L48,29L49,30L50,30L51,31L51,34L49,36L49,37L50,38L50,40L49,41L48,41L45,38L43,38L43,37L38,37L36,39L32,39L31,40L30,40L30,42L29,43L29,50L31,52L31,58L30,59L30,61L28,61L27,62L25,62L24,63L15,63L13,61L13,56L14,55L14,52L13,51L13,49L14,48L14,47L13,46L13,42L14,41L14,37L13,36L13,35L14,34L14,33L13,32L14,31L14,27L13,26L13,23L14,22L14,21L13,20L13,16Z" fill="#35a043" fill-rule="evenodd" />
  <path d="M17,14L55,14L55,18L54,19L51,19L50,20L46,20L45,21L38,21L37,20L32,20L31,21L26,21L24,23L23,23L22,24L15,24L14,23L14,17Z M16,37L21,37L22,38L23,38L25,40L25,43L26,44L26,47L25,48L24,48L22,50L19,50L18,49L17,49L16,50L15,50L14,49L14,44L15,43L15,38Z" fill="#4ac34e" fill-rule="evenodd" />
  <path d="M17,18L22,18L23,19L23,20L21,22L21,26L23,28L27,28L28,27L33,27L35,29L39,29L43,33L43,44L44,45L49,45L50,44L50,36L51,35L51,30L52,29L52,28L54,26L55,26L56,25L68,25L69,24L70,24L71,23L78,23L79,22L86,22L87,21L89,21L92,24L92,37L93,38L100,38L100,42L93,42L92,41L90,41L89,40L89,39L87,37L87,35L88,34L88,27L87,26L80,26L79,27L73,27L71,29L59,29L58,30L57,30L55,32L55,37L54,38L54,46L55,47L55,51L54,52L54,54L55,55L60,55L61,56L62,56L63,57L63,58L64,59L64,70L62,72L62,73L61,74L54,74L52,72L42,72L41,73L41,76L42,77L42,78L43,79L43,81L42,82L42,84L38,84L38,81L39,80L39,79L37,77L37,73L38,72L38,71L40,69L40,68L41,67L43,67L44,68L53,68L55,70L58,70L59,69L59,68L60,67L60,60L59,59L54,59L50,55L50,52L51,51L51,49L50,48L42,48L40,46L40,34L38,32L34,32L32,30L29,30L28,31L22,31L21,30L20,30L19,29L19,28L18,27L18,23L16,21L16,19Z M81,46L82,46L83,47L85,47L86,48L86,49L85,50L85,52L84,53L83,53L82,52L81,52L80,53L79,53L78,52L78,50L77,49L77,48L78,47L80,47Z M16,57L18,57L19,58L22,58L23,59L23,61L22,62L22,64L24,64L25,65L25,67L24,68L17,68L16,67L16,65L17,64L18,64L18,62L17,61L16,61L15,60L15,58Z" fill="#83e1c3" fill-opacity="0.5" fill-rule="evenodd" />
</svg>