<?xml version="1.0" encoding="UTF-8"?>
<svg xmlns="http://www.w3.org/2000/svg" viewBox="0 0 112 96" width="448" height="384">
  <rect x="0" y="0" width="112" height="96" fill="#347941" />
  <path d="M16,13L36,13L37,14L38,14L39,13L82,13L83,14L83,15L82,16L82,17L80,19L79,19L78,20L78,21L77,22L73,22L70,25L69,25L69,27L68,27L67,28L67,34L66,35L60,35L59,34L58,34L57,35L55,33L54,33L53,32L50,32L47,29L46,29L45,30L44,30L40,34L34,34L33,33L30,33L29,32L28,32L26,34L25,34L24,33L22,33L21,32L18,32L17,31L16,31L15,32L14,31L14,27L13,26L13,16Z M95,26L97,26L98,27L98,29L99,30L99,39L98,40L98,41L99,42L99,47L98,48L98,49L99,50L99,51L98,52L98,55L99,56L98,57L98,58L99,59L99,64L98,65L98,66L97,67L97,68L99,70L99,73L98,74L98,75L99,76L97,78L92,78L91,77L90,77L89,76L88,76L86,74L86,72L87,71L87,64L89,62L89,59L93,55L93,53L90,50L90,46L87,43L87,38L88,37L88,34L90,32L90,30L92,28L93,28Z" fill="#35a043" fill-rule="evenodd" />
  <path d="M17,14L26,14L28,16L28,25L26,27L25,27L24,28L16,28L15,27L15,24L14,23L14,18L16,16L16,15Z M50,14L77,14L78,15L78,18L77,19L77,20L76,21L65,21L64,20L62,20L61,21L51,21L49,19L49,15Z M95,31L96,31L98,33L98,38L97,39L97,42L98,43L98,46L96,48L95,48L94,47L94,45L93,44L93,42L92,41L92,36L93,35L93,33Z" fill="#4ac34e" fill-rule="evenodd" />
  <path d="M18,16L20,16L22,18L24,18L25,19L33,19L35,21L38,21L39,22L48,22L49,21L58,21L59,22L60,22L62,24L62,26L64,28L71,28L72,29L73,29L77,33L77,38L78,39L78,46L76,48L76,49L75,50L75,51L72,54L72,55L71,56L70,56L69,57L69,59L71,61L72,61L77,66L77,73L75,75L75,76L74,77L74,85L70,85L70,76L71,75L71,74L73,72L73,67L71,65L70,65L69,64L67,64L66,63L66,62L65,61L65,60L64,59L61,59L60,58L53,58L52,57L51,57L48,54L48,49L46,47L46,46L45,45L45,44L44,43L44,40L43,39L42,39L41,38L32,38L31,37L29,37L28,38L26,38L24,40L23,40L21,42L11,42L11,38L20,38L23,35L24,35L25,34L27,34L28,33L32,33L33,34L43,34L45,36L46,36L48,38L48,43L49,44L49,45L52,48L52,52L54,54L59,54L60,53L61,53L62,54L67,54L68,53L69,53L70,52L70,51L72,49L72,48L73,47L73,46L74,45L74,39L73,38L73,34L72,33L71,33L70,32L63,32L59,28L59,27L57,25L49,25L48,26L39,26L38,25L34,25L32,23L24,23L23,22L22,22L21,23L21,24L20,25L18,25L17,24L17,17Z M55,37L57,37L58,38L58,40L57,41L57,42L58,43L58,45L57,46L55,46L54,45L54,43L55,42L55,41L54,40L54,38Z M79,55L80,55L83,58L83,59L81,61L79,61L78,60L78,56Z" fill="#9CFFE8" fill-opacity="0.77" fill-rule="evenodd" />
</svg>