<?xml version="1.0" encoding="UTF-8"?>
<svg xmlns="http://www.w3.org/2000/svg" viewBox="0 0 112 96" width="448" height="384">
  <rect x="0" y="0" width="112" height="96" fill="#347941" />
  <path d="M16,13L86,13L88,15L88,20L87,21L87,22L88,23L88,26L86,28L85,28L84,29L82,29L81,28L72,28L71,27L70,27L69,26L68,26L68,27L67,28L65,28L64,27L62,27L61,26L60,26L59,27L58,27L57,26L56,26L56,27L55,28L53,28L52,29L47,29L46,28L45,28L44,27L43,27L42,26L41,26L40,25L39,25L38,26L33,26L31,28L30,28L29,29L29,37L28,38L28,40L27,40L25,42L25,50L21,54L18,54L17,53L16,53L15,54L14,54L13,53L13,45L14,44L14,41L13,40L13,30L14,29L14,25L13,24L13,22L14,21L14,20L13,19L13,16Z" fill="#35a043" fill-rule="evenodd" />
  <path d="M17,14L38,14L38,18L36,20L32,20L31,21L30,21L29,22L28,22L27,23L16,23L14,21L14,17Z M55,14L74,14L74,15L73,15L72,16L72,20L71,21L67,21L66,22L56,22L55,21L54,21L53,20L53,16Z" fill="#4ac34e" fill-rule="evenodd" />
  <path d="M18,16L23,16L24,17L24,19L22,21L22,29L24,31L25,31L26,32L30,32L35,37L37,37L40,34L48,34L49,35L53,35L54,34L58,34L59,35L66,35L67,34L68,34L70,32L77,32L80,29L86,29L87,30L88,30L89,31L90,31L92,33L92,34L94,36L94,37L95,38L100,38L100,42L94,42L89,37L89,36L87,34L86,34L85,33L81,33L78,36L71,36L69,38L68,38L67,39L61,39L60,40L60,41L57,44L57,46L58,47L58,53L56,55L56,56L53,59L52,59L49,62L46,62L45,63L43,63L42,64L42,65L44,67L44,73L43,74L43,78L42,79L42,84L38,84L38,78L39,77L39,73L40,72L40,68L38,66L38,63L37,62L36,62L29,55L29,46L32,43L32,42L33,41L33,40L29,36L25,36L24,35L23,35L22,34L21,34L18,31L18,20L17,19L17,17Z M92,23L93,23L94,24L94,25L95,25L96,26L96,27L94,29L92,29L90,27L90,26L91,25L91,24Z M41,38L36,43L36,44L33,47L33,54L38,59L43,59L44,58L47,58L50,55L51,55L54,52L54,48L53,47L53,43L56,40L56,39L55,38L54,38L53,39L48,39L47,38Z M83,63L84,63L85,64L85,65L87,67L87,69L85,71L84,71L83,70L83,69L82,68L82,67L81,66L81,65Z" fill="#83e1c3" fill-opacity="0.5" fill-rule="evenodd" />
</svg>