<?xml version="1.0" encoding="UTF-8"?>
<svg xmlns="http://www.w3.org/2000/svg" viewBox="0 0 112 96" width="448" height="384">
  <rect x="0" y="0" width="112" height="96" fill="#347941" />
  <path d="M23,13L96,13L99,16L99,26L98,27L98,30L99,31L99,45L98,46L98,47L99,48L99,60L98,61L90,61L89,60L87,60L84,57L84,55L83,54L83,53L82,52L82,48L83,47L83,46L82,46L80,44L80,39L79,39L78,38L78,37L75,37L74,36L63,36L62,35L60,35L59,34L58,34L56,32L55,32L53,30L49,30L48,29L44,29L43,30L29,30L27,28L27,27L25,25L25,24L23,22L24,21L24,20L23,19L23,18L22,17L22,14Z" fill="#35a043" fill-rule="evenodd" />
  <path d="M57,14L95,14L98,17L98,22L97,23L97,24L95,26L85,26L84,25L80,25L79,24L69,24L67,26L61,26L60,25L59,25L57,23L57,18L56,17L56,15Z M95,39L97,39L98,40L98,44L97,45L97,47L96,48L96,49L97,49L98,50L98,55L97,56L95,56L93,54L91,54L90,53L90,52L89,51L89,49L88,48L88,45L89,44L89,43L90,42L91,42L93,40L94,40Z" fill="#4ac34e" fill-rule="evenodd" />
  <path d="M63,16L65,16L66,17L66,23L65,24L63,24L62,23L50,23L49,24L40,24L38,26L37,26L36,27L36,35L35,36L35,37L36,38L36,47L38,49L39,49L40,50L40,51L41,52L46,52L47,51L47,49L48,48L48,45L49,44L49,41L50,40L52,40L53,39L59,39L61,41L65,41L66,40L66,32L69,29L70,29L71,28L77,28L78,29L79,29L80,30L87,30L88,29L88,22L86,20L86,18L87,17L93,17L94,18L94,20L92,22L92,31L90,33L89,33L88,34L80,34L79,33L77,33L76,32L71,32L70,33L70,45L73,48L73,49L74,50L74,52L75,53L75,54L77,56L77,61L76,62L76,63L75,64L75,66L74,67L74,68L73,69L73,77L74,78L74,85L70,85L70,78L69,77L69,68L70,67L70,65L71,64L71,62L73,60L73,57L71,55L71,54L70,53L70,51L66,47L66,46L65,45L60,45L58,43L54,43L53,44L53,45L52,46L52,50L51,51L51,52L50,53L50,54L49,55L48,55L47,56L39,56L37,54L37,53L36,52L35,52L33,50L33,48L32,47L32,41L31,40L26,40L25,39L24,39L23,40L22,40L21,41L20,41L19,42L11,42L11,38L18,38L19,37L20,37L21,36L22,36L23,35L26,35L27,36L30,36L31,35L31,33L32,32L32,24L33,23L34,23L35,22L37,22L39,20L48,20L49,19L61,19L62,18L62,17Z M41,62L43,62L44,63L45,63L46,64L46,66L44,68L43,68L42,67L42,66L41,66L40,65L40,63Z M86,71L88,71L89,72L90,72L91,73L91,74L89,76L87,76L86,75L84,75L83,74L83,73L84,72L85,72Z" fill="#9CFFE8" fill-opacity="0.77" fill-rule="evenodd" />
</svg>