<?xml version="1.0" encoding="UTF-8"?>
<svg xmlns="http://www.w3.org/2000/svg" viewBox="0 0 112 96" width="448" height="384">
  <rect x="0" y="0" width="112" height="96" fill="#347941" />
  <path d="M23,13L96,13L99,16L99,30L98,31L98,34L99,35L99,37L98,38L98,40L99,41L99,46L98,47L98,49L99,50L99,54L97,56L93,56L91,54L91,52L89,50L89,47L87,45L70,45L69,44L66,44L65,43L62,43L59,40L57,40L54,37L45,37L44,36L41,36L39,34L38,34L37,33L36,33L35,32L27,32L26,31L26,29L25,28L25,23L24,22L23,22L22,21L22,14Z" fill="#35a043" fill-rule="evenodd" />
  <path d="M24,14L58,14L59,15L59,17L57,19L55,19L53,21L47,21L45,23L42,23L41,24L40,24L39,25L38,25L37,26L34,26L33,25L27,25L26,24L26,22L25,21L24,21L23,20L23,15Z M81,14L95,14L98,17L98,29L97,30L97,35L96,36L91,36L90,35L90,33L87,30L86,30L84,28L84,27L83,26L82,26L80,24L80,15Z" fill="#4ac34e" fill-rule="evenodd" />
  <path d="M66,17L74,17L75,18L82,18L83,17L84,17L85,18L85,19L86,20L86,22L85,23L84,23L83,22L75,22L73,20L68,20L64,24L64,25L63,26L63,28L65,30L66,30L67,31L76,31L81,36L81,40L82,41L82,49L78,53L76,53L72,57L72,59L77,64L77,65L78,66L78,67L79,68L79,74L78,75L78,76L74,80L74,85L70,85L70,79L71,78L71,77L75,73L75,68L73,66L73,65L71,63L61,63L59,65L58,65L57,66L50,66L47,63L47,59L46,58L46,56L43,53L43,48L41,46L40,46L38,44L37,44L36,43L35,43L34,42L33,42L31,40L29,40L28,39L22,39L21,40L20,40L19,41L18,41L17,42L11,42L11,38L17,38L18,37L20,37L21,36L22,36L23,35L27,35L28,36L30,36L31,37L32,37L34,39L36,39L37,40L38,40L40,42L41,42L42,43L43,43L47,39L47,33L48,32L48,30L53,25L60,25L61,24L61,22Z M91,24L92,24L93,25L95,25L96,26L96,27L94,29L92,29L90,27L90,25Z M54,29L51,32L51,40L46,45L46,48L47,49L47,52L49,54L49,56L50,57L50,61L51,62L57,62L58,61L59,61L60,60L67,60L69,58L69,55L74,50L75,50L76,49L77,49L78,48L78,38L74,34L65,34L64,33L63,33L61,31L61,30L60,29Z M67,65L68,65L70,67L70,70L68,72L67,72L66,71L66,66Z" fill="#83e1c3" fill-opacity="0.5" fill-rule="evenodd" />
</svg>