<?xml version="1.0" encoding="UTF-8"?>
<svg xmlns="http://www.w3.org/2000/svg" viewBox="0 0 112 96" width="448" height="384">
  <rect x="0" y="0" width="112" height="96" fill="#347941" />
  <path d="M31,13L96,13L99,16L99,23L98,24L98,28L99,29L99,37L98,38L98,40L97,41L97,42L99,44L99,50L96,53L95,53L94,54L85,54L84,53L83,53L80,50L80,47L79,46L79,39L77,37L71,37L69,35L59,35L56,32L51,32L50,33L48,33L47,34L47,35L46,36L43,36L41,38L41,39L39,41L34,41L32,39L31,39L29,37L29,36L26,33L26,26L29,23L29,15Z" fill="#35a043" fill-rule="evenodd" />
  <path d="M50,14L95,14L98,17L98,21L95,24L87,24L86,23L81,23L80,22L76,22L75,21L72,21L71,20L66,20L65,21L61,21L59,23L58,23L57,24L52,24L50,22L50,21L49,20L49,15Z" fill="#4ac34e" fill-rule="evenodd" />
  <path d="M53,16L54,16L55,17L58,17L59,18L59,19L57,21L54,21L52,19L52,17Z M91,17L92,17L94,19L94,21L93,22L93,28L91,30L91,34L92,35L92,42L91,43L91,44L90,45L90,47L91,48L91,49L92,50L92,57L90,59L90,60L87,63L86,63L85,64L79,64L78,65L78,66L77,67L77,75L76,76L76,77L74,79L74,85L70,85L70,79L71,78L71,77L73,75L73,74L74,73L74,66L73,65L73,64L68,59L63,59L62,58L61,58L60,57L59,57L58,58L53,58L52,57L47,57L46,56L42,56L41,57L39,57L38,58L30,58L29,57L28,57L26,55L26,54L25,53L25,46L23,44L22,44L21,43L19,43L18,42L11,42L11,38L20,38L21,39L22,39L23,40L25,40L29,44L29,52L31,54L37,54L38,53L40,53L41,52L47,52L48,53L53,53L54,54L57,54L58,53L58,47L59,46L59,43L60,42L60,41L62,39L62,32L64,30L64,29L65,28L66,28L67,27L75,27L76,28L79,28L81,30L82,30L84,28L86,28L87,27L88,27L89,26L89,22L88,21L88,19L89,18L90,18Z M68,30L67,31L67,32L66,33L66,40L64,42L64,43L62,45L62,47L61,48L61,53L62,54L63,54L64,55L69,55L74,60L75,60L76,61L83,61L85,59L86,59L87,58L87,57L88,56L88,50L87,49L87,44L88,43L88,42L89,41L89,37L88,36L88,32L87,31L85,31L83,33L80,33L78,31L75,31L74,30Z M49,41L50,41L52,43L52,45L50,47L48,47L47,46L47,43Z" fill="#83e1c3" fill-opacity="0.5" fill-rule="evenodd" />
</svg>