<?xml version="1.0" encoding="UTF-8"?>
<svg xmlns="http://www.w3.org/2000/svg" viewBox="0 0 112 96" width="448" height="384">
  <rect x="0" y="0" width="112" height="96" fill="#347941" />
  <path d="M16,13L86,13L87,14L87,19L86,20L85,20L84,21L76,21L74,23L74,25L73,26L72,26L70,28L70,29L68,31L57,31L56,32L55,32L53,34L46,34L45,33L40,33L39,32L33,32L31,30L17,30L16,29L16,28L14,26L14,25L13,24L13,16Z M88,29L98,29L99,30L99,39L98,40L98,42L99,43L99,46L98,47L98,50L99,51L99,62L98,63L98,68L97,69L97,70L95,72L89,72L88,71L88,70L87,69L82,69L81,68L81,67L79,65L79,64L78,63L78,51L76,49L76,44L74,42L74,37L77,34L78,34L81,31L86,31Z" fill="#35a043" fill-rule="evenodd" />
  <path d="M37,14L70,14L71,15L71,20L69,22L69,23L68,24L61,24L59,26L54,26L53,27L52,27L51,28L50,28L49,27L48,27L47,28L43,28L41,26L41,25L40,24L40,23L37,20L37,19L36,18L36,15Z M89,30L97,30L98,31L98,38L97,39L97,43L98,44L98,45L96,47L92,47L91,48L89,48L88,49L84,49L83,48L79,48L77,46L77,43L75,41L75,38L78,35L79,35L82,32L87,32Z" fill="#4ac34e" fill-rule="evenodd" />
  <path d="M42,16L45,16L47,18L47,20L46,21L44,21L41,18L41,17Z M57,17L58,17L59,18L62,18L65,21L65,37L62,40L61,40L60,41L59,41L55,45L54,45L51,48L51,50L52,51L52,53L54,55L54,62L55,63L58,63L59,62L62,62L63,63L67,63L69,61L70,61L72,59L72,58L74,56L83,56L84,55L84,46L83,45L83,44L84,43L85,43L86,42L88,42L89,43L89,45L88,46L88,55L87,56L87,57L85,59L84,59L83,60L76,60L72,64L71,64L69,66L69,67L70,68L70,69L72,71L72,77L74,79L74,83L73,84L70,84L70,80L68,78L68,72L66,70L66,68L65,67L55,67L54,66L53,66L51,64L51,63L50,62L50,56L49,55L49,53L47,51L42,51L39,48L39,47L38,46L38,43L37,42L31,42L29,40L27,40L26,39L23,39L20,42L12,42L12,38L19,38L22,35L22,26L21,25L21,23L22,22L25,22L27,24L27,25L26,26L26,35L27,36L30,36L32,38L38,38L42,42L42,46L43,47L47,47L52,42L53,42L58,37L60,37L61,36L61,22L60,21L59,21L58,22L56,22L55,21L55,19Z M78,24L82,24L83,25L83,26L82,27L81,27L79,29L78,29L76,27L76,26Z" fill="#83e1c3" fill-opacity="0.5" fill-rule="evenodd" />
</svg>