<?xml version="1.0" encoding="UTF-8"?>
<svg xmlns="http://www.w3.org/2000/svg" viewBox="0 0 112 96" width="448" height="384">
  <rect x="0" y="0" width="112" height="96" fill="#347941" />
  <path d="M16,13L96,13L99,16L99,21L98,22L98,23L99,24L99,28L98,29L98,37L97,38L97,39L95,41L88,41L86,39L85,39L83,37L83,34L82,33L80,33L78,31L78,29L77,28L72,28L70,30L70,31L69,32L69,34L68,35L61,35L59,33L58,33L57,34L44,34L42,32L34,32L33,33L32,33L31,34L31,35L29,37L25,37L23,35L21,35L20,34L20,33L18,31L18,26L17,25L17,23L13,19L13,16Z" fill="#35a043" fill-rule="evenodd" />
  <path d="M29,14L38,14L39,15L39,19L37,21L37,23L35,25L34,25L33,26L30,26L29,25L29,22L28,21L28,15Z M71,14L95,14L98,17L98,20L97,21L97,23L98,24L98,26L97,27L93,27L92,26L92,25L90,23L90,22L88,20L81,20L78,23L78,24L77,25L71,25L70,24L70,15Z" fill="#4ac34e" fill-rule="evenodd" />
  <path d="M17,16L20,16L22,18L22,20L21,21L20,21L19,20L17,20L16,19L16,17Z M72,17L73,17L74,18L75,18L76,19L76,21L75,22L74,22L73,23L72,23L71,22L66,22L65,23L62,23L60,25L55,25L54,26L54,29L53,30L53,39L54,40L56,40L58,42L58,43L60,45L66,45L69,48L75,48L76,47L78,47L80,49L81,49L83,51L86,51L90,55L90,62L91,63L92,63L93,64L93,66L94,67L94,74L92,76L91,76L90,77L90,83L89,84L86,84L86,77L87,76L87,75L88,74L89,74L90,73L90,67L87,64L87,56L85,54L81,54L79,52L78,52L77,51L76,51L75,52L69,52L68,51L67,51L64,48L58,48L54,52L46,52L43,55L42,55L41,56L35,56L33,54L32,54L31,55L31,57L26,62L25,62L24,63L24,64L22,66L22,72L25,75L25,76L26,77L26,84L22,84L22,77L19,74L19,64L21,62L21,61L23,59L24,59L28,55L28,54L29,53L29,52L28,51L28,49L31,46L31,45L33,43L33,42L35,40L37,40L39,38L42,38L43,39L48,39L49,38L49,31L50,30L50,26L54,22L59,22L62,19L65,19L66,18L71,18Z M76,35L77,35L78,36L78,38L75,41L74,41L72,39L72,38L74,36L75,36Z M39,42L38,43L37,43L36,44L36,45L32,49L32,50L33,51L34,51L36,53L40,53L42,51L43,51L45,49L52,49L55,46L55,44L54,43L51,43L50,42L44,42L43,43L42,43L41,42Z" fill="#83e1c3" fill-opacity="0.5" fill-rule="evenodd" />
</svg>