<?xml version="1.0" encoding="UTF-8"?>
<svg xmlns="http://www.w3.org/2000/svg" viewBox="0 0 112 96" width="448" height="384">
  <rect x="0" y="0" width="112" height="96" fill="#347941" />
  <path d="M16,13L79,13L81,15L81,21L80,22L80,24L79,25L78,25L77,26L71,26L70,27L67,27L66,28L65,28L64,29L52,29L51,28L49,28L48,29L46,29L45,30L45,31L43,33L43,35L42,36L42,37L40,39L40,41L38,43L38,44L37,45L37,55L34,58L34,59L33,60L30,60L29,59L25,59L24,60L20,60L16,56L16,55L15,54L15,47L14,46L14,45L13,44L13,40L14,39L14,34L13,33L13,16Z" fill="#35a043" fill-rule="evenodd" />
  <path d="M17,14L32,14L33,15L34,15L36,17L36,20L34,22L34,23L33,24L33,25L34,26L34,27L35,28L35,33L34,34L34,38L33,39L33,40L32,41L32,42L31,43L21,43L20,42L19,42L17,40L17,39L16,39L15,38L15,31L14,30L14,27L15,26L15,25L14,24L14,17Z M50,14L75,14L77,16L77,18L76,19L76,20L77,21L77,22L76,23L70,23L69,24L64,24L63,23L61,23L60,24L53,24L52,23L51,23L50,22L50,21L49,20L49,15Z" fill="#4ac34e" fill-rule="evenodd" />
  <path d="M91,16L92,16L93,17L93,23L92,24L91,24L90,23L90,22L89,21L89,19L90,18L90,17Z M55,17L57,17L58,18L59,18L60,17L62,17L63,18L63,20L62,21L61,21L60,22L60,32L59,33L58,33L56,35L56,36L57,37L64,37L65,38L66,38L67,39L67,40L69,42L69,43L70,44L73,44L74,43L80,43L85,38L86,38L87,37L93,37L94,38L100,38L100,42L93,42L92,41L88,41L87,42L86,42L81,47L74,47L73,48L69,48L65,44L65,43L64,42L63,42L62,41L56,41L54,39L52,39L51,40L50,40L46,44L46,45L47,46L47,49L45,51L45,52L46,53L46,54L51,59L51,60L52,61L52,63L53,64L53,68L51,70L51,71L48,74L43,74L42,75L42,76L41,77L41,78L42,79L42,84L38,84L38,79L37,78L37,76L38,75L38,73L41,70L47,70L48,69L48,68L49,67L49,65L48,64L48,61L43,56L43,55L42,54L42,53L41,52L34,52L33,53L29,53L28,52L27,52L24,49L24,47L23,46L23,40L26,37L26,35L25,34L25,31L20,26L20,23L18,21L18,20L19,19L22,19L23,18L26,18L28,20L28,21L27,22L25,22L24,23L24,25L29,30L29,33L30,34L30,38L27,41L27,46L28,47L28,48L30,50L32,50L34,48L42,48L43,47L43,46L42,45L42,43L48,37L49,37L50,36L51,36L52,35L52,34L56,30L56,22L54,20L54,18Z M89,73L94,73L95,74L95,75L93,77L90,77L88,75L88,74Z" fill="#83e1c3" fill-opacity="0.5" fill-rule="evenodd" />
</svg>