<?xml version="1.0" encoding="UTF-8"?>
<svg xmlns="http://www.w3.org/2000/svg" viewBox="0 0 112 96" width="448" height="384">
  <rect x="0" y="0" width="112" height="96" fill="#347941" />
  <path d="M17,13L91,13L92,14L93,14L94,13L95,13L96,14L97,14L99,16L99,23L98,24L98,25L96,27L96,28L93,31L91,31L90,32L84,32L80,36L72,36L71,35L70,35L69,36L67,36L66,35L62,35L60,33L60,32L57,29L55,29L54,28L49,28L48,29L43,29L40,32L39,32L38,33L38,34L37,35L31,35L30,34L27,34L26,35L25,35L24,34L23,34L22,35L20,35L19,34L17,34L15,32L15,30L14,29L14,26L13,25L13,17Z M16,49L18,49L19,50L25,50L26,49L30,49L31,50L34,50L35,51L36,51L37,52L37,53L42,58L42,60L41,61L41,64L42,65L42,71L38,75L36,75L35,74L34,74L33,75L30,75L29,74L25,74L24,75L17,75L13,71L13,63L14,62L14,58L13,57L13,53L15,51L15,50Z" fill="#35a043" fill-rule="evenodd" />
  <path d="M20,14L27,14L28,15L31,15L35,19L35,23L33,25L29,25L28,26L25,26L24,25L22,25L21,26L18,26L16,24L15,24L14,23L14,20L16,18L16,17L18,15L19,15Z M59,14L85,14L86,15L86,16L87,17L87,22L85,24L83,24L82,25L82,27L80,29L66,29L65,28L61,28L59,26L57,26L56,25L55,25L54,24L54,23L55,22L55,21L54,20L54,19L55,18L55,17L57,15L58,15Z M19,52L29,52L31,54L32,54L36,58L36,60L35,61L34,61L33,62L32,62L31,63L31,64L30,65L27,65L26,64L17,64L15,62L15,61L16,60L16,59L15,58L15,57L17,55L17,54Z" fill="#4ac34e" fill-rule="evenodd" />
  <path d="M45,17L46,17L47,18L48,18L50,20L50,21L48,23L46,23L45,22L43,22L42,21L42,19L43,18L44,18Z M67,21L74,21L75,22L77,22L78,23L78,25L77,26L76,26L75,27L75,29L79,33L79,37L80,38L81,38L82,39L83,39L84,40L89,40L90,39L92,39L93,38L101,38L101,42L94,42L93,43L92,43L91,44L82,44L81,43L80,43L79,42L76,42L74,44L74,45L71,48L63,48L60,45L59,45L57,43L57,42L56,41L49,41L45,45L45,50L46,51L46,52L47,53L48,53L50,55L50,56L51,57L51,68L52,69L52,73L50,75L50,76L47,79L43,79L42,80L42,85L38,85L38,77L40,75L45,75L46,74L46,72L45,71L36,71L35,70L31,70L30,71L25,71L24,70L23,70L22,69L22,63L21,63L20,62L20,61L21,60L22,60L22,59L21,58L20,58L19,57L19,56L20,55L23,55L24,56L25,56L26,55L29,55L30,56L30,58L29,59L25,59L25,60L26,61L26,66L27,67L29,67L30,66L36,66L37,67L46,67L47,66L47,59L46,58L46,57L45,56L44,56L42,54L42,51L41,50L41,42L43,40L44,40L47,37L57,37L58,38L59,38L60,39L60,40L61,41L62,41L65,44L70,44L71,43L71,42L74,39L74,38L75,37L75,35L73,33L72,33L70,31L70,26L69,25L67,25L66,24L66,22Z M81,48L84,48L85,49L85,50L86,51L86,52L85,53L85,54L84,55L82,55L81,54L81,52L80,51L80,49Z" fill="#9CFFE8" fill-opacity="0.77" fill-rule="evenodd" />
</svg>