<?xml version="1.0" encoding="UTF-8"?>
<svg xmlns="http://www.w3.org/2000/svg" viewBox="0 0 112 96" width="448" height="384">
  <rect x="0" y="0" width="112" height="96" fill="#347941" />
  <path d="M17,13L96,13L99,16L99,28L98,29L98,33L99,34L99,39L98,40L98,42L99,43L99,46L98,47L98,50L99,51L99,59L96,62L86,62L84,60L84,58L83,57L83,51L82,50L82,46L83,45L83,42L82,41L82,40L81,39L81,33L78,30L73,30L72,31L61,31L57,35L56,35L54,37L54,38L53,39L52,39L50,41L46,41L45,40L44,40L42,38L40,38L38,36L38,35L35,32L35,31L33,29L24,29L23,28L21,28L17,24L17,23L16,22L16,14Z" fill="#35a043" fill-rule="evenodd" />
  <path d="M37,14L55,14L56,15L56,25L54,27L53,27L52,28L51,28L50,29L47,29L46,30L42,30L40,28L40,27L38,25L38,20L36,18L36,15Z M70,14L95,14L98,17L98,27L96,29L94,29L92,27L92,26L90,24L90,23L89,22L88,22L87,21L82,21L81,20L76,20L75,19L72,19L69,16L69,15Z" fill="#4ac34e" fill-rule="evenodd" />
  <path d="M52,17L53,17L54,18L64,18L68,22L68,36L64,40L64,45L65,46L71,46L76,51L76,55L77,56L77,63L78,64L78,68L79,69L81,69L82,68L85,68L89,64L89,59L88,58L88,57L91,54L93,54L94,55L94,57L93,58L93,65L87,71L86,71L85,72L77,72L73,76L73,78L74,79L74,85L70,85L70,80L69,79L69,76L70,75L70,74L75,69L75,65L74,64L74,57L73,56L73,53L69,49L63,49L62,50L61,50L57,54L57,57L53,61L40,61L37,58L37,55L32,50L27,50L26,49L23,49L21,47L21,45L18,42L11,42L11,38L20,38L22,40L22,41L24,43L24,45L25,46L31,46L32,45L32,43L31,42L31,36L28,33L28,27L27,26L27,23L29,21L31,21L33,23L33,26L32,27L32,32L34,34L34,40L35,41L35,48L40,53L40,56L42,58L43,58L44,57L46,57L47,58L51,58L54,55L54,52L58,48L58,47L61,44L61,38L64,35L64,23L63,22L54,22L53,23L52,23L50,21L50,19Z M73,33L74,33L75,34L76,34L77,33L78,33L79,34L79,35L76,38L75,38L72,35L72,34Z M68,54L69,54L70,55L70,57L68,59L68,60L67,61L65,61L64,60L64,59L65,58L65,57Z" fill="#9CFFE8" fill-opacity="0.77" fill-rule="evenodd" />
</svg>