<?xml version="1.0" encoding="UTF-8"?>
<svg xmlns="http://www.w3.org/2000/svg" viewBox="0 0 112 96" width="448" height="384">
  <rect x="0" y="0" width="112" height="96" fill="#347941" />
  <path d="M16,13L96,13L99,16L99,23L97,25L96,25L95,26L84,26L82,28L82,29L81,30L78,30L77,29L75,29L74,30L68,30L67,31L64,31L62,33L62,34L60,36L49,36L47,38L44,38L43,37L36,37L35,38L31,38L29,40L29,49L31,51L31,56L29,58L23,58L22,59L17,59L16,58L15,58L13,56L13,55L14,54L15,54L15,51L14,50L14,49L13,48L13,43L14,42L14,40L15,39L15,38L14,38L13,37L13,27L14,26L14,24L13,23L13,16Z" fill="#35a043" fill-rule="evenodd" />
  <path d="M17,14L44,14L46,16L46,20L44,22L43,22L42,23L39,23L37,25L37,28L36,29L36,30L34,32L31,32L30,31L24,31L22,33L17,33L16,32L15,32L14,31L14,29L15,28L15,27L16,26L16,24L15,23L15,22L14,21L14,17Z M66,14L95,14L98,17L98,21L97,22L94,22L93,23L89,23L88,22L81,22L80,21L76,21L74,19L66,19L65,18L65,15Z" fill="#4ac34e" fill-rule="evenodd" />
  <path d="M68,15L72,15L73,16L73,17L72,18L72,21L68,25L64,25L59,30L57,30L56,31L56,32L57,33L57,41L59,43L62,43L65,40L65,38L69,34L73,34L74,33L81,33L83,35L84,35L85,36L86,36L87,37L90,37L91,38L100,38L100,42L89,42L88,41L85,41L84,40L83,40L80,37L74,37L73,38L71,38L69,40L69,41L66,44L66,45L67,46L67,52L65,54L65,61L62,64L54,64L53,63L49,63L47,65L44,65L43,66L42,66L40,68L37,68L36,69L36,74L38,76L40,76L42,78L42,84L38,84L38,80L37,79L35,79L33,77L33,76L32,75L32,69L31,68L31,66L33,64L38,64L41,61L44,61L45,60L46,60L47,59L54,59L55,60L60,60L61,59L61,53L63,51L63,48L62,47L58,47L57,46L56,46L53,43L53,34L51,32L51,31L52,30L52,29L55,26L57,26L62,21L67,21L68,20L68,18L67,17L67,16Z M53,18L57,18L58,19L58,20L56,22L53,22L52,21L52,19Z M20,35L21,35L22,36L22,38L21,39L21,40L24,43L30,43L31,42L32,42L33,43L33,45L34,46L34,48L33,49L32,49L30,47L25,47L24,46L23,46L22,45L21,45L17,41L17,40L16,39L16,38L18,36L19,36Z M44,68L45,68L47,70L47,71L48,72L48,74L47,75L46,75L44,73L44,71L43,70L43,69Z" fill="#83e1c3" fill-opacity="0.5" fill-rule="evenodd" />
</svg>