<?xml version="1.0" encoding="UTF-8"?>
<svg xmlns="http://www.w3.org/2000/svg" viewBox="0 0 112 96" width="448" height="384">
  <rect x="0" y="0" width="112" height="96" fill="#347941" />
  <path d="M17,13L96,13L99,16L98,17L98,18L99,19L99,28L95,32L92,32L91,31L86,31L85,32L78,32L77,31L76,31L73,28L73,27L72,27L71,28L64,28L62,30L62,31L61,32L60,32L58,34L40,34L39,35L33,35L32,36L30,36L29,35L22,35L20,37L20,38L21,39L21,49L22,50L22,53L21,54L21,56L19,58L15,58L13,56L13,44L14,43L14,38L13,37L13,31L14,30L14,26L13,25L13,17Z" fill="#35a043" fill-rule="evenodd" />
  <path d="M18,14L65,14L66,15L67,15L68,16L68,22L66,24L61,24L59,22L52,22L51,23L49,23L48,22L43,22L42,23L42,24L40,26L38,26L37,25L28,25L27,24L26,24L25,23L24,23L23,24L15,24L14,23L14,18Z" fill="#4ac34e" fill-rule="evenodd" />
  <path d="M19,16L22,16L23,17L23,19L22,20L22,27L23,28L24,28L25,29L25,30L26,31L26,37L25,38L25,42L28,45L29,45L30,46L32,46L33,45L35,45L39,41L39,39L42,36L48,36L48,32L46,30L46,29L47,28L53,28L54,29L54,30L52,32L52,36L53,36L54,37L58,37L59,38L60,38L61,39L62,39L64,41L64,48L63,49L63,50L64,51L64,52L65,53L67,53L68,54L77,54L79,52L79,51L82,48L82,43L83,42L83,41L85,39L92,39L93,38L101,38L101,42L95,42L94,43L88,43L86,45L86,50L83,53L83,54L79,58L67,58L66,57L65,57L64,56L63,56L60,53L60,52L59,51L59,48L60,47L60,43L59,42L58,42L57,41L54,41L53,40L44,40L43,41L43,43L39,47L39,49L40,50L40,54L38,56L37,56L35,58L35,64L39,68L39,69L43,73L43,78L42,79L42,85L38,85L38,79L39,78L39,74L35,70L35,69L31,65L31,56L34,53L35,53L36,52L36,50L35,49L33,49L32,50L29,50L27,48L26,48L22,44L22,43L21,42L21,37L22,36L22,31L21,30L20,30L18,28L18,21L16,19L16,18L17,17L18,17Z M90,22L93,22L94,23L94,25L90,29L89,29L88,28L88,25L89,24L89,23Z M21,59L23,59L24,60L24,62L22,64L20,64L18,62L18,61L19,60L20,60Z" fill="#9CFFE8" fill-opacity="0.77" fill-rule="evenodd" />
</svg>