<?xml version="1.0" encoding="UTF-8"?>
<svg xmlns="http://www.w3.org/2000/svg" viewBox="0 0 112 96" width="448" height="384">
  <rect x="0" y="0" width="112" height="96" fill="#347941" />
  <path d="M21,13L96,13L99,16L99,21L98,22L97,22L96,23L96,26L98,26L99,27L99,31L98,32L98,38L99,39L99,47L98,48L98,52L99,53L99,59L98,60L97,60L96,59L94,59L93,58L91,58L91,53L90,52L90,51L89,50L81,50L78,47L78,42L77,41L76,41L75,40L70,40L67,37L55,37L54,36L54,34L52,32L50,32L48,30L40,30L38,32L28,32L27,31L26,31L25,32L24,31L24,30L23,29L23,27L22,26L22,22L21,21L21,18L20,17L20,14Z" fill="#35a043" fill-rule="evenodd" />
  <path d="M26,14L41,14L43,16L43,19L42,20L41,20L39,22L29,22L28,21L27,21L26,20L26,18L25,17L25,15Z M62,14L87,14L88,15L88,18L86,20L86,24L83,27L83,30L82,31L82,32L80,34L75,34L74,33L69,33L68,32L67,32L66,31L66,26L63,23L63,20L61,18L61,15Z" fill="#4ac34e" fill-rule="evenodd" />
  <path d="M31,16L38,16L39,17L39,19L38,20L36,20L36,25L34,27L33,27L32,28L32,37L34,39L35,39L36,40L36,41L37,42L37,47L39,49L39,52L40,53L40,57L41,58L45,58L46,57L47,57L49,55L54,55L56,53L57,53L58,52L60,52L61,51L61,45L59,43L59,42L58,41L58,31L63,26L70,26L71,25L72,25L73,24L73,20L72,20L71,19L71,17L72,16L79,16L80,17L80,19L79,20L77,20L77,25L73,29L71,29L70,30L64,30L62,32L62,40L63,41L63,42L65,44L65,51L66,52L68,52L69,53L71,53L73,55L79,55L80,54L82,54L83,55L84,55L86,57L86,59L87,60L88,60L89,61L89,72L86,75L85,75L84,76L80,76L79,77L77,77L76,78L75,78L74,79L74,83L73,84L70,84L70,77L72,75L73,75L75,73L79,73L80,72L83,72L85,70L85,63L83,61L83,60L82,59L71,59L69,57L67,57L66,56L59,56L58,57L57,57L55,59L50,59L48,61L47,61L46,62L39,62L36,59L36,54L35,53L35,51L33,49L33,43L32,42L31,42L30,41L22,41L21,42L12,42L12,38L18,38L19,37L27,37L28,36L28,26L30,24L31,24L32,23L32,20L31,20L30,19L30,17Z M87,35L90,35L92,37L92,38L91,39L91,40L90,41L89,41L88,42L87,42L85,40L85,39L86,38L86,36Z M76,62L77,62L78,63L78,65L77,66L77,67L78,68L78,69L77,70L76,70L73,67L73,65Z" fill="#83e1c3" fill-opacity="0.5" fill-rule="evenodd" />
</svg>