<?xml version="1.0" encoding="UTF-8"?>
<svg xmlns="http://www.w3.org/2000/svg" viewBox="0 0 112 96" width="448" height="384">
  <rect x="0" y="0" width="112" height="96" fill="#347941" />
  <path d="M35,13L96,13L99,16L99,17L98,18L98,19L99,20L99,29L98,30L98,32L99,33L99,41L98,42L98,44L99,45L99,49L98,50L98,53L99,54L99,56L98,57L98,58L99,59L99,61L97,63L96,63L95,62L93,62L92,61L93,60L93,59L92,59L89,56L88,56L87,55L87,54L88,53L88,48L86,46L84,46L81,43L78,43L77,42L76,42L75,43L72,40L71,40L70,41L61,41L59,39L59,38L58,37L58,36L57,35L56,35L54,33L53,33L52,32L51,32L50,33L49,32L48,32L47,31L41,31L40,30L38,30L36,28L35,28L34,27L34,19L33,18L34,17L34,16L33,15Z" fill="#35a043" fill-rule="evenodd" />
  <path d="M55,14L83,14L84,15L84,18L82,20L82,21L79,24L67,24L66,23L65,23L63,21L60,21L59,20L58,20L57,19L55,19L54,18L54,15Z M91,21L96,21L98,23L98,28L97,29L97,30L96,31L96,34L98,36L98,39L97,40L90,40L89,39L89,38L88,37L87,37L86,36L86,26L87,25L87,23L88,22L90,22Z" fill="#4ac34e" fill-rule="evenodd" />
  <path d="M69,16L76,16L77,17L77,19L76,20L75,20L74,21L74,26L72,28L72,29L73,30L78,30L80,28L89,28L90,27L90,26L91,25L93,25L94,26L94,30L95,31L95,33L93,35L91,35L90,34L90,33L89,32L82,32L80,34L72,34L71,35L71,36L69,38L69,46L71,48L72,48L73,49L78,49L79,50L81,50L84,53L84,62L83,63L83,64L80,67L76,67L75,68L75,74L74,75L74,85L70,85L70,74L71,73L71,66L73,64L74,64L75,63L78,63L80,61L80,55L79,54L78,54L77,53L72,53L71,52L70,52L68,50L62,50L60,52L60,58L56,62L45,62L42,59L42,58L41,57L41,48L39,46L39,42L38,41L38,40L36,38L29,38L28,39L27,39L26,40L24,40L23,41L20,41L19,42L11,42L11,38L18,38L19,37L22,37L23,36L25,36L26,35L27,35L28,34L38,34L42,38L42,39L43,40L43,45L45,47L45,56L47,58L54,58L56,56L56,50L60,46L64,46L65,45L65,36L67,34L67,33L68,32L68,28L70,26L70,21L68,19L68,17Z M40,17L42,17L43,18L43,21L42,22L42,25L41,26L40,26L38,24L31,24L29,26L27,26L26,25L26,24L25,23L25,21L26,20L26,19L27,18L29,18L31,20L37,20Z M28,58L30,58L31,59L31,62L29,64L27,64L26,63L25,63L24,62L24,60L25,59L27,59Z" fill="#9CFFE8" fill-opacity="0.77" fill-rule="evenodd" />
</svg>