<?xml version="1.0" encoding="UTF-8"?>
<svg xmlns="http://www.w3.org/2000/svg" viewBox="0 0 112 96" width="448" height="384">
  <rect x="0" y="0" width="112" height="96" fill="#347941" />
  <path d="M16,13L96,13L99,16L99,26L98,27L98,29L95,32L94,31L93,31L92,32L89,32L88,31L85,31L84,30L83,30L82,29L66,29L65,30L62,30L61,31L61,33L60,34L57,34L56,33L55,33L54,34L53,34L52,35L51,35L50,36L50,37L48,39L48,40L45,43L33,43L32,42L31,42L28,39L23,39L22,38L18,38L17,37L17,36L16,35L15,35L14,34L14,25L13,24L13,16Z" fill="#35a043" fill-rule="evenodd" />
  <path d="M24,14L43,14L44,15L44,21L42,23L42,24L43,25L43,27L37,33L30,33L29,32L28,32L24,28L24,26L25,25L25,24L24,23L24,20L23,19L24,18L24,17L23,16L23,15Z M65,14L95,14L98,17L98,24L97,25L97,27L96,28L95,28L94,29L87,29L86,28L85,28L84,27L83,27L82,26L82,25L80,23L67,23L65,21L65,18L64,17L64,15Z" fill="#4ac34e" fill-rule="evenodd" />
  <path d="M68,16L74,16L75,17L75,18L73,20L73,24L74,25L74,31L75,32L76,32L77,33L78,33L80,35L85,35L87,37L88,37L89,38L101,38L101,42L89,42L88,41L87,41L85,39L80,39L78,37L77,37L76,36L74,36L73,35L71,35L70,36L68,36L67,37L66,37L64,39L64,43L63,44L63,47L64,48L64,52L60,56L59,56L57,58L56,58L55,57L48,57L47,58L45,58L44,59L41,59L40,60L33,60L32,61L30,61L29,62L29,63L28,64L28,68L31,71L31,72L33,74L38,74L39,75L40,75L42,77L42,85L38,85L38,79L37,78L33,78L32,77L30,77L27,74L27,73L26,72L26,71L24,69L24,64L25,63L25,61L30,56L38,56L39,55L42,55L43,54L44,54L46,52L46,50L45,49L42,49L39,46L39,41L38,40L35,40L34,39L34,38L31,35L31,30L29,28L29,26L30,25L33,25L34,24L36,24L38,26L38,28L37,29L36,29L35,30L35,34L37,36L40,36L43,39L43,44L44,45L46,45L50,49L50,52L51,53L56,53L57,52L59,52L60,51L60,49L59,48L59,42L60,41L60,38L64,34L65,34L66,33L67,33L68,32L69,32L70,31L70,26L69,25L69,20L67,18L67,17Z M17,24L19,24L21,26L21,28L20,29L20,30L19,31L18,31L16,29L16,25Z M65,74L67,74L69,76L69,79L68,80L66,80L64,78L64,75Z" fill="#9CFFE8" fill-opacity="0.77" fill-rule="evenodd" />
</svg>