<?xml version="1.0" encoding="UTF-8"?>
<svg xmlns="http://www.w3.org/2000/svg" viewBox="0 0 112 96" width="448" height="384">
  <rect x="0" y="0" width="112" height="96" fill="#347941" />
  <path d="M16,13L95,13L96,14L96,19L95,20L95,21L93,23L93,26L91,28L90,28L88,30L80,30L79,31L78,31L77,32L71,32L68,35L63,35L62,34L62,33L53,33L49,37L49,40L48,41L48,43L47,44L38,44L37,45L37,46L36,47L36,48L34,50L31,50L30,51L30,52L28,54L18,54L17,53L14,53L13,52L13,44L14,43L14,38L13,37L13,26L14,25L14,15Z" fill="#35a043" fill-rule="evenodd" />
  <path d="M41,14L57,14L58,15L58,24L56,26L53,26L51,28L46,28L44,26L44,25L43,24L43,23L42,22L42,20L40,18L40,15Z M16,23L18,23L20,25L30,25L31,26L32,26L36,30L36,34L35,35L35,37L33,39L32,39L32,40L30,42L18,42L17,41L16,41L15,40L15,35L14,34L14,29L15,28L15,24Z" fill="#4ac34e" fill-rule="evenodd" />
  <path d="M77,15L83,15L84,16L84,18L83,19L82,19L82,23L86,27L86,33L87,34L89,34L92,37L93,37L94,38L101,38L101,42L93,42L92,41L91,41L88,38L82,38L80,40L79,40L78,41L77,41L76,42L72,42L69,45L69,48L68,49L68,51L63,56L56,56L55,55L53,55L52,54L47,54L46,55L45,55L43,57L43,60L44,61L44,64L45,65L45,66L48,69L48,73L46,75L46,77L45,78L44,78L42,80L42,85L38,85L38,78L41,75L42,75L43,74L43,73L44,72L44,70L40,66L40,65L39,64L39,61L38,60L33,60L31,62L24,62L20,58L20,50L21,49L21,48L23,46L23,39L22,38L21,38L20,37L20,35L21,34L28,34L29,35L29,37L27,39L27,47L25,49L25,50L24,51L24,57L25,58L30,58L32,56L39,56L40,55L40,54L43,51L46,51L47,50L53,50L54,51L56,51L57,52L62,52L64,50L64,49L65,48L65,44L71,38L75,38L76,37L77,37L78,36L79,36L82,33L82,28L79,25L76,25L75,26L69,26L68,25L65,25L63,23L62,23L61,22L53,22L53,23L52,24L50,24L49,23L49,17L50,16L52,16L53,17L53,18L62,18L63,19L64,19L66,21L69,21L70,22L74,22L75,21L78,21L78,19L77,19L76,18L76,16Z M24,17L25,17L26,18L27,18L28,17L29,17L31,19L31,20L30,21L29,21L28,20L27,20L26,21L25,21L23,19L23,18Z M73,47L75,47L76,48L76,49L77,50L77,52L76,53L76,54L75,55L73,55L72,54L72,53L73,52L73,51L72,50L72,48Z" fill="#83e1c3" fill-opacity="0.5" fill-rule="evenodd" />
</svg>