<?xml version="1.0" encoding="UTF-8"?>
<svg xmlns="http://www.w3.org/2000/svg" viewBox="0 0 112 96" width="448" height="384">
  <rect x="0" y="0" width="112" height="96" fill="#347941" />
  <path d="M16,13L96,13L99,16L99,22L98,23L98,26L97,27L96,27L95,28L94,28L92,30L90,30L89,31L87,31L86,30L85,30L84,31L81,31L80,32L78,32L77,33L63,33L62,34L60,34L57,37L49,37L48,38L47,38L46,39L42,39L41,38L40,38L39,39L32,39L30,41L30,42L28,44L26,44L22,48L22,49L21,50L15,50L14,49L14,44L13,43L13,38L14,37L14,36L13,35L14,34L14,26L13,25L13,16Z M16,64L22,64L24,66L24,67L26,69L26,71L27,72L27,77L28,78L28,81L26,83L24,83L23,82L21,82L20,81L19,81L18,82L17,82L16,81L16,80L15,79L14,79L13,78L13,75L14,74L14,71L13,70L13,69L14,68L14,66Z" fill="#35a043" fill-rule="evenodd" />
  <path d="M17,14L55,14L56,15L56,17L55,18L53,18L52,19L50,19L47,22L34,22L33,23L33,24L32,25L31,25L29,27L26,27L24,29L23,29L21,31L15,31L15,24L14,23L14,17Z M78,14L95,14L98,17L98,20L96,22L95,22L93,24L87,24L86,23L81,23L78,20L78,19L77,18L78,17L78,16L77,15Z" fill="#4ac34e" fill-rule="evenodd" />
  <path d="M38,16L44,16L45,17L45,19L44,20L43,20L43,24L44,25L51,25L52,24L53,24L54,23L61,23L62,22L65,22L68,25L69,25L71,27L71,28L72,29L72,38L73,39L79,39L80,40L87,40L88,39L90,39L91,38L101,38L101,42L93,42L92,43L91,43L89,45L88,45L87,44L82,44L81,45L80,45L79,44L73,44L72,43L69,43L67,45L66,45L64,47L64,50L66,52L66,57L65,58L65,59L62,62L60,62L59,61L54,61L53,62L51,62L50,61L49,61L48,60L41,60L39,62L38,62L37,63L37,70L39,72L39,76L42,79L42,85L38,85L38,80L35,77L35,73L33,71L33,63L34,62L34,60L36,58L37,58L38,57L39,57L40,56L43,56L44,55L44,49L43,48L40,48L39,47L38,47L35,44L35,31L39,27L39,20L38,20L37,19L37,17Z M68,17L70,17L71,18L73,18L74,19L74,21L73,22L71,22L70,21L68,21L67,20L67,18Z M55,27L54,28L53,28L52,29L46,29L45,30L41,30L40,31L40,32L39,33L39,42L41,44L44,44L48,48L48,55L49,56L52,56L53,57L60,57L62,55L62,53L60,51L60,44L65,39L67,39L68,38L68,30L67,29L66,29L64,27Z M53,66L55,66L56,67L57,67L58,68L58,69L57,70L57,71L58,72L58,73L57,74L56,74L55,73L53,73L52,72L52,71L53,70L53,69L52,68L52,67Z" fill="#83e1c3" fill-opacity="0.5" fill-rule="evenodd" />
</svg>