<?xml version="1.0" encoding="UTF-8"?>
<svg xmlns="http://www.w3.org/2000/svg" viewBox="0 0 112 96" width="448" height="384">
  <rect x="0" y="0" width="112" height="96" fill="#347941" />
  <path d="M16,13L96,13L99,16L99,29L98,30L97,30L95,32L95,34L94,35L83,35L82,34L81,34L80,35L79,35L78,34L78,33L77,32L76,32L75,31L75,30L74,30L73,31L69,31L68,30L64,30L63,31L62,31L61,32L60,32L57,35L48,35L45,32L43,32L40,29L35,29L34,30L33,30L30,33L30,34L31,35L31,40L29,42L29,43L28,44L27,44L25,46L24,46L23,45L15,45L14,44L14,41L13,40L13,39L14,38L14,37L13,36L13,35L14,34L14,26L13,25L13,16Z" fill="#35a043" fill-rule="evenodd" />
  <path d="M17,14L31,14L33,16L33,19L31,21L25,21L22,24L20,24L19,25L19,29L18,30L18,31L17,32L16,32L15,31L15,25L14,24L14,17Z M45,14L65,14L66,15L66,18L67,19L67,21L64,24L55,24L52,21L51,21L50,22L48,22L47,21L46,21L45,20L45,19L44,18L44,15Z M74,14L95,14L98,17L98,23L97,24L89,24L88,25L82,25L81,24L80,24L75,19L75,18L74,17Z" fill="#4ac34e" fill-rule="evenodd" />
  <path d="M36,16L37,16L38,17L39,17L40,16L41,16L42,17L42,18L39,21L38,21L35,18L35,17Z M55,17L62,17L63,18L63,20L62,21L61,21L60,22L60,27L58,29L56,29L55,30L54,30L53,31L53,39L54,40L59,40L60,41L61,41L62,42L63,42L69,48L69,49L70,50L70,51L72,53L79,53L82,50L82,43L86,39L86,31L90,27L90,26L91,25L91,21L89,19L89,18L90,17L96,17L97,18L97,20L95,22L95,26L94,27L94,28L90,32L90,41L86,45L86,49L88,51L89,51L94,56L94,61L95,62L95,66L94,67L94,68L92,70L92,77L90,79L90,85L86,85L86,77L88,75L88,68L91,65L91,62L90,61L90,58L87,55L86,55L85,54L83,54L80,57L70,57L68,55L68,54L67,53L67,52L65,50L65,49L62,46L61,46L60,45L59,45L58,44L53,44L52,43L50,43L49,44L44,44L42,46L42,47L39,50L38,50L36,52L36,54L37,55L37,57L36,58L36,63L34,65L33,65L31,67L31,74L26,79L26,85L22,85L22,76L24,74L25,74L27,72L27,65L29,63L30,63L32,61L32,58L31,57L27,57L24,54L23,54L20,51L20,50L19,49L19,41L17,39L17,38L19,36L25,36L26,37L26,39L25,40L24,40L23,41L23,49L24,50L25,50L28,53L31,53L32,52L32,49L34,47L36,47L38,45L38,44L40,42L40,41L41,40L48,40L49,39L49,30L52,27L53,27L54,26L55,26L56,25L56,22L54,20L54,18Z M18,63L19,63L23,67L23,68L22,69L20,69L18,67L18,66L17,65L17,64Z" fill="#83e1c3" fill-opacity="0.5" fill-rule="evenodd" />
</svg>