<?xml version="1.0" encoding="UTF-8"?>
<svg xmlns="http://www.w3.org/2000/svg" viewBox="0 0 112 96" width="448" height="384">
  <rect x="0" y="0" width="112" height="96" fill="#347941" />
  <path d="M16,13L95,13L96,14L96,21L93,24L84,24L83,25L80,25L78,27L78,28L75,31L75,32L72,35L70,35L69,34L65,34L64,35L61,35L60,34L54,34L52,32L39,32L36,35L36,36L32,40L32,43L30,45L27,45L26,46L20,46L19,45L15,45L14,44L14,43L13,42L13,39L14,38L14,35L13,34L13,16Z" fill="#35a043" fill-rule="evenodd" />
  <path d="M17,14L33,14L34,15L34,20L33,21L33,25L32,26L32,31L29,34L25,34L24,35L22,35L21,34L18,34L17,33L15,33L14,32L14,17Z M49,14L69,14L70,15L70,21L69,22L67,22L66,23L53,23L52,22L50,22L48,20L48,15Z" fill="#4ac34e" fill-rule="evenodd" />
  <path d="M60,16L61,16L62,17L62,18L61,19L61,20L62,21L62,25L63,26L63,27L64,28L66,28L69,31L69,36L70,37L70,43L71,44L74,44L76,46L81,46L82,47L86,47L88,45L88,44L91,41L91,40L93,38L101,38L101,42L95,42L94,43L94,44L91,47L91,48L88,51L81,51L80,50L76,50L75,49L74,49L73,48L71,48L70,47L67,47L66,48L60,48L59,49L55,49L54,50L54,54L49,59L47,59L46,60L44,60L41,63L40,63L38,65L38,72L41,75L41,77L42,78L42,85L38,85L38,79L37,78L37,76L35,74L35,73L34,72L34,63L37,60L38,60L42,56L45,56L46,55L48,55L51,52L51,48L54,45L59,45L60,44L66,44L67,43L67,39L65,37L65,32L64,31L63,31L60,28L60,27L58,25L58,21L56,19L56,18L57,17L59,17Z M85,18L86,18L87,19L88,19L89,20L89,21L88,22L88,25L89,26L89,28L88,29L85,29L83,27L83,26L84,25L84,22L83,21L83,20Z M23,21L24,21L26,23L26,26L24,28L23,28L22,27L22,22Z M46,26L47,26L48,27L49,27L50,28L50,29L49,30L49,33L50,34L50,35L49,36L48,36L47,37L45,37L44,36L44,34L45,33L45,30L44,29L44,28Z M24,71L25,71L26,72L26,74L25,75L24,75L23,76L21,76L20,75L20,73L21,72L23,72Z" fill="#9CFFE8" fill-opacity="0.77" fill-rule="evenodd" />
</svg>