<?xml version="1.0" encoding="UTF-8"?>
<svg xmlns="http://www.w3.org/2000/svg" viewBox="0 0 112 96" width="448" height="384">
  <rect x="0" y="0" width="112" height="96" fill="#347941" />
  <path d="M33,13L96,13L99,16L99,29L98,30L96,30L95,31L92,31L92,32L91,33L89,33L87,31L83,31L82,32L79,32L78,31L71,31L70,32L66,32L65,31L65,30L64,30L62,32L55,32L54,33L53,33L52,34L50,34L48,32L48,29L47,28L47,21L46,20L44,20L43,19L43,18L42,18L41,19L40,19L39,20L37,20L36,19L34,19L32,17L32,14Z M14,30L16,30L17,31L19,31L20,32L27,32L29,34L29,35L30,36L30,39L29,40L29,43L30,44L30,48L29,49L29,50L30,51L30,55L32,57L32,60L31,61L30,61L30,62L31,63L29,65L29,66L28,67L27,67L26,66L22,66L21,67L21,68L17,72L14,72L13,71L13,68L14,67L14,64L15,63L15,61L14,60L14,59L13,58L13,57L14,56L14,54L13,53L13,43L14,42L14,39L13,38L13,31Z" fill="#35a043" fill-rule="evenodd" />
  <path d="M52,14L73,14L74,15L74,18L73,19L72,19L70,21L66,21L65,22L60,22L59,21L58,21L57,20L55,20L53,18L52,18L51,17L51,15Z M82,14L95,14L98,17L98,24L97,25L96,25L95,26L94,26L92,28L88,28L87,27L86,27L85,26L85,25L84,24L84,20L83,19L82,19L81,18L81,15Z M15,32L18,32L19,33L24,33L25,34L25,39L24,40L24,41L23,42L23,47L22,48L22,49L19,52L19,54L18,55L16,55L15,54L15,52L14,51L14,45L15,44L15,43L16,42L16,39L14,37L14,33Z" fill="#4ac34e" fill-rule="evenodd" />
  <path d="M89,17L91,17L92,18L92,25L91,26L89,26L88,25L88,24L81,24L80,25L79,25L78,26L70,26L69,27L58,27L57,26L52,26L51,27L43,27L41,29L40,29L38,31L38,36L39,37L39,48L42,51L43,51L50,58L50,59L51,60L56,60L58,62L61,62L62,61L63,61L64,60L64,56L63,55L63,54L61,52L61,48L60,47L60,46L58,44L58,40L60,38L60,37L61,36L63,36L64,35L75,35L76,36L77,36L78,37L80,37L81,38L90,38L91,37L94,37L95,38L100,38L100,42L95,42L94,41L91,41L90,42L81,42L80,41L76,41L75,40L74,40L73,39L65,39L64,40L63,40L62,41L62,43L64,45L64,47L65,48L65,50L67,52L67,53L68,54L68,61L64,65L63,65L62,66L57,66L56,65L49,65L47,63L46,63L45,64L45,71L42,74L42,84L38,84L38,73L40,71L40,68L41,67L41,62L43,60L43,58L40,55L40,54L35,49L35,48L34,47L34,43L35,42L35,38L34,37L34,30L39,25L40,25L42,23L50,23L51,22L58,22L59,23L68,23L69,22L77,22L78,21L79,21L80,20L88,20L88,18Z M21,22L23,22L24,23L25,23L26,22L28,22L29,23L29,25L28,26L26,26L25,25L24,25L23,26L21,26L20,25L20,23Z M47,40L49,40L50,41L50,42L52,44L52,45L51,46L49,46L47,44L47,43L46,42L46,41Z" fill="#83e1c3" fill-opacity="0.5" fill-rule="evenodd" />
</svg>