<?xml version="1.0" encoding="UTF-8"?>
<svg xmlns="http://www.w3.org/2000/svg" viewBox="0 0 112 96" width="448" height="384">
  <rect x="0" y="0" width="112" height="96" fill="#347941" />
  <path d="M22,13L96,13L99,16L99,26L98,27L98,33L97,34L97,35L98,35L99,36L99,56L97,58L93,58L91,56L90,56L88,54L88,51L85,48L85,47L84,46L84,45L83,44L83,40L81,38L79,38L78,37L71,37L68,40L66,40L65,39L64,39L63,40L59,40L56,37L42,37L41,36L41,35L40,34L39,34L37,32L30,32L28,30L26,30L24,28L24,24L21,21L21,14Z" fill="#35a043" fill-rule="evenodd" />
  <path d="M23,14L33,14L34,15L34,18L33,19L31,19L30,20L30,21L29,22L24,22L22,20L22,15Z M69,14L95,14L98,17L98,24L97,25L97,27L96,28L94,28L93,29L90,29L89,28L89,27L87,25L74,25L71,22L70,22L69,21L69,19L68,18L68,15Z M92,45L96,45L98,47L98,55L96,57L94,57L92,55L91,55L89,53L89,49L90,48L90,47Z" fill="#4ac34e" fill-rule="evenodd" />
  <path d="M78,18L80,18L82,20L82,21L81,22L81,27L77,31L74,31L73,32L72,32L71,33L65,33L63,31L62,31L61,30L54,30L51,33L51,42L52,43L52,44L53,45L54,45L55,46L56,46L58,48L58,50L60,52L60,55L62,57L65,57L66,58L73,58L74,59L77,59L81,63L81,70L80,71L80,73L75,78L75,79L74,80L74,85L70,85L70,79L72,77L72,76L73,75L73,74L77,70L77,69L78,68L78,65L76,63L73,63L72,62L65,62L64,61L61,61L57,57L57,54L55,52L55,50L54,49L52,49L49,46L47,46L46,47L45,47L43,49L43,50L42,51L42,57L40,59L40,60L37,63L30,63L25,58L25,56L24,55L24,47L23,46L22,46L20,44L19,44L17,42L11,42L11,38L18,38L20,40L21,40L23,42L24,42L27,45L27,53L28,54L28,56L31,59L36,59L38,57L38,56L39,55L39,50L38,49L38,48L40,46L41,46L44,43L46,43L47,42L47,33L48,32L48,31L50,29L51,29L53,27L62,27L63,28L64,28L66,30L70,30L71,29L72,29L73,28L75,28L77,26L77,23L76,22L76,20Z M33,37L34,37L35,38L35,43L34,44L32,44L31,43L31,39Z M92,37L96,37L97,38L97,39L95,41L91,41L90,40L90,39Z" fill="#9CFFE8" fill-opacity="0.77" fill-rule="evenodd" />
</svg>