<?xml version="1.0" encoding="UTF-8"?>
<svg xmlns="http://www.w3.org/2000/svg" viewBox="0 0 112 96" width="448" height="384">
  <rect x="0" y="0" width="112" height="96" fill="#347941" />
  <path d="M23,13L92,13L93,14L93,20L91,22L88,22L87,23L84,23L83,24L83,26L81,28L79,28L77,26L77,25L74,22L68,22L67,21L62,21L60,19L59,19L58,18L55,18L55,20L56,20L56,21L55,21L55,23L52,26L52,28L50,30L45,30L45,29L50,29L51,28L51,26L54,23L54,21L50,21L49,22L48,22L48,21L49,21L50,20L54,20L54,18L51,18L50,17L50,16L51,17L54,17L54,15L32,15L31,14L23,14Z M55,14L55,17L58,17L59,18L60,18L62,20L67,20L68,21L74,21L78,25L78,27L81,27L82,26L82,24L83,23L83,22L82,22L82,21L86,21L87,20L90,20L91,19L91,15L82,15L81,14Z M32,20L33,20L33,21L32,21Z M61,23L65,23L65,24L61,24Z M32,24L33,24L34,25L34,27L35,28L35,29L34,30L32,30L31,29L34,29L34,28L33,27L33,25L32,25Z M37,24L40,24L40,25L37,25Z M67,24L72,24L72,25L67,25Z M91,25L92,26L92,27L93,28L93,30L91,32L89,32L89,31L91,31L92,30L92,28L91,27Z M74,28L73,29L72,29L71,30L70,30L69,31L69,32L68,33L64,33L63,34L63,36L60,39L60,40L58,42L58,43L55,46L48,46L47,45L45,45L45,44L46,44L47,45L55,45L57,43L57,42L59,40L59,39L62,36L62,34L64,32L68,32L68,31L70,29L71,29L72,28Z M78,29L78,36L76,38L76,39L73,42L72,42L71,43L71,44L69,46L69,48L67,50L67,52L68,53L69,53L70,54L71,54L72,55L73,55L77,59L79,59L80,58L82,58L83,57L87,57L88,56L86,58L85,58L85,60L87,60L90,57L90,56L91,55L91,49L92,48L92,45L91,45L91,44L92,44L93,45L93,48L92,49L92,55L91,56L91,57L87,61L83,61L82,62L81,62L80,63L80,64L79,65L79,71L76,74L76,75L75,76L75,77L74,78L74,85L73,85L73,78L74,77L74,76L75,75L75,74L78,71L78,65L79,64L79,63L81,61L82,61L83,60L84,60L84,58L82,58L81,59L79,59L78,60L77,60L73,56L72,56L71,55L70,55L69,54L68,54L66,52L66,50L68,48L68,46L70,44L70,43L72,41L73,41L75,39L75,38L77,36L77,29Z M29,35L33,35L33,36L29,36Z M88,36L97,36L99,38L99,63L98,64L98,66L97,67L88,67L85,64L87,66L97,66L97,64L98,63L98,38L97,37L88,37Z M11,38L17,38L19,40L20,40L21,41L28,41L31,44L31,45L32,46L37,46L40,49L40,53L41,54L41,56L42,57L43,57L44,58L49,58L50,57L57,57L58,56L60,56L63,53L64,53L63,54L62,54L59,57L57,57L56,58L49,58L48,59L44,59L43,58L42,58L40,56L40,54L39,53L39,49L37,47L32,47L30,45L30,44L28,42L21,42L20,41L19,41L17,39L11,39Z M37,38L39,38L39,39L37,39Z M11,41L15,41L15,42L11,42Z M20,44L26,44L26,45L20,45Z M31,49L35,49L35,50L31,50Z M65,55L65,56L64,57L63,57L60,60L58,60L57,61L50,61L49,62L43,62L42,61L41,61L39,59L40,60L41,60L42,61L49,61L50,60L57,60L58,59L60,59L63,56L64,56Z" fill="#9CFFE8" fill-opacity="0.77" fill-rule="evenodd" />
</svg>