<?xml version="1.0" encoding="UTF-8"?>
<svg xmlns="http://www.w3.org/2000/svg" viewBox="0 0 112 96" width="448" height="384">
  <rect x="0" y="0" width="112" height="96" fill="#347941" />
  <path d="M25,13L96,13L99,16L99,23L98,24L97,24L97,27L99,29L99,34L98,35L98,37L99,38L99,43L98,44L98,45L97,46L97,49L99,51L99,60L98,61L98,64L99,65L98,66L98,67L99,68L98,69L91,69L89,67L87,67L82,62L82,59L83,58L83,57L80,54L80,51L79,50L79,43L77,41L77,38L79,36L79,34L77,32L76,32L75,31L71,31L69,33L67,33L66,32L64,32L63,33L60,33L59,34L58,34L56,36L54,36L53,35L48,35L46,33L44,33L43,32L41,32L40,33L30,33L29,32L28,32L27,31L27,28L26,27L26,24L25,23L25,20L24,19L24,14Z" fill="#35a043" fill-rule="evenodd" />
  <path d="M26,14L42,14L44,16L44,18L43,19L42,19L41,20L40,20L38,22L36,22L34,24L28,24L26,22L26,20L25,19L25,15Z M61,14L83,14L85,16L85,24L82,27L80,27L79,28L78,28L77,27L74,27L73,28L71,28L70,27L67,27L66,26L65,26L64,25L63,25L62,24L62,20L59,17L59,16Z" fill="#4ac34e" fill-rule="evenodd" />
  <path d="M69,16L71,16L72,17L80,17L82,19L88,19L90,21L90,22L92,24L92,32L91,33L91,41L90,42L90,43L89,44L89,47L88,48L88,49L86,51L74,51L73,52L73,58L74,59L74,61L72,63L72,65L71,66L71,73L73,75L73,77L74,78L74,85L70,85L70,79L69,78L69,76L67,74L67,65L68,64L68,61L69,60L69,50L68,49L68,48L66,46L59,46L58,47L46,47L45,46L41,46L40,45L33,45L32,46L26,46L25,47L23,47L21,45L21,44L19,42L11,42L11,38L20,38L23,41L25,41L26,42L32,42L34,40L34,38L32,36L32,29L36,25L44,25L46,23L51,23L54,20L55,20L56,21L56,22L57,23L57,27L56,28L56,29L55,30L53,30L52,29L52,28L51,27L47,27L45,29L37,29L36,30L36,35L38,37L38,40L39,41L40,41L41,42L45,42L46,43L55,43L56,42L67,42L68,43L69,43L70,44L71,44L74,47L84,47L85,46L85,42L86,41L86,40L87,39L87,32L88,31L88,26L87,25L87,24L86,23L82,23L80,21L73,21L71,23L69,23L67,21L67,19L68,18L68,17Z M33,71L34,71L36,73L36,74L37,75L37,77L34,80L33,80L31,78L31,77L30,76L30,75L32,73L32,72Z" fill="#83e1c3" fill-opacity="0.5" fill-rule="evenodd" />
</svg>