<?xml version="1.0" encoding="UTF-8"?>
<svg xmlns="http://www.w3.org/2000/svg" viewBox="0 0 112 96" width="448" height="384">
  <rect x="0" y="0" width="112" height="96" fill="#347941" />
  <path d="M16,13L96,13L99,16L99,24L97,26L94,26L92,28L86,28L85,29L84,29L82,31L73,31L71,33L70,32L69,32L67,34L62,34L61,33L60,33L59,32L56,32L55,31L53,31L52,30L51,30L50,31L47,31L46,30L39,30L38,31L38,35L36,37L36,40L35,41L35,45L34,46L33,46L32,47L32,60L28,64L27,64L26,65L25,65L24,66L23,66L22,67L15,67L13,65L13,63L14,62L14,59L15,58L15,56L14,56L13,55L13,51L14,50L14,45L15,44L15,42L14,42L13,41L13,28L14,27L14,25L13,24L13,16Z" fill="#35a043" fill-rule="evenodd" />
  <path d="M17,14L73,14L74,15L74,17L73,18L73,24L71,26L70,26L68,28L67,28L66,29L63,29L62,28L58,28L57,27L56,27L55,26L54,26L53,25L50,25L49,26L46,26L45,25L39,25L38,24L38,23L36,21L30,21L29,22L29,23L28,24L28,29L29,30L29,36L28,37L28,38L26,40L17,40L16,39L15,39L14,38L14,35L15,34L15,33L14,32L14,30L15,29L15,28L16,27L16,25L15,24L15,23L14,22L14,17Z" fill="#4ac34e" fill-rule="evenodd" />
  <path d="M93,15L94,15L95,16L95,18L94,19L93,19L92,20L91,20L89,18L89,17L90,16L92,16Z M42,16L44,16L46,18L55,18L56,19L58,19L59,20L60,20L61,21L66,21L67,20L68,20L69,19L78,19L81,22L81,34L82,35L83,35L84,36L90,36L92,38L100,38L100,42L90,42L88,40L84,40L83,39L82,39L81,40L80,40L79,39L78,39L77,40L77,41L75,43L75,50L70,55L62,55L57,50L57,47L56,46L56,44L55,43L54,43L53,42L48,42L47,43L46,43L45,44L45,50L44,51L44,58L45,59L45,65L46,66L46,68L45,69L45,74L43,76L43,77L42,78L42,84L38,84L38,77L39,76L39,75L41,73L41,66L40,65L40,61L37,58L36,58L34,56L24,56L23,55L22,55L21,54L20,54L17,51L17,45L18,44L18,43L20,41L20,35L18,35L17,34L17,32L18,31L25,31L26,32L26,34L25,35L24,35L24,42L23,43L23,44L21,46L21,49L22,50L23,50L25,52L36,52L38,54L39,54L40,53L40,49L41,48L41,44L42,43L42,42L45,39L46,39L47,38L54,38L55,39L56,39L57,40L58,40L59,41L59,42L60,43L60,45L61,46L61,49L63,51L69,51L71,49L71,40L73,38L74,38L75,37L75,36L77,34L77,24L76,23L70,23L69,24L68,24L67,25L60,25L59,24L57,24L56,23L54,23L53,22L45,22L44,23L42,23L41,22L41,17Z M60,74L63,74L65,76L65,78L64,79L63,79L62,78L61,78L59,76L59,75Z" fill="#83e1c3" fill-opacity="0.5" fill-rule="evenodd" />
</svg>