<?xml version="1.0" encoding="UTF-8"?>
<svg xmlns="http://www.w3.org/2000/svg" viewBox="0 0 112 96" width="448" height="384">
  <rect x="0" y="0" width="112" height="96" fill="#347941" />
  <path d="M30,13L96,13L99,16L99,31L98,32L98,39L99,40L99,43L98,44L98,45L97,46L97,47L99,49L99,53L98,54L98,56L99,57L99,62L97,64L94,64L93,65L85,65L84,64L83,64L80,61L80,56L82,54L84,54L87,51L87,50L88,49L88,41L85,38L85,37L84,36L81,36L79,34L74,34L72,36L72,37L69,40L56,40L54,38L54,36L53,35L47,35L46,36L43,36L42,37L32,37L28,33L28,32L26,30L26,25L29,22L29,14Z" fill="#35a043" fill-rule="evenodd" />
  <path d="M31,14L41,14L42,15L42,18L41,19L39,19L37,21L37,22L36,23L31,23L30,22L30,15Z M81,14L95,14L98,17L98,28L97,29L97,31L96,32L93,32L90,29L87,29L85,27L83,27L80,24L80,15Z" fill="#4ac34e" fill-rule="evenodd" />
  <path d="M48,16L50,16L51,17L51,21L50,22L49,22L47,20L47,17Z M83,17L85,17L87,19L87,20L86,21L86,22L85,23L84,23L83,22L74,22L72,24L71,24L68,27L66,27L64,29L64,34L63,35L63,37L62,38L62,44L61,45L61,49L62,50L67,50L70,53L70,55L71,56L71,65L70,66L70,67L67,70L67,74L68,75L69,75L72,78L73,78L74,79L74,85L70,85L70,81L68,79L67,79L64,76L64,68L67,65L67,64L68,63L68,58L67,57L67,55L66,54L61,54L60,53L57,53L55,55L54,55L52,57L44,57L43,56L42,56L39,53L39,51L38,50L35,50L34,49L33,49L32,50L26,50L23,47L23,46L22,45L20,45L18,43L17,43L16,42L11,42L11,38L17,38L18,39L19,39L21,41L22,41L23,42L24,42L26,44L26,45L27,46L32,46L33,45L33,42L35,40L35,33L36,32L36,31L40,27L43,27L44,26L47,26L48,25L51,25L52,26L54,26L55,25L56,25L58,23L60,23L61,24L62,24L63,25L64,25L65,24L67,24L70,21L71,21L74,18L82,18Z M58,27L57,28L56,28L55,29L51,29L50,28L49,28L48,29L45,29L44,30L42,30L40,32L40,33L39,34L39,40L38,41L38,42L36,44L36,46L37,47L40,47L42,49L42,51L44,53L51,53L53,51L54,51L57,48L57,44L58,43L58,37L59,36L59,34L61,32L61,28L60,27Z M82,44L84,44L85,45L85,47L84,48L84,49L83,50L81,50L80,49L80,47L81,46L81,45Z" fill="#9CFFE8" fill-opacity="0.77" fill-rule="evenodd" />
</svg>