<?xml version="1.0" encoding="UTF-8"?>
<svg xmlns="http://www.w3.org/2000/svg" viewBox="0 0 112 96" width="448" height="384">
  <rect x="0" y="0" width="112" height="96" fill="#347941" />
  <path d="M16,13L96,13L99,16L98,17L98,18L99,19L99,24L98,25L98,26L97,27L96,27L93,30L92,30L91,29L80,29L79,30L77,30L77,31L76,32L75,32L75,35L74,36L74,37L71,40L67,40L66,39L63,39L62,40L60,40L59,41L51,41L50,40L49,40L47,42L47,44L44,47L43,47L41,49L28,49L27,48L26,48L25,49L24,49L23,48L22,48L18,44L18,43L19,42L19,40L18,39L18,38L16,36L16,35L14,33L14,31L13,30L13,29L14,28L14,26L13,25L13,16Z" fill="#35a043" fill-rule="evenodd" />
  <path d="M19,14L74,14L75,15L75,17L77,19L77,21L76,22L76,23L74,25L74,26L73,27L67,27L65,29L65,30L63,32L62,32L61,33L55,33L54,32L52,32L48,28L48,25L47,24L45,24L44,25L43,25L42,24L39,24L35,28L33,28L32,29L30,29L29,28L21,28L19,26L17,26L14,23L14,19L15,18L15,17L16,16L18,16L18,15Z" fill="#4ac34e" fill-rule="evenodd" />
  <path d="M44,16L51,16L52,17L53,17L54,18L57,18L58,19L59,19L60,20L60,21L61,22L61,23L60,24L59,24L58,25L54,25L53,24L53,23L52,22L51,22L50,21L49,21L48,20L44,20L43,21L37,21L36,22L33,22L30,25L28,25L27,26L27,30L28,31L29,31L30,32L34,32L37,35L38,35L39,36L39,37L40,38L40,44L39,45L38,45L37,46L36,46L35,47L35,53L37,55L42,55L43,54L45,54L46,53L46,52L48,50L55,50L56,49L56,48L58,46L59,46L61,44L68,44L69,45L74,45L75,44L75,43L76,42L76,41L78,39L78,37L81,34L82,34L83,33L86,33L87,34L88,34L90,36L90,37L91,38L101,38L101,42L93,42L92,43L90,43L87,40L87,39L86,38L83,38L82,39L82,40L81,41L81,42L80,43L80,44L79,45L79,46L77,48L76,48L75,49L69,49L68,48L63,48L60,51L60,52L58,54L52,54L51,55L50,55L47,58L45,58L44,59L36,59L35,58L34,58L33,59L33,60L35,62L35,63L36,64L36,68L39,71L42,71L43,72L44,72L45,73L45,78L42,81L42,85L38,85L38,79L40,77L40,76L39,75L38,75L37,74L36,74L32,70L32,64L29,61L29,55L31,53L31,45L32,44L33,44L34,43L35,43L36,42L36,40L35,39L35,38L33,36L28,36L26,34L25,34L23,32L23,25L22,25L21,24L20,24L19,23L19,22L20,21L20,20L21,19L21,18L22,17L30,17L31,18L35,18L36,17L43,17Z M91,19L94,19L95,20L95,21L96,22L96,23L95,24L92,24L91,25L90,25L89,24L89,23L88,22L88,21L89,20L90,20Z M43,61L44,61L45,62L45,63L46,64L46,66L44,68L43,68L42,67L42,66L41,65L41,64L42,63L42,62Z" fill="#83e1c3" fill-opacity="0.5" fill-rule="evenodd" />
</svg>