<?xml version="1.0" encoding="UTF-8"?>
<svg xmlns="http://www.w3.org/2000/svg" viewBox="0 0 112 96" width="448" height="384">
  <rect x="0" y="0" width="112" height="96" fill="#347941" />
  <path d="M16,13L95,13L95,15L96,16L96,19L95,20L94,19L93,19L92,20L91,20L90,21L89,21L89,22L88,23L88,26L87,27L86,27L85,28L84,28L83,29L82,29L81,30L80,30L79,31L73,31L71,29L70,29L68,27L67,27L66,28L59,28L56,31L54,31L53,32L50,32L49,31L48,31L46,33L45,33L43,35L43,37L40,40L29,40L24,45L23,45L22,44L20,44L19,43L18,43L17,44L14,44L13,43L13,38L14,37L14,36L13,35L13,28L14,27L14,23L13,22L13,16Z M15,58L33,58L34,59L35,59L38,62L38,65L37,66L36,66L32,70L30,70L29,71L28,71L27,72L27,73L26,74L23,74L22,75L15,75L13,73L13,71L14,70L14,67L13,66L13,60Z" fill="#35a043" fill-rule="evenodd" />
  <path d="M17,14L23,14L24,15L24,19L25,20L25,21L28,24L28,32L26,34L26,35L25,36L24,36L23,37L15,37L14,36L14,30L15,29L15,21L14,20L14,18L16,16L16,15Z M66,14L81,14L82,15L82,23L81,24L80,24L78,26L72,26L71,25L69,25L68,24L68,23L66,23L65,22L65,15Z" fill="#4ac34e" fill-rule="evenodd" />
  <path d="M38,14L43,14L44,15L45,15L46,16L46,18L45,19L43,19L42,20L42,21L43,22L51,22L52,21L53,21L54,20L56,20L57,19L58,19L60,17L69,17L71,15L73,15L74,16L74,21L73,22L71,22L70,21L61,21L59,23L57,23L56,24L55,24L54,25L53,25L51,27L50,27L49,26L43,26L42,27L42,32L39,35L38,35L37,36L37,42L38,43L39,43L40,44L52,44L54,42L54,40L57,37L58,37L59,36L62,36L63,35L76,35L78,37L79,37L80,38L81,38L82,39L86,39L87,38L101,38L101,42L90,42L89,43L81,43L80,42L78,42L76,40L75,40L74,39L63,39L62,40L60,40L58,42L58,50L60,52L60,53L62,55L63,55L64,56L64,65L61,68L61,69L58,72L48,72L46,74L45,74L44,75L43,75L42,76L42,85L38,85L38,76L39,75L39,74L41,72L42,72L43,71L44,71L47,68L57,68L58,67L58,66L60,64L60,59L58,57L58,56L56,54L55,54L54,53L54,52L53,51L53,50L51,48L39,48L38,47L37,47L33,43L33,35L34,34L34,33L35,32L37,32L38,31L38,20L36,18L36,16Z M90,29L91,29L92,30L92,32L90,34L88,34L87,35L86,35L85,34L85,32L86,31L87,31L88,30L89,30Z M21,60L23,60L24,61L25,61L26,62L26,66L24,68L23,68L22,69L20,69L19,68L19,66L18,65L18,64L17,63L17,62L18,61L20,61Z M23,63L22,63L21,64L21,65L22,66L23,66L24,65L24,64Z" fill="#83e1c3" fill-opacity="0.5" fill-rule="evenodd" />
</svg>