<?xml version="1.0" encoding="UTF-8"?>
<svg xmlns="http://www.w3.org/2000/svg" viewBox="0 0 112 96" width="448" height="384">
  <rect x="0" y="0" width="112" height="96" fill="#347941" />
  <path d="M16,13L96,13L99,16L99,27L98,28L97,28L95,30L91,30L89,32L80,32L79,33L77,33L74,30L74,25L71,22L67,22L66,23L66,28L63,31L57,31L56,32L55,32L54,33L41,33L38,36L38,39L37,40L37,41L35,43L31,43L28,46L28,51L27,52L27,58L26,59L26,63L25,64L25,69L23,71L17,71L15,69L15,66L14,65L14,56L13,55L13,51L14,50L14,46L13,45L13,42L14,41L14,36L13,35L13,16Z" fill="#35a043" fill-rule="evenodd" />
  <path d="M17,14L32,14L33,15L33,19L30,22L30,28L29,29L28,29L25,32L20,32L19,33L18,33L17,34L15,34L14,33L14,17Z M70,14L95,14L98,17L98,20L95,23L89,23L88,22L84,22L83,21L73,21L71,19L70,19L69,18L69,15Z" fill="#4ac34e" fill-rule="evenodd" />
  <path d="M53,16L55,16L56,17L56,20L55,21L55,22L52,25L50,25L49,26L49,29L50,30L50,36L51,37L51,46L53,48L57,48L60,51L64,51L65,50L71,50L74,47L75,47L78,44L78,41L81,38L81,29L80,28L80,27L77,24L77,20L76,19L76,18L77,17L81,17L82,18L82,19L81,20L81,23L83,25L83,26L85,28L85,37L88,40L92,40L94,38L100,38L100,42L95,42L93,44L87,44L85,42L83,42L82,43L82,46L77,51L76,51L73,54L66,54L65,55L59,55L56,52L52,52L50,50L49,50L48,51L47,51L45,53L45,59L46,60L46,65L47,66L47,74L46,75L46,76L42,80L42,84L38,84L38,79L42,75L42,73L43,72L43,67L42,66L42,60L41,59L41,53L42,52L42,51L45,48L46,48L48,46L48,39L46,37L46,27L43,24L40,24L38,26L35,26L34,27L28,27L26,25L24,25L23,26L21,26L20,25L20,23L22,21L23,21L24,22L27,22L28,23L34,23L35,22L38,22L39,21L44,21L46,23L48,23L49,22L51,22L52,21L52,20L51,19L51,18Z M68,38L69,38L71,40L71,41L70,42L70,43L68,45L67,45L66,44L66,40Z M85,77L88,77L90,79L90,81L89,82L88,82L87,81L86,81L84,79L84,78Z" fill="#83e1c3" fill-opacity="0.5" fill-rule="evenodd" />
</svg>