<?xml version="1.0" encoding="UTF-8"?>
<svg xmlns="http://www.w3.org/2000/svg" viewBox="0 0 112 96" width="448" height="384">
  <rect x="0" y="0" width="112" height="96" fill="#347941" />
  <path d="M16,13L96,13L99,16L99,18L98,19L98,20L99,21L99,22L98,23L98,24L99,25L99,26L98,27L98,32L99,33L98,34L98,38L97,39L95,39L93,41L90,41L89,40L88,40L87,41L86,41L84,39L83,39L82,38L80,38L79,37L79,36L80,35L80,34L79,33L79,32L77,30L77,28L76,28L75,27L65,27L63,25L64,24L64,23L63,22L63,21L62,20L55,20L53,22L52,22L50,24L46,24L45,25L42,25L41,26L40,26L40,31L39,32L38,32L37,31L36,31L35,32L34,32L33,31L32,31L30,33L30,37L31,38L31,41L28,44L28,45L26,45L26,46L24,48L20,48L18,46L17,46L13,42L13,37L15,35L15,33L14,32L14,28L13,27L13,16Z" fill="#35a043" fill-rule="evenodd" />
  <path d="M17,14L41,14L43,16L43,17L41,19L41,20L42,21L42,22L41,23L29,23L28,24L28,26L27,27L27,28L26,29L26,30L25,31L24,31L23,32L20,32L19,31L17,31L15,29L15,24L14,23L14,17Z M79,15L92,15L93,16L93,17L96,20L96,25L95,26L93,26L92,27L92,29L89,32L86,32L84,30L81,30L80,29L80,21L78,19L78,16Z" fill="#4ac34e" fill-rule="evenodd" />
  <path d="M32,16L37,16L38,17L38,19L37,20L37,23L38,24L38,25L39,26L43,26L45,28L45,29L49,33L49,44L50,45L52,45L53,44L59,44L60,43L60,39L61,38L61,37L65,33L66,33L69,30L70,30L71,29L71,23L73,21L75,21L76,22L84,22L85,21L85,17L86,16L88,16L89,17L89,24L87,26L84,26L83,27L79,27L78,26L75,26L75,31L73,33L72,33L69,36L68,36L64,40L64,43L67,43L68,44L69,44L70,45L71,45L73,47L74,47L79,52L79,57L80,58L80,65L78,67L78,68L76,70L76,73L77,74L79,74L80,73L86,73L87,74L88,74L89,75L89,76L90,77L90,85L86,85L86,80L85,79L85,78L84,77L80,77L78,79L77,79L75,77L74,77L73,76L73,75L72,74L72,73L71,72L71,70L73,68L73,67L76,64L76,60L75,59L75,54L71,50L70,50L67,47L61,47L60,48L54,48L53,49L45,49L44,48L43,48L42,47L40,47L38,49L37,49L36,50L35,50L34,51L32,51L30,53L30,62L31,63L31,64L33,66L33,69L32,70L32,74L31,75L31,76L26,81L26,85L22,85L22,77L23,76L24,76L28,72L28,69L29,68L29,67L25,63L25,61L26,60L26,53L27,52L27,50L29,48L30,48L31,47L33,47L34,46L35,46L37,44L39,44L40,43L42,43L43,44L44,44L45,43L45,35L43,33L43,32L42,31L41,31L40,30L37,30L36,29L34,29L33,28L33,27L32,26L32,24L33,23L33,21L31,19L31,17Z M47,16L49,16L50,17L51,17L52,18L52,20L51,21L48,21L47,20L46,20L45,19L45,18Z M93,64L95,64L96,65L96,66L98,68L98,69L96,71L95,71L94,70L94,69L93,68L93,67L92,66L92,65Z" fill="#83e1c3" fill-opacity="0.5" fill-rule="evenodd" />
</svg>