<?xml version="1.0" encoding="UTF-8"?>
<svg xmlns="http://www.w3.org/2000/svg" viewBox="0 0 112 96" width="448" height="384">
  <rect x="0" y="0" width="112" height="96" fill="#347941" />
  <path d="M16,13L89,13L91,15L91,22L89,24L89,25L88,26L87,26L86,27L78,27L76,29L75,29L73,31L71,31L70,32L66,32L65,33L62,33L61,34L61,35L60,36L54,36L53,35L52,35L51,36L49,36L48,37L43,37L42,36L38,36L36,34L28,34L27,35L27,36L26,37L25,37L24,38L24,45L25,46L25,47L27,49L33,49L34,50L35,50L36,51L36,52L37,53L37,54L38,55L38,63L37,64L36,64L33,67L27,67L25,65L24,65L22,63L22,62L20,60L19,60L18,59L14,59L13,58L13,51L14,50L14,47L13,46L13,38L14,37L14,36L15,35L15,32L14,31L14,30L13,29L13,16Z" fill="#35a043" fill-rule="evenodd" />
  <path d="M17,14L32,14L33,15L33,17L32,18L32,24L28,28L20,28L18,30L16,30L15,29L15,28L14,27L14,17Z M56,14L81,14L82,15L82,18L80,20L77,20L74,23L70,23L69,22L63,22L62,21L62,20L61,19L60,19L59,18L56,18L55,17L55,15Z" fill="#4ac34e" fill-rule="evenodd" />
  <path d="M22,16L24,16L26,18L36,18L37,19L38,19L39,20L40,20L42,22L54,22L58,26L58,31L57,32L57,43L58,44L62,44L63,45L68,45L69,44L70,44L72,42L72,41L75,38L77,38L78,37L80,37L81,36L89,36L90,37L91,37L92,38L101,38L101,42L92,42L91,41L89,41L88,40L81,40L80,41L78,41L77,42L76,42L75,43L75,44L71,48L70,48L69,49L63,49L62,48L57,48L56,49L53,49L52,50L51,50L49,52L49,56L50,57L50,66L49,67L49,68L48,69L47,69L45,71L44,71L41,74L41,76L42,77L42,85L38,85L38,79L37,78L37,72L41,68L42,68L43,67L44,67L46,65L46,58L45,57L45,49L47,47L48,47L49,46L50,46L51,45L52,45L53,44L53,31L54,30L54,27L53,26L41,26L40,25L39,25L37,23L36,23L35,22L26,22L24,24L22,24L21,23L21,21L20,20L20,18Z M27,54L28,54L30,56L31,56L33,54L34,54L35,55L35,57L31,61L30,61L26,57L26,55Z M90,62L91,62L93,64L93,65L92,66L90,66L89,67L88,67L87,66L86,66L85,65L85,64L86,63L89,63Z" fill="#83e1c3" fill-opacity="0.5" fill-rule="evenodd" />
</svg>