<?xml version="1.0" encoding="UTF-8"?>
<svg xmlns="http://www.w3.org/2000/svg" viewBox="0 0 112 96" width="448" height="384">
  <rect x="0" y="0" width="112" height="96" fill="#347941" />
  <path d="M17,13L95,13L99,17L99,20L96,23L95,23L95,26L94,27L94,29L93,30L93,31L92,32L91,32L90,33L81,33L77,37L74,37L73,38L69,38L68,37L66,37L65,36L59,36L55,32L46,32L45,31L43,31L40,28L39,28L38,29L37,29L35,31L34,31L32,33L32,34L30,36L30,37L29,38L28,38L27,39L27,42L28,43L28,44L29,45L29,47L28,48L28,49L29,50L28,51L28,56L26,58L25,58L24,59L24,60L22,62L21,62L20,63L15,63L14,62L14,58L13,57L13,56L14,55L14,54L13,53L13,52L14,51L14,46L15,45L15,43L14,42L14,40L13,39L13,30L14,29L14,27L13,26L13,17Z" fill="#35a043" fill-rule="evenodd" />
  <path d="M18,14L41,14L42,15L42,18L41,19L41,20L40,21L38,21L37,22L37,24L36,25L35,25L34,26L33,26L32,27L32,30L29,33L27,33L25,35L24,35L23,36L22,36L20,38L15,38L14,37L14,33L15,32L15,25L14,24L14,18Z M66,14L93,14L94,15L94,20L93,21L91,21L90,22L87,22L86,21L78,21L74,25L73,25L72,26L71,26L70,25L69,25L68,24L69,23L69,22L68,21L68,20L66,18L66,17L65,16L65,15Z" fill="#4ac34e" fill-rule="evenodd" />
  <path d="M78,15L86,15L87,16L87,18L86,19L84,19L84,24L85,25L86,25L88,27L88,28L89,29L89,36L90,37L92,37L93,38L101,38L101,42L92,42L91,41L85,41L83,43L83,49L82,50L82,51L80,53L79,53L77,55L74,55L73,56L72,56L69,59L62,59L61,58L60,58L59,57L58,57L56,55L56,51L55,50L47,50L46,49L41,49L39,51L39,56L38,57L38,62L36,64L35,64L34,65L34,69L35,70L35,71L36,72L38,72L39,73L40,73L42,75L42,85L38,85L38,77L37,76L34,76L31,73L31,72L30,71L30,63L32,61L33,61L34,60L34,56L33,55L23,55L21,57L19,57L18,56L18,55L19,54L19,52L18,51L18,49L19,48L21,48L24,51L33,51L35,49L35,48L36,47L37,47L38,46L39,46L40,45L44,45L45,44L45,39L46,38L46,37L48,35L48,26L50,24L51,24L52,23L56,23L57,22L60,22L61,23L61,25L62,26L62,27L60,29L58,29L56,27L54,27L52,29L52,36L50,38L50,39L49,40L49,44L50,45L55,45L57,47L58,47L60,49L60,53L61,54L62,54L63,55L68,55L72,51L75,51L76,50L77,50L79,48L79,42L85,36L85,30L83,28L82,28L80,26L80,19L78,19L77,18L77,16Z M57,16L60,16L62,18L62,19L61,20L56,20L55,21L54,21L53,20L53,19L55,17L56,17Z M40,64L41,64L43,66L43,68L41,70L40,70L39,69L38,69L37,68L37,67Z" fill="#83e1c3" fill-opacity="0.5" fill-rule="evenodd" />
</svg>