<?xml version="1.0" encoding="UTF-8"?>
<svg xmlns="http://www.w3.org/2000/svg" viewBox="0 0 112 96" width="448" height="384">
  <rect x="0" y="0" width="112" height="96" fill="#347941" />
  <path d="M16,13L96,13L99,16L99,24L98,25L98,28L97,29L93,29L92,30L91,30L88,33L86,33L85,32L82,32L81,33L76,33L75,32L72,32L70,30L68,30L67,29L60,29L59,28L57,28L56,27L56,22L55,21L49,21L48,22L40,22L39,21L36,21L35,22L34,22L33,23L31,23L30,24L29,24L28,25L28,26L26,28L26,29L27,30L27,33L29,35L31,35L33,37L33,38L35,40L35,46L34,47L32,47L31,48L30,48L29,49L29,55L26,58L26,59L25,60L24,60L23,61L16,61L15,60L14,60L13,59L13,54L14,53L14,51L15,50L15,49L14,48L14,43L13,42L13,28L14,27L14,21L13,20L13,16Z" fill="#35a043" fill-rule="evenodd" />
  <path d="M76,14L93,14L95,16L95,23L93,25L92,25L91,26L90,26L89,27L80,27L79,26L78,26L75,23L75,15Z M17,21L22,21L23,22L24,22L26,24L26,33L24,35L24,39L23,40L23,42L22,43L22,44L21,45L20,45L19,46L16,46L15,45L15,39L14,38L14,31L15,30L15,23Z" fill="#4ac34e" fill-rule="evenodd" />
  <path d="M87,15L89,15L91,17L91,21L90,22L90,23L89,24L87,24L85,22L72,22L70,24L69,24L68,25L66,25L65,26L53,26L51,28L51,35L48,38L48,39L47,40L46,40L45,41L45,47L46,48L49,48L50,49L51,49L55,53L55,57L56,58L56,59L57,60L66,60L67,59L68,59L69,58L69,50L70,49L70,47L71,46L71,45L73,43L74,43L75,42L82,42L83,41L84,41L86,39L87,39L88,38L93,38L94,39L95,39L96,38L101,38L101,42L97,42L96,43L94,43L93,42L88,42L86,44L85,44L84,45L83,45L82,46L76,46L74,48L74,51L73,52L73,58L72,59L72,61L70,63L68,63L67,64L56,64L55,63L54,63L52,61L52,59L51,58L51,55L48,52L45,52L44,51L42,51L41,52L38,52L37,53L37,54L36,55L36,59L35,60L35,67L33,69L33,70L32,71L32,74L33,75L39,75L41,77L41,78L42,79L42,85L38,85L38,80L37,79L31,79L29,77L29,76L28,75L28,68L31,65L31,60L32,59L32,54L34,52L34,51L37,48L40,48L41,47L41,41L42,40L42,39L44,37L45,37L46,36L46,35L47,34L47,28L48,27L48,26L52,22L62,22L63,21L68,21L71,18L80,18L81,17L86,17L86,16Z M61,37L63,37L65,39L65,42L63,44L60,44L59,43L59,40L60,39L60,38Z M20,74L21,74L24,77L24,78L21,81L20,81L19,80L19,79L17,77L17,76L18,75L19,75Z" fill="#83e1c3" fill-opacity="0.5" fill-rule="evenodd" />
</svg>