<?xml version="1.0" encoding="UTF-8"?>
<svg xmlns="http://www.w3.org/2000/svg" viewBox="0 0 112 96" width="448" height="384">
  <rect x="0" y="0" width="112" height="96" fill="#347941" />
  <path d="M16,13L96,13L99,16L99,34L98,35L95,35L94,34L92,34L90,32L87,32L85,30L78,30L77,31L71,31L69,29L67,29L66,28L62,28L60,30L49,30L46,33L41,33L37,37L32,37L31,36L29,36L28,35L26,35L23,38L23,43L25,45L25,48L26,49L26,50L28,52L31,52L33,54L33,63L29,67L28,67L27,68L23,68L22,69L16,69L15,68L15,67L13,65L13,58L14,57L14,53L13,52L13,32L14,31L14,25L13,24L13,16Z" fill="#35a043" fill-rule="evenodd" />
  <path d="M17,14L33,14L34,15L34,23L31,26L23,26L21,24L17,24L16,23L15,23L14,22L14,17Z M85,14L95,14L97,16L97,17L98,18L98,28L97,29L95,29L94,28L92,28L91,27L88,27L87,26L87,25L86,24L85,24L84,23L84,15Z M15,36L21,36L22,37L22,44L23,45L23,48L22,49L21,49L20,50L20,51L19,52L17,52L14,49L14,37Z" fill="#4ac34e" fill-rule="evenodd" />
  <path d="M30,16L31,16L32,17L39,17L40,18L41,18L42,19L46,19L47,20L51,20L54,17L55,17L56,16L63,16L67,20L73,20L75,18L76,18L77,17L85,17L86,16L87,16L88,17L89,17L90,18L90,19L89,20L89,21L88,22L87,22L86,21L77,21L75,23L74,23L73,24L67,24L66,23L65,23L62,20L56,20L54,22L54,24L57,27L57,34L59,36L60,36L63,39L63,42L64,43L64,44L65,45L71,45L75,49L76,49L77,50L85,50L86,49L87,49L89,47L89,46L90,45L90,42L94,38L101,38L101,42L95,42L94,43L94,46L93,47L93,48L88,53L86,53L85,54L76,54L74,52L73,52L70,49L64,49L61,46L61,45L60,44L60,41L58,39L57,39L56,38L54,38L53,39L53,44L52,45L52,46L49,49L49,56L50,57L50,58L53,61L53,62L54,63L54,68L53,69L53,70L52,71L52,72L47,77L45,77L44,78L43,78L42,79L42,85L38,85L38,78L41,75L42,75L43,74L45,74L49,70L49,69L50,68L50,63L46,59L46,58L45,57L45,48L49,44L49,38L52,35L52,34L53,33L53,28L51,26L51,25L50,24L47,24L46,23L41,23L40,22L39,22L38,21L32,21L31,22L30,22L28,20L28,18Z M18,41L19,41L20,42L20,46L18,48L17,48L16,47L16,43Z M31,44L34,44L35,45L35,46L32,49L29,49L28,48L28,46L29,45L30,45Z" fill="#9CFFE8" fill-opacity="0.77" fill-rule="evenodd" />
</svg>