<?xml version="1.0" encoding="UTF-8"?>
<svg xmlns="http://www.w3.org/2000/svg" viewBox="0 0 112 96" width="448" height="384">
  <rect x="0" y="0" width="112" height="96" fill="#347941" />
  <path d="M16,13L96,13L99,16L99,26L98,27L97,26L96,26L95,27L90,27L89,28L88,28L86,30L80,30L79,29L73,29L72,30L71,29L70,29L69,30L68,30L67,31L66,30L65,30L64,31L63,30L61,30L60,29L60,28L61,27L61,26L60,25L60,21L59,20L52,20L51,21L50,21L49,22L48,22L47,23L45,23L44,22L43,22L43,23L41,25L41,28L40,29L40,30L41,31L41,33L40,34L40,36L39,37L39,48L37,50L37,51L36,52L35,52L34,53L33,53L31,55L30,55L29,56L25,56L22,59L22,60L21,61L15,61L13,59L14,58L14,56L13,55L13,54L14,53L14,46L13,45L13,32L14,31L14,28L13,27L13,22L14,21L14,15Z" fill="#35a043" fill-rule="evenodd" />
  <path d="M77,14L95,14L98,17L98,22L96,24L90,24L89,25L84,25L83,24L81,24L80,23L76,23L75,22L75,16Z M16,28L29,28L31,30L31,34L28,37L28,40L27,41L27,47L26,48L26,49L25,50L16,50L15,49L15,44L14,43L14,35L15,34L15,29Z" fill="#4ac34e" fill-rule="evenodd" />
  <path d="M92,15L94,15L95,16L95,17L96,18L96,20L94,22L93,22L92,21L88,21L87,22L82,22L81,21L73,21L72,22L71,22L70,23L68,23L65,26L57,26L56,27L56,28L54,30L54,36L53,37L53,39L51,41L51,43L52,44L54,44L55,45L56,45L57,46L58,46L59,47L60,47L61,48L62,48L63,47L63,41L65,39L65,38L70,33L74,33L75,32L80,32L81,33L84,33L88,37L93,37L94,38L101,38L101,42L92,42L91,41L87,41L86,40L85,40L82,37L74,37L73,38L70,38L68,40L68,41L67,42L67,48L66,49L66,51L67,52L67,58L66,59L66,60L64,62L62,62L61,63L59,63L58,64L49,64L46,67L46,74L45,75L45,76L42,79L42,85L38,85L38,78L39,77L39,76L41,74L41,72L42,71L42,65L43,64L43,63L44,62L46,62L48,60L53,60L54,59L61,59L62,58L62,57L63,56L63,53L62,52L60,52L59,51L57,51L56,50L55,50L54,49L53,49L52,48L46,48L45,47L34,47L32,45L23,45L22,46L22,47L21,48L20,48L18,46L18,45L17,44L17,42L18,41L18,40L19,39L21,39L23,41L34,41L36,43L46,43L47,42L47,40L49,38L49,36L50,35L50,30L51,29L51,28L53,26L53,25L55,23L56,23L57,22L64,22L67,19L70,19L72,17L81,17L82,18L86,18L87,17L90,17Z M27,69L30,69L31,70L31,71L32,72L32,73L31,74L30,74L28,76L27,76L25,74L25,72L26,71L26,70Z" fill="#9CFFE8" fill-opacity="0.77" fill-rule="evenodd" />
</svg>