<?xml version="1.0" encoding="UTF-8"?>
<svg xmlns="http://www.w3.org/2000/svg" viewBox="0 0 112 96" width="448" height="384">
  <rect x="0" y="0" width="112" height="96" fill="#347941" />
  <path d="M16,13L90,13L91,14L91,19L90,20L90,21L89,22L89,23L87,23L86,24L81,24L80,25L80,26L79,27L78,27L78,28L77,29L76,29L75,28L68,28L67,29L65,29L64,28L60,28L59,29L58,29L55,32L55,33L53,35L52,35L51,36L50,35L46,35L45,36L44,36L43,35L42,35L41,34L40,34L39,35L35,35L34,36L34,37L31,40L28,40L27,41L24,41L23,40L19,40L18,41L16,41L15,40L14,40L13,39L13,36L14,35L14,33L13,32L13,29L14,28L14,26L13,25L13,16Z M14,52L25,52L26,53L28,53L31,56L31,57L32,58L32,60L33,61L33,65L31,67L31,68L30,69L29,69L28,70L27,70L26,71L19,71L18,72L15,72L13,70L13,62L14,61L14,60L15,59L15,57L13,55L13,53Z" fill="#35a043" fill-rule="evenodd" />
  <path d="M17,14L39,14L40,15L40,21L41,22L41,24L39,26L37,26L35,28L34,28L33,29L29,29L28,28L26,28L25,29L23,29L21,27L20,27L18,25L16,25L14,23L14,17Z M57,14L72,14L73,15L73,18L72,19L72,21L69,24L69,25L68,26L63,26L62,25L61,25L59,23L58,23L56,21L56,15Z" fill="#4ac34e" fill-rule="evenodd" />
  <path d="M29,15L31,15L33,17L44,17L45,18L46,18L47,19L47,20L49,22L49,25L50,26L50,38L51,39L51,40L54,43L54,44L55,45L55,50L56,51L57,51L58,52L65,52L66,51L67,51L68,50L68,40L69,39L69,37L70,36L70,35L73,32L82,32L84,34L85,34L86,35L87,35L88,36L91,36L92,37L94,37L95,38L101,38L101,42L94,42L93,41L91,41L90,40L87,40L86,39L85,39L84,38L83,38L81,36L74,36L73,37L73,39L72,40L72,47L73,48L73,53L72,54L70,54L68,56L67,56L66,57L64,57L63,56L55,56L54,57L52,57L51,56L48,56L47,57L46,57L45,58L43,58L42,59L42,60L41,61L41,67L42,68L43,68L46,71L46,78L44,80L43,80L42,81L42,85L38,85L38,79L40,77L41,77L42,76L42,72L41,71L40,71L39,70L38,70L37,69L37,62L36,61L36,60L38,58L38,57L40,55L41,55L42,54L44,54L45,53L46,53L47,52L50,52L51,51L51,46L50,45L50,44L47,41L47,40L46,39L46,29L45,28L45,23L43,21L32,21L31,22L31,23L30,24L28,24L27,23L27,20L28,19L28,16Z M59,39L60,39L61,40L64,40L65,41L65,42L63,44L62,44L61,43L60,43L59,44L58,44L57,43L57,41Z M25,57L26,57L27,58L27,59L28,60L28,63L27,64L27,65L26,66L25,66L24,65L24,64L22,62L22,61L23,60L23,59Z" fill="#9CFFE8" fill-opacity="0.77" fill-rule="evenodd" />
</svg>