<?xml version="1.0" encoding="UTF-8"?>
<svg xmlns="http://www.w3.org/2000/svg" viewBox="0 0 112 96" width="448" height="384">
  <rect x="0" y="0" width="112" height="96" fill="#347941" />
  <path d="M16,13L96,13L99,16L99,32L98,33L95,33L92,30L84,30L81,27L75,27L73,29L73,32L70,35L63,35L60,38L53,38L52,37L45,37L42,34L37,34L34,31L31,31L28,34L28,42L30,44L30,50L27,53L27,58L24,61L24,67L23,68L23,71L21,73L17,73L15,71L15,70L13,68L13,60L15,58L15,57L14,56L14,54L13,53L13,46L15,44L16,44L17,43L18,43L19,42L19,36L17,34L16,34L14,32L14,31L13,30L13,16Z" fill="#35a043" fill-rule="evenodd" />
  <path d="M27,14L49,14L50,15L50,25L49,26L47,26L46,27L42,27L40,25L34,25L33,26L30,26L28,24L28,23L27,22L27,20L26,19L26,15Z M83,14L95,14L98,17L98,24L96,26L93,26L92,27L90,27L89,26L87,26L86,27L85,27L84,26L83,26L82,25L82,15Z" fill="#4ac34e" fill-rule="evenodd" />
  <path d="M71,16L78,16L81,19L84,19L85,18L87,18L88,19L88,21L87,22L87,23L86,24L85,24L84,23L81,23L80,22L79,22L77,20L71,20L69,22L69,24L66,27L65,27L63,29L63,31L61,33L60,33L58,35L58,41L57,42L57,45L60,48L60,49L62,51L62,54L63,55L65,55L67,57L73,57L74,56L76,56L77,55L78,55L79,54L79,47L81,45L82,45L83,44L84,44L86,42L86,41L90,37L97,37L98,38L101,38L101,42L97,42L96,41L92,41L89,44L89,45L86,48L84,48L83,49L83,55L80,58L78,58L77,59L75,59L74,60L66,60L64,58L62,58L59,55L59,53L58,52L58,51L56,49L54,49L52,51L49,51L48,52L48,59L45,62L45,67L44,68L44,70L43,71L43,77L42,78L42,85L38,85L38,76L39,75L39,69L40,68L40,67L41,66L41,60L44,57L44,50L47,47L51,47L53,45L53,41L54,40L54,34L58,30L59,30L60,29L60,27L58,25L53,25L52,24L47,24L46,25L45,25L43,23L43,21L44,20L45,20L46,19L47,19L48,20L52,20L53,21L59,21L62,24L64,24L66,22L66,20L69,17L70,17Z M21,18L23,18L24,19L24,24L23,25L21,25L20,24L20,23L21,22L21,21L20,20L20,19Z M72,48L73,48L74,49L74,53L72,55L71,55L70,54L70,52L71,51L71,49Z" fill="#83e1c3" fill-opacity="0.5" fill-rule="evenodd" />
</svg>