<?xml version="1.0" encoding="UTF-8"?>
<svg xmlns="http://www.w3.org/2000/svg" viewBox="0 0 112 96" width="448" height="384">
  <rect x="0" y="0" width="112" height="96" fill="#347941" />
  <path d="M26,13L80,13L81,14L82,14L83,13L85,13L86,14L86,25L83,28L81,28L77,32L76,32L75,33L74,33L73,34L64,34L62,36L62,37L61,38L60,38L59,39L58,39L57,40L55,40L54,39L53,39L52,40L42,40L41,39L39,39L39,38L37,36L36,36L35,35L35,34L34,33L34,32L33,31L33,30L31,28L31,27L30,26L31,25L31,24L29,22L26,22L26,20L25,20L25,18L24,17L24,15Z M14,31L20,31L22,33L24,33L25,34L26,34L27,35L27,36L28,37L28,38L29,39L29,40L32,43L32,44L33,45L33,46L34,47L34,52L33,53L32,53L31,54L29,54L28,55L15,55L13,53L13,32Z" fill="#35a043" fill-rule="evenodd" />
  <path d="M39,14L71,14L72,15L72,18L70,20L70,21L69,22L69,23L67,25L66,25L65,26L56,26L55,27L53,27L52,26L51,26L50,25L50,24L49,23L48,23L45,20L40,20L39,19L38,19L37,18L37,16Z M15,38L19,38L20,39L21,39L23,41L23,44L22,45L22,47L20,49L15,49L14,48L14,39Z" fill="#4ac34e" fill-rule="evenodd" />
  <path d="M59,15L62,15L63,16L66,16L67,17L67,19L66,20L65,20L64,21L64,29L63,30L63,31L62,32L61,32L60,33L59,33L57,35L51,35L50,36L49,36L48,37L48,43L47,44L47,45L46,46L45,46L44,47L44,51L43,52L43,54L44,55L46,55L47,56L53,56L54,57L56,57L57,58L64,58L65,57L65,53L64,52L64,47L66,45L67,45L70,42L74,42L75,41L84,41L85,40L85,39L86,38L87,38L88,37L96,37L97,38L100,38L100,42L96,42L95,41L90,41L85,46L82,46L81,45L76,45L75,46L72,46L71,47L70,47L68,49L68,51L69,52L69,58L68,59L68,60L66,62L56,62L55,61L53,61L52,60L43,60L42,59L40,59L39,60L33,60L32,59L31,59L29,61L29,62L28,63L28,68L29,69L29,70L30,71L32,71L33,72L40,72L42,74L42,75L43,76L43,82L42,83L42,84L38,84L38,82L39,81L39,77L38,76L33,76L32,75L28,75L27,74L26,74L25,73L25,70L24,69L24,62L25,61L25,60L29,56L30,56L31,55L32,55L33,56L38,56L39,55L39,51L40,50L40,45L41,44L42,44L44,42L44,35L46,33L47,33L48,32L49,32L50,31L56,31L58,29L59,29L60,28L60,22L59,21L58,21L57,20L57,17Z M79,17L81,17L82,18L82,19L83,20L88,20L89,19L89,18L90,17L93,17L95,19L95,23L94,24L94,25L93,26L91,26L89,24L83,24L82,25L81,25L80,26L79,26L78,25L78,22L77,21L77,19Z M55,47L56,47L57,48L58,48L59,49L59,50L58,51L58,52L57,53L56,53L55,52L54,52L52,50L52,49L53,48L54,48Z" fill="#83e1c3" fill-opacity="0.5" fill-rule="evenodd" />
</svg>