<?xml version="1.0" encoding="UTF-8"?>
<svg xmlns="http://www.w3.org/2000/svg" viewBox="0 0 112 96" width="448" height="384">
  <rect x="0" y="0" width="112" height="96" fill="#347941" />
  <path d="M16,13L96,13L99,16L99,23L98,24L98,27L97,28L94,28L93,29L92,29L91,30L83,30L82,29L81,29L80,30L79,30L77,28L77,22L75,20L68,20L67,21L61,21L60,20L52,20L50,22L50,25L52,27L53,27L56,30L56,35L55,36L55,40L54,41L53,41L50,44L37,44L32,49L31,49L30,50L30,56L28,58L22,58L21,59L15,59L13,57L13,51L14,50L14,43L13,42L13,31L14,30L14,25L13,24L13,16Z" fill="#35a043" fill-rule="evenodd" />
  <path d="M17,14L32,14L33,15L33,17L32,18L32,19L31,20L29,20L28,21L26,21L25,22L24,22L23,21L21,21L20,22L16,22L14,20L14,17Z M78,14L95,14L98,17L98,20L97,21L94,21L93,22L88,22L87,21L82,21L81,20L80,20L77,17L77,15Z M15,33L30,33L32,35L32,41L30,43L29,43L25,47L16,47L15,46L15,40L14,39L14,34Z" fill="#4ac34e" fill-rule="evenodd" />
  <path d="M84,15L89,15L90,16L91,16L92,15L93,15L94,16L94,17L92,19L92,25L90,27L89,27L88,28L88,33L89,34L91,34L95,38L101,38L101,42L93,42L89,38L82,38L81,39L81,40L80,41L80,42L79,43L79,45L77,47L77,50L76,51L76,59L75,60L75,61L72,64L61,64L60,63L59,63L58,62L58,61L57,60L57,59L56,58L56,54L54,52L49,52L48,51L46,51L45,52L44,52L43,53L42,53L41,54L41,55L40,56L40,61L39,62L39,63L38,64L38,70L41,73L41,74L42,75L42,85L38,85L38,76L37,75L37,74L34,71L34,64L35,63L35,62L36,61L36,56L37,55L37,53L41,49L42,49L43,48L44,48L45,47L45,41L44,40L44,39L41,36L41,35L40,34L40,32L36,28L28,28L27,29L26,29L24,31L24,34L26,36L26,39L25,40L20,40L19,39L18,39L17,38L17,36L18,35L19,35L20,34L20,30L25,25L26,25L27,24L38,24L44,30L44,33L45,34L45,35L48,38L48,39L49,40L49,47L50,48L54,48L55,49L56,49L60,53L60,57L61,58L61,59L62,60L70,60L72,58L72,53L71,52L71,49L73,47L73,46L76,43L76,41L77,40L77,38L80,35L81,35L82,34L83,34L84,33L84,27L85,26L85,25L86,24L87,24L88,23L88,19L87,18L86,18L85,19L84,19L83,18L83,16Z M42,16L43,16L44,17L46,17L47,18L47,20L46,21L45,21L44,22L42,22L40,20L40,18Z M21,68L25,68L28,71L28,72L27,73L26,73L25,74L24,74L20,70L20,69Z" fill="#9CFFE8" fill-opacity="0.77" fill-rule="evenodd" />
</svg>