<?xml version="1.0" encoding="UTF-8"?>
<svg xmlns="http://www.w3.org/2000/svg" viewBox="0 0 112 96" width="448" height="384">
  <rect x="0" y="0" width="112" height="96" fill="#347941" />
  <path d="M16,13L96,13L99,16L99,24L98,25L97,24L96,24L95,25L94,25L94,26L93,27L93,29L92,30L89,30L88,31L88,32L87,33L86,33L84,35L82,35L81,36L77,36L76,35L75,35L74,36L71,33L71,32L70,31L68,31L67,30L59,30L58,31L57,31L56,32L48,32L47,31L46,31L45,32L41,32L39,30L38,30L37,29L36,29L35,28L33,28L32,27L31,27L30,28L27,28L26,29L25,29L23,31L23,38L22,39L22,40L23,41L23,43L24,44L24,45L26,47L27,47L28,48L29,48L32,51L32,52L33,53L33,59L28,64L20,64L19,63L18,63L17,62L16,62L13,59L13,54L15,52L15,51L14,50L14,48L13,47L13,24L14,23L14,19L13,18L13,16Z" fill="#35a043" fill-rule="evenodd" />
  <path d="M30,14L54,14L55,15L55,17L52,20L50,20L48,22L46,22L45,23L39,23L38,22L37,22L36,21L35,21L34,20L31,20L29,18L29,15Z M81,14L95,14L98,17L98,23L97,24L91,24L90,25L89,25L88,26L84,26L83,25L82,25L81,24L80,24L78,22L78,16L79,15L80,15Z M15,28L18,28L19,29L20,29L21,30L21,31L22,32L22,41L21,42L20,42L19,43L19,44L18,45L16,45L15,44L15,43L14,42L14,29Z" fill="#4ac34e" fill-rule="evenodd" />
  <path d="M85,15L87,15L89,17L89,18L90,19L90,20L89,21L88,21L87,22L86,22L84,20L76,20L75,21L74,21L73,22L72,22L71,23L69,23L68,24L55,24L53,26L53,27L52,28L52,36L51,37L51,40L50,41L50,43L51,44L54,44L55,45L60,45L61,46L64,46L66,48L72,48L73,49L76,49L79,46L79,43L82,40L88,40L91,37L98,37L99,38L100,38L100,42L98,42L97,41L92,41L89,44L84,44L83,45L83,48L78,53L72,53L71,52L65,52L63,50L61,50L60,49L53,49L52,48L50,48L49,49L47,49L46,50L44,50L43,51L43,52L42,53L42,59L41,60L41,61L42,62L43,62L46,65L46,66L47,67L47,76L45,78L44,78L42,80L42,84L38,84L38,78L41,75L42,75L43,74L43,69L42,68L42,67L41,66L40,66L37,63L37,59L38,58L38,52L39,51L39,50L43,46L44,46L46,44L46,40L47,39L47,37L48,36L48,28L49,27L49,26L50,25L50,24L54,20L68,20L70,18L72,18L73,17L74,17L75,16L84,16Z M62,34L63,34L65,36L66,36L67,37L67,38L65,40L62,40L60,38L60,36Z M24,51L25,51L26,52L26,53L27,54L27,56L25,58L25,59L24,60L23,60L21,58L21,57L22,56L22,55L21,54L21,53L22,52L23,52Z" fill="#83e1c3" fill-opacity="0.5" fill-rule="evenodd" />
</svg>