<?xml version="1.0" encoding="UTF-8"?>
<svg xmlns="http://www.w3.org/2000/svg" viewBox="0 0 112 96" width="448" height="384">
  <rect x="0" y="0" width="112" height="96" fill="#347941" />
  <path d="M16,13L96,13L99,16L99,23L98,24L98,27L99,28L99,30L97,32L88,32L86,34L84,34L83,33L82,33L81,32L69,32L68,31L66,31L65,30L62,30L60,32L58,32L57,33L51,33L50,32L40,32L39,33L34,33L33,32L31,32L30,33L29,33L27,35L27,36L28,37L28,38L29,39L29,44L27,46L26,46L25,47L24,47L23,48L19,48L18,47L15,47L14,46L14,45L13,44L13,36L14,35L14,31L13,30L13,29L14,28L14,25L13,24L13,16Z" fill="#35a043" fill-rule="evenodd" />
  <path d="M33,14L61,14L63,16L63,20L61,22L60,22L59,23L54,23L53,24L49,24L48,25L40,25L39,24L36,24L35,23L34,23L32,21L32,15Z M72,14L95,14L98,17L98,22L97,23L94,23L93,22L82,22L81,21L79,21L78,22L76,22L75,21L73,21L71,19L71,15Z" fill="#4ac34e" fill-rule="evenodd" />
  <path d="M85,16L86,16L88,18L88,20L87,21L87,24L89,26L91,26L93,28L93,32L95,34L95,35L94,36L91,36L89,34L89,33L90,32L90,30L89,29L88,29L86,27L84,27L83,28L82,28L81,29L80,29L79,30L79,32L80,33L80,35L79,36L77,36L75,34L75,33L76,32L76,29L79,26L80,26L82,24L83,24L84,23L84,20L83,19L83,18Z M44,19L46,19L47,20L47,22L46,23L46,27L47,28L47,35L48,36L50,36L51,37L55,37L56,38L57,38L59,40L65,40L66,41L67,41L71,45L76,45L81,50L81,53L82,54L85,54L90,59L90,66L86,70L86,71L85,72L85,74L87,76L88,76L89,77L89,78L90,79L90,85L86,85L86,80L85,79L84,79L83,78L83,77L82,76L82,70L83,69L83,68L86,65L86,60L84,58L81,58L78,55L78,53L74,49L70,49L66,45L65,45L64,44L58,44L56,42L55,42L54,41L50,41L49,40L48,40L47,39L45,39L44,40L43,40L40,43L40,44L39,45L39,49L38,50L37,50L36,51L35,51L33,53L32,53L30,55L30,59L31,60L31,62L30,63L29,63L26,66L26,68L27,69L27,71L28,72L28,76L27,77L27,78L26,79L26,85L22,85L22,78L23,77L23,76L24,75L24,73L23,72L23,70L22,69L22,66L23,65L23,64L27,60L27,53L31,49L32,49L34,47L35,47L36,46L36,44L35,43L35,42L37,40L38,40L41,37L42,37L43,36L43,29L42,28L42,23L41,22L41,21L42,20L43,20Z M24,25L26,25L27,26L27,27L26,28L26,30L25,31L23,31L22,30L22,27Z M94,70L95,70L96,71L96,75L95,76L94,76L92,74L92,72Z" fill="#9CFFE8" fill-opacity="0.77" fill-rule="evenodd" />
</svg>