<?xml version="1.0" encoding="UTF-8"?>
<svg xmlns="http://www.w3.org/2000/svg" viewBox="0 0 112 96" width="448" height="384">
  <rect x="0" y="0" width="112" height="96" fill="#347941" />
  <path d="M16,13L92,13L93,14L93,20L92,21L91,21L89,23L89,28L88,29L88,30L87,31L87,32L84,35L83,35L82,34L78,34L77,35L76,35L75,34L74,34L73,33L72,33L72,31L70,29L70,28L67,28L66,27L61,27L60,28L59,28L57,30L56,30L54,32L53,32L52,31L50,31L49,30L48,30L47,31L44,31L44,32L42,34L42,43L43,44L43,45L42,46L41,46L40,47L39,47L37,49L34,49L33,50L32,50L31,49L28,49L25,52L20,52L19,51L18,51L16,49L15,49L13,47L13,31L14,30L14,28L13,27L13,21L14,20L14,17L13,16Z" fill="#35a043" fill-rule="evenodd" />
  <path d="M43,14L73,14L75,16L75,18L74,19L74,22L73,23L73,24L72,25L70,25L69,24L68,24L67,23L63,23L62,24L57,24L55,26L53,26L52,27L51,27L50,28L49,28L48,27L45,27L43,25L43,18L42,17L42,15Z M15,22L17,22L18,23L19,23L20,24L20,25L22,27L22,28L23,29L23,30L24,31L24,37L23,38L22,38L21,39L21,40L20,41L19,41L18,42L17,42L16,43L15,43L14,42L14,33L15,32L15,29L16,28L16,26L14,24L14,23Z" fill="#4ac34e" fill-rule="evenodd" />
  <path d="M69,15L70,15L72,17L72,18L71,19L71,20L72,21L72,22L71,23L70,23L69,22L68,22L67,21L58,21L57,22L56,22L55,23L38,23L37,24L36,24L35,25L35,32L36,33L36,34L37,35L46,35L48,37L49,37L53,41L54,41L55,42L55,45L54,46L54,52L55,53L55,54L56,55L60,55L61,56L63,56L65,58L69,58L71,56L71,54L72,53L72,49L71,48L71,46L78,39L81,39L82,38L83,38L84,39L93,39L94,38L100,38L100,42L95,42L93,44L91,44L90,43L85,43L84,44L83,44L82,43L80,43L77,46L77,47L76,48L76,54L75,55L75,57L73,59L73,60L72,61L71,61L70,62L64,62L62,60L60,60L59,59L54,59L53,60L51,60L50,59L46,59L45,60L42,60L41,61L33,61L32,62L31,62L30,63L30,64L29,65L29,73L30,74L36,74L37,73L39,73L41,75L41,76L42,77L42,84L38,84L38,79L37,78L29,78L28,77L27,77L25,75L25,73L24,72L24,67L25,66L25,64L27,62L27,61L29,59L29,58L30,57L40,57L41,56L45,56L46,55L48,55L50,53L50,43L48,41L47,41L45,39L36,39L33,36L33,35L32,34L32,33L31,32L31,22L33,20L35,20L36,19L52,19L53,18L56,18L57,17L59,17L60,16L62,16L63,17L67,17Z M64,32L65,32L66,33L66,36L65,37L65,38L64,39L62,39L59,36L59,35L60,34L61,34L62,33L63,33Z" fill="#83e1c3" fill-opacity="0.5" fill-rule="evenodd" />
</svg>