<?xml version="1.0" encoding="UTF-8"?>
<svg xmlns="http://www.w3.org/2000/svg" viewBox="0 0 112 96" width="448" height="384">
  <rect x="0" y="0" width="112" height="96" fill="#347941" />
  <path d="M16,13L21,13L22,14L23,14L24,13L96,13L99,16L99,31L98,32L95,32L95,33L93,35L91,35L90,36L89,36L87,38L74,38L72,36L72,35L70,33L67,33L66,32L65,32L63,34L62,34L61,33L59,33L57,35L56,35L53,38L52,38L51,39L49,39L48,38L47,38L46,39L39,39L37,37L35,37L32,34L32,33L30,31L30,30L29,29L22,29L21,28L20,28L18,26L15,26L13,24L13,23L14,22L14,21L13,20L13,16Z" fill="#35a043" fill-rule="evenodd" />
  <path d="M26,14L46,14L47,15L47,19L45,21L44,21L43,22L42,22L41,23L40,23L38,25L34,25L33,24L30,24L29,23L28,23L26,21L26,20L24,18L24,16Z M88,14L95,14L98,17L98,26L96,28L94,28L93,27L92,27L91,28L90,28L89,27L89,25L86,22L86,17L87,16L87,15Z" fill="#4ac34e" fill-rule="evenodd" />
  <path d="M91,16L94,16L96,18L96,23L95,24L93,24L92,23L92,22L91,21L85,21L84,22L83,22L82,23L81,23L80,24L80,26L79,27L79,29L80,30L80,31L81,32L81,35L80,36L80,39L81,40L81,41L82,42L83,42L85,40L86,40L87,39L88,39L89,38L101,38L101,42L90,42L89,43L88,43L86,45L85,45L84,46L80,46L77,49L73,49L71,51L70,51L69,52L69,56L68,57L68,58L67,59L65,59L63,61L61,61L60,60L52,60L51,61L48,61L47,60L45,60L44,59L42,59L41,60L41,61L39,63L39,64L37,66L37,71L38,72L38,73L39,74L40,74L42,76L42,85L38,85L38,78L35,75L35,74L33,72L33,65L35,63L35,62L36,61L36,60L37,59L37,51L39,49L39,48L42,45L42,35L41,34L41,27L45,23L46,23L47,22L53,22L54,21L55,21L57,19L58,19L59,18L67,18L68,19L69,19L70,20L80,20L81,19L82,19L84,17L90,17Z M60,22L59,23L58,23L57,24L56,24L54,26L47,26L45,28L45,33L46,34L46,47L44,49L43,49L42,50L42,51L41,52L41,54L42,55L45,55L46,56L48,56L49,57L50,57L51,56L61,56L62,55L64,55L65,54L65,51L66,50L66,49L67,48L68,48L70,46L71,46L72,45L75,45L76,44L76,43L77,42L77,41L76,40L76,35L77,34L77,32L76,31L76,30L75,29L75,27L76,26L76,25L75,24L69,24L68,23L67,23L66,22Z M54,45L56,45L58,47L59,47L60,48L60,49L57,52L55,52L52,49L52,48L53,47L53,46Z M19,65L20,65L22,67L22,69L21,70L21,71L22,72L22,73L21,74L20,74L19,73L19,72L17,70L17,68L18,67L18,66Z" fill="#83e1c3" fill-opacity="0.5" fill-rule="evenodd" />
</svg>