<?xml version="1.0" encoding="UTF-8"?>
<svg xmlns="http://www.w3.org/2000/svg" viewBox="0 0 112 96" width="448" height="384">
  <rect x="0" y="0" width="112" height="96" fill="#347941" />
  <path d="M16,13L96,13L99,16L99,26L97,28L95,28L94,29L93,29L90,32L87,32L86,33L82,33L81,32L78,32L77,33L75,33L72,36L72,37L70,39L69,39L68,40L67,40L66,41L64,41L62,43L59,43L58,42L58,41L57,41L56,42L48,42L47,41L46,41L45,40L44,40L43,39L39,39L38,40L37,40L36,39L25,39L23,37L22,37L21,36L21,35L20,34L20,31L19,30L19,29L18,28L15,28L13,26L13,24L14,23L14,22L13,21L13,16Z" fill="#35a043" fill-rule="evenodd" />
  <path d="M17,14L37,14L38,15L38,17L36,19L35,19L34,20L33,20L32,21L31,21L29,23L27,23L26,24L25,24L24,23L20,23L19,22L17,22L16,21L15,21L14,20L14,17Z M69,14L84,14L87,17L87,18L86,19L86,24L83,27L82,27L81,28L76,28L75,27L73,27L72,26L70,26L68,24L68,15Z" fill="#4ac34e" fill-rule="evenodd" />
  <path d="M22,16L23,16L24,17L25,17L26,16L27,16L28,17L29,17L30,18L30,19L29,20L28,20L27,19L26,19L25,20L21,20L20,19L20,18Z M74,16L76,16L77,17L77,18L78,19L78,23L76,25L74,25L73,24L73,23L72,22L61,22L60,23L60,34L59,35L59,36L57,38L56,38L55,39L55,53L57,55L65,55L68,52L68,51L69,50L69,49L70,48L70,47L71,46L71,45L72,44L74,44L75,43L85,43L86,42L87,42L89,40L90,40L92,38L100,38L100,42L93,42L92,43L91,43L88,46L87,46L86,47L76,47L75,48L74,48L73,49L73,50L72,51L72,53L66,59L56,59L55,60L51,60L50,59L44,59L41,62L40,62L38,64L38,73L39,74L40,74L41,75L41,76L42,77L42,84L38,84L38,78L36,76L35,76L34,75L34,71L33,70L28,70L27,69L26,69L22,65L22,64L21,63L21,61L20,60L20,53L21,52L21,51L22,50L22,49L23,48L24,48L27,45L27,43L28,42L28,35L29,34L29,33L32,30L33,30L34,29L36,29L37,28L40,28L42,26L42,25L44,23L44,22L45,21L46,21L48,19L49,19L50,18L58,18L59,17L61,17L62,18L72,18Z M51,22L50,23L48,23L47,24L47,25L45,27L45,28L43,30L43,31L42,32L38,32L37,33L34,33L32,35L32,43L31,44L31,46L29,48L29,49L28,50L27,50L25,52L25,53L24,54L24,59L25,60L25,63L28,66L33,66L34,65L34,63L36,61L36,60L37,59L38,59L39,58L40,58L43,55L49,55L50,54L50,51L51,50L51,38L55,34L55,31L56,30L56,23L55,22Z M27,74L28,74L29,75L29,76L30,77L30,78L27,81L26,81L24,79L24,78L26,76L26,75Z" fill="#83e1c3" fill-opacity="0.5" fill-rule="evenodd" />
</svg>