<?xml version="1.0" encoding="UTF-8"?>
<svg xmlns="http://www.w3.org/2000/svg" viewBox="0 0 112 96" width="448" height="384">
  <rect x="0" y="0" width="112" height="96" fill="#347941" />
  <path d="M16,13L85,13L87,15L87,19L86,20L86,21L85,22L85,26L84,27L84,30L83,31L82,31L82,32L80,32L80,33L78,35L71,35L70,34L64,34L63,35L61,35L60,36L59,36L56,39L56,42L55,43L53,43L52,44L44,44L43,43L42,43L40,41L39,41L37,39L30,39L28,37L27,37L26,36L26,35L24,33L23,33L21,31L20,31L19,32L18,32L17,31L16,31L15,32L13,30L13,28L14,27L14,26L13,25L13,16Z M14,52L22,52L23,53L24,53L26,55L27,55L28,56L29,56L32,59L32,62L31,63L31,64L30,65L30,66L29,67L28,67L26,69L24,69L23,70L21,70L20,69L16,69L15,68L14,68L13,67L13,63L14,62L14,59L13,58L13,53Z" fill="#35a043" fill-rule="evenodd" />
  <path d="M17,14L28,14L30,16L30,22L29,23L28,23L25,26L16,26L14,24L14,17Z M46,14L68,14L69,15L69,17L67,19L66,19L65,20L64,20L63,21L60,21L59,22L47,22L46,21L46,18L45,17L45,15Z" fill="#4ac34e" fill-rule="evenodd" />
  <path d="M18,16L20,16L21,17L26,17L27,18L34,18L35,19L36,19L38,21L39,21L40,22L57,22L58,23L59,23L60,24L62,24L63,25L74,25L75,26L75,27L76,28L76,29L77,30L77,38L78,39L81,39L83,37L85,37L86,36L94,36L95,37L97,37L98,38L101,38L101,42L97,42L96,41L94,41L93,40L86,40L85,41L84,41L81,44L78,44L77,43L73,43L71,45L71,46L70,47L70,50L69,51L69,52L64,57L48,57L44,61L44,65L46,67L46,69L47,70L47,77L45,79L45,80L44,81L43,81L42,82L42,85L38,85L38,81L39,80L39,79L40,78L41,78L42,77L42,76L43,75L43,71L42,70L42,69L41,68L41,67L40,66L40,60L41,59L41,58L45,54L46,54L47,53L49,53L50,52L50,50L48,48L48,47L47,46L47,42L46,41L46,38L48,36L48,32L49,31L49,27L48,26L39,26L37,24L36,24L35,23L34,23L33,22L26,22L25,21L22,21L20,23L18,23L16,21L16,18Z M77,16L78,16L79,17L79,18L80,19L81,19L82,20L82,22L81,23L78,23L77,22L76,22L75,21L74,21L73,20L73,19L74,18L75,18Z M54,26L53,27L53,32L52,33L52,37L50,39L50,40L51,41L51,45L52,46L52,47L54,49L54,52L55,53L62,53L63,52L64,52L65,51L65,50L66,49L66,45L67,44L67,43L68,42L68,41L69,40L70,40L71,39L72,39L73,38L73,32L72,31L72,30L71,29L63,29L62,28L60,28L59,27L58,27L57,26Z M28,42L29,42L32,45L32,47L31,48L30,48L29,49L28,49L26,47L26,46L25,45L25,44L26,43L27,43Z" fill="#83e1c3" fill-opacity="0.5" fill-rule="evenodd" />
</svg>