<?xml version="1.0" encoding="UTF-8"?>
<svg xmlns="http://www.w3.org/2000/svg" viewBox="0 0 112 96" width="448" height="384">
  <rect x="0" y="0" width="112" height="96" fill="#347941" />
  <path d="M28,13L96,13L99,16L99,27L98,28L98,31L99,32L99,42L97,44L97,45L96,46L96,48L99,51L99,63L98,64L98,65L97,66L84,66L82,64L82,63L79,60L79,48L78,47L73,47L70,44L70,43L69,42L69,41L68,40L68,30L64,26L64,25L63,24L57,24L55,26L52,26L49,29L49,30L48,31L47,31L45,33L35,33L33,31L32,31L31,30L31,27L29,25L29,23L28,22L27,22L26,21L26,15Z" fill="#35a043" fill-rule="evenodd" />
  <path d="M46,14L63,14L64,15L64,17L62,19L59,19L58,20L57,20L56,21L50,21L48,19L47,19L45,17L45,15Z M77,14L95,14L98,17L98,23L97,24L97,26L95,28L85,28L83,26L83,25L81,23L81,22L80,21L78,21L76,19L76,15Z M94,53L97,53L98,54L98,62L97,63L97,64L96,65L90,65L88,63L88,59L90,57L91,57L93,55L93,54Z" fill="#4ac34e" fill-rule="evenodd" />
  <path d="M88,22L90,22L91,23L92,23L93,24L93,25L92,26L92,34L91,35L91,36L89,38L89,40L90,41L90,47L89,48L89,49L85,53L82,53L80,55L75,55L74,56L73,56L70,59L70,63L71,64L71,66L69,68L69,71L71,73L71,76L72,77L72,78L74,80L74,83L73,84L70,84L70,81L69,80L69,79L68,78L68,75L66,73L66,70L65,69L58,69L54,65L54,60L56,58L56,57L57,56L57,55L58,54L58,48L57,47L57,41L56,40L49,40L48,41L47,41L46,42L46,43L45,44L45,49L43,51L43,52L39,56L31,56L30,55L28,55L25,52L25,51L24,50L24,45L22,43L20,43L19,42L12,42L12,38L19,38L20,39L22,39L23,40L24,40L27,43L27,48L28,49L28,50L29,51L31,51L32,52L38,52L40,50L40,49L42,47L42,42L43,41L43,40L45,38L46,38L47,37L54,37L55,36L58,36L60,34L61,34L62,33L64,33L65,32L69,32L70,31L74,31L76,33L78,33L80,35L82,35L83,36L86,36L87,35L87,34L88,33L88,27L86,25L86,24Z M20,26L22,26L23,27L23,28L24,29L24,31L23,32L21,32L20,31L20,30L19,29L19,27Z M70,35L69,36L65,36L64,37L63,37L62,38L61,38L60,39L60,45L62,47L62,49L61,50L61,56L60,57L60,58L59,59L59,60L57,62L57,63L60,66L65,66L67,64L67,57L71,53L72,53L73,52L74,52L75,51L80,51L81,50L84,50L86,48L86,47L87,46L87,42L86,41L86,40L85,39L82,39L81,38L79,38L77,36L75,36L74,35Z M48,60L50,60L51,61L51,63L48,66L46,66L45,65L45,64L46,63L46,62Z" fill="#83e1c3" fill-opacity="0.5" fill-rule="evenodd" />
</svg>