<?xml version="1.0" encoding="UTF-8"?>
<svg xmlns="http://www.w3.org/2000/svg" viewBox="0 0 112 96" width="448" height="384">
  <rect x="0" y="0" width="112" height="96" fill="#347941" />
  <path d="M22,13L96,13L99,16L99,32L98,33L97,33L97,37L99,39L99,57L98,58L98,59L96,61L90,61L87,58L83,58L80,55L80,54L79,53L79,46L78,45L78,44L77,43L76,43L75,42L75,40L74,39L74,38L73,37L72,37L71,36L68,36L67,35L62,35L60,33L60,31L59,30L59,29L58,28L57,28L56,27L51,27L49,29L49,34L47,36L33,36L31,34L30,34L28,32L28,29L26,27L24,27L23,26L23,25L21,23L21,22L20,21L20,15Z" fill="#35a043" fill-rule="evenodd" />
  <path d="M31,14L65,14L67,16L67,22L66,23L66,24L65,25L60,25L58,23L58,22L57,21L53,21L52,20L47,20L45,22L44,22L42,24L33,24L30,21L30,15Z M93,39L97,39L98,40L98,49L97,50L95,50L94,49L94,48L92,46L92,40Z" fill="#4ac34e" fill-rule="evenodd" />
  <path d="M63,16L64,16L65,17L70,17L71,18L72,18L75,21L75,23L76,24L78,24L80,26L80,30L81,31L81,32L85,36L85,38L86,39L86,46L85,47L85,48L84,49L84,50L82,52L76,52L75,53L74,53L72,55L72,56L71,57L71,64L72,65L72,66L74,68L74,69L76,71L76,78L75,79L75,80L74,81L74,83L73,84L70,84L70,80L71,79L71,78L72,77L72,72L71,71L71,70L69,68L68,68L67,67L59,67L58,66L54,66L51,63L51,59L50,58L50,54L49,53L49,49L48,48L47,48L46,47L43,47L42,46L39,46L37,48L36,48L35,49L34,49L33,50L26,50L24,48L23,48L18,43L17,43L16,42L12,42L12,38L17,38L19,40L20,40L24,44L25,44L27,46L32,46L33,45L34,45L35,44L36,44L37,43L37,42L38,41L38,34L36,32L36,31L35,30L35,29L34,28L34,22L33,21L33,20L35,18L37,18L39,20L39,21L38,22L38,27L39,28L39,30L40,31L41,31L42,32L42,42L43,43L47,43L48,44L50,44L53,47L53,53L54,54L54,58L55,59L55,62L56,63L59,63L60,64L66,64L68,62L68,55L69,54L69,53L72,50L73,50L75,48L81,48L82,47L82,46L83,45L83,40L82,39L82,38L78,34L78,33L77,32L77,28L76,27L74,27L72,25L72,23L70,21L65,21L64,22L63,22L61,20L61,19L62,18L62,17Z M94,27L95,27L96,28L96,33L95,34L93,34L92,33L92,29Z M62,45L64,45L65,46L65,49L63,51L61,51L60,50L60,49L61,48L61,46Z" fill="#83e1c3" fill-opacity="0.5" fill-rule="evenodd" />
</svg>