<?xml version="1.0" encoding="UTF-8"?>
<svg xmlns="http://www.w3.org/2000/svg" viewBox="0 0 112 96" width="448" height="384">
  <rect x="0" y="0" width="112" height="96" fill="#347941" />
  <path d="M16,13L96,13L99,16L99,26L98,27L98,31L99,32L99,38L96,41L95,41L94,42L92,42L91,43L84,43L83,44L78,44L77,43L76,43L75,42L73,42L72,41L72,40L67,35L67,34L66,33L62,33L61,34L58,34L57,33L54,33L53,32L51,32L50,33L50,34L46,38L45,38L44,39L42,39L42,40L41,41L34,41L33,40L32,40L31,41L26,41L25,40L23,40L22,41L21,41L19,39L19,38L17,36L16,36L15,35L15,34L13,32L13,28L15,26L15,25L14,25L13,24L13,16Z" fill="#35a043" fill-rule="evenodd" />
  <path d="M22,14L30,14L33,17L33,24L31,26L29,26L28,25L27,25L26,26L21,26L20,25L17,25L15,23L15,17L17,15L21,15Z M40,14L48,14L49,15L49,20L47,22L42,22L40,20L40,19L39,18L39,15Z M58,14L65,14L67,16L67,17L66,18L66,20L65,21L65,23L59,29L56,29L55,28L55,25L56,24L56,16Z M83,14L92,14L95,17L95,20L93,22L93,23L94,24L94,27L93,28L84,28L83,29L76,29L73,26L74,25L74,24L73,23L73,20L76,17L77,17L78,16L81,16Z" fill="#4ac34e" fill-rule="evenodd" />
  <path d="M22,18L24,18L25,19L29,19L30,20L30,22L29,23L26,23L25,24L25,26L26,27L26,28L30,32L36,32L39,35L39,42L40,43L47,43L51,47L51,48L54,51L56,51L57,52L65,52L68,49L68,48L71,45L78,45L79,44L79,40L80,39L80,35L81,34L81,33L82,32L83,32L84,31L84,26L83,25L82,25L81,24L80,24L79,23L79,22L81,20L89,20L90,21L90,23L88,25L88,35L87,36L85,36L84,37L84,41L83,42L83,44L84,45L87,45L89,47L89,48L90,49L90,50L91,51L91,53L95,57L95,62L88,69L88,70L89,71L89,72L91,74L91,80L90,81L90,83L89,84L86,84L86,74L85,73L85,72L83,70L83,67L86,64L87,64L91,60L91,58L88,55L88,53L87,52L87,51L86,50L83,50L82,49L80,49L79,50L74,50L72,52L72,53L69,56L65,56L64,57L56,57L55,56L52,56L47,51L47,50L44,47L38,47L37,46L36,46L35,47L35,52L34,53L34,58L30,62L30,63L28,65L28,68L26,70L26,71L25,72L25,77L26,78L26,84L22,84L22,78L21,77L21,72L22,71L22,69L24,67L24,63L25,62L25,61L30,56L30,49L31,48L31,46L35,42L35,37L34,36L28,36L22,30L22,29L21,28L21,24L20,23L19,23L18,22L18,20L19,19L21,19Z M35,20L37,20L39,22L39,23L41,25L41,27L40,28L37,28L35,26L35,24L34,23L34,21Z M62,40L63,40L64,41L64,45L63,46L62,46L61,45L60,45L59,46L58,46L57,45L57,44L59,42L60,42Z" fill="#83e1c3" fill-opacity="0.5" fill-rule="evenodd" />
</svg>